G04 #@! TF.FileFunction,Legend,Bot*
%FSLAX46Y46*%
G04 Gerber Fmt 4.6, Leading zero omitted, Abs format (unit mm)*
G04 Created by KiCad (PCBNEW (after 2015-mar-04 BZR unknown)-product) date Mon 16 Nov 2015 02:55:06 AM EST*
%MOMM*%
G01*
G04 APERTURE LIST*
%ADD10C,0.100000*%
%ADD11C,0.508000*%
G04 APERTURE END LIST*
D10*
D11*
X86239048Y-109401429D02*
X83699048Y-109401429D01*
X83699048Y-110369048D01*
X83820000Y-110610953D01*
X83940952Y-110731905D01*
X84182857Y-110852857D01*
X84545714Y-110852857D01*
X84787619Y-110731905D01*
X84908571Y-110610953D01*
X85029524Y-110369048D01*
X85029524Y-109401429D01*
X86239048Y-111941429D02*
X83699048Y-111941429D01*
X86239048Y-113030000D02*
X84908571Y-113030000D01*
X84666667Y-112909048D01*
X84545714Y-112667143D01*
X84545714Y-112304286D01*
X84666667Y-112062381D01*
X84787619Y-111941429D01*
X86239048Y-114602381D02*
X86118095Y-114360476D01*
X85997143Y-114239524D01*
X85755238Y-114118572D01*
X85029524Y-114118572D01*
X84787619Y-114239524D01*
X84666667Y-114360476D01*
X84545714Y-114602381D01*
X84545714Y-114965238D01*
X84666667Y-115207143D01*
X84787619Y-115328095D01*
X85029524Y-115449048D01*
X85755238Y-115449048D01*
X85997143Y-115328095D01*
X86118095Y-115207143D01*
X86239048Y-114965238D01*
X86239048Y-114602381D01*
X84545714Y-116174762D02*
X84545714Y-117142381D01*
X83699048Y-116537619D02*
X85876190Y-116537619D01*
X86118095Y-116658571D01*
X86239048Y-116900476D01*
X86239048Y-117142381D01*
X86239048Y-118351905D02*
X86118095Y-118110000D01*
X85997143Y-117989048D01*
X85755238Y-117868096D01*
X85029524Y-117868096D01*
X84787619Y-117989048D01*
X84666667Y-118110000D01*
X84545714Y-118351905D01*
X84545714Y-118714762D01*
X84666667Y-118956667D01*
X84787619Y-119077619D01*
X85029524Y-119198572D01*
X85755238Y-119198572D01*
X85997143Y-119077619D01*
X86118095Y-118956667D01*
X86239048Y-118714762D01*
X86239048Y-118351905D01*
X85271429Y-120287143D02*
X85271429Y-122222381D01*
X85513333Y-123310953D02*
X85513333Y-124520476D01*
X86239048Y-123069048D02*
X83699048Y-123915714D01*
X86239048Y-124762381D01*
X86118095Y-126697619D02*
X86239048Y-126455715D01*
X86239048Y-125971905D01*
X86118095Y-125730000D01*
X85997143Y-125609048D01*
X85755238Y-125488096D01*
X85029524Y-125488096D01*
X84787619Y-125609048D01*
X84666667Y-125730000D01*
X84545714Y-125971905D01*
X84545714Y-126455715D01*
X84666667Y-126697619D01*
X86239048Y-128149048D02*
X86118095Y-127907143D01*
X85997143Y-127786191D01*
X85755238Y-127665239D01*
X85029524Y-127665239D01*
X84787619Y-127786191D01*
X84666667Y-127907143D01*
X84545714Y-128149048D01*
X84545714Y-128511905D01*
X84666667Y-128753810D01*
X84787619Y-128874762D01*
X85029524Y-128995715D01*
X85755238Y-128995715D01*
X85997143Y-128874762D01*
X86118095Y-128753810D01*
X86239048Y-128511905D01*
X86239048Y-128149048D01*
X84545714Y-131172857D02*
X86239048Y-131172857D01*
X84545714Y-130084286D02*
X85876190Y-130084286D01*
X86118095Y-130205238D01*
X86239048Y-130447143D01*
X86239048Y-130810000D01*
X86118095Y-131051905D01*
X85997143Y-131172857D01*
X86118095Y-132261429D02*
X86239048Y-132503333D01*
X86239048Y-132987143D01*
X86118095Y-133229048D01*
X85876190Y-133350000D01*
X85755238Y-133350000D01*
X85513333Y-133229048D01*
X85392381Y-132987143D01*
X85392381Y-132624286D01*
X85271429Y-132382381D01*
X85029524Y-132261429D01*
X84908571Y-132261429D01*
X84666667Y-132382381D01*
X84545714Y-132624286D01*
X84545714Y-132987143D01*
X84666667Y-133229048D01*
X84545714Y-134075714D02*
X84545714Y-135043333D01*
X83699048Y-134438571D02*
X85876190Y-134438571D01*
X86118095Y-134559523D01*
X86239048Y-134801428D01*
X86239048Y-135043333D01*
X86239048Y-135890000D02*
X84545714Y-135890000D01*
X83699048Y-135890000D02*
X83820000Y-135769048D01*
X83940952Y-135890000D01*
X83820000Y-136010952D01*
X83699048Y-135890000D01*
X83940952Y-135890000D01*
X86118095Y-138188095D02*
X86239048Y-137946191D01*
X86239048Y-137462381D01*
X86118095Y-137220476D01*
X85997143Y-137099524D01*
X85755238Y-136978572D01*
X85029524Y-136978572D01*
X84787619Y-137099524D01*
X84666667Y-137220476D01*
X84545714Y-137462381D01*
X84545714Y-137946191D01*
X84666667Y-138188095D01*
X86118095Y-141090953D02*
X86239048Y-141453810D01*
X86239048Y-142058572D01*
X86118095Y-142300476D01*
X85997143Y-142421429D01*
X85755238Y-142542381D01*
X85513333Y-142542381D01*
X85271429Y-142421429D01*
X85150476Y-142300476D01*
X85029524Y-142058572D01*
X84908571Y-141574762D01*
X84787619Y-141332857D01*
X84666667Y-141211905D01*
X84424762Y-141090953D01*
X84182857Y-141090953D01*
X83940952Y-141211905D01*
X83820000Y-141332857D01*
X83699048Y-141574762D01*
X83699048Y-142179524D01*
X83820000Y-142542381D01*
X86118095Y-144598572D02*
X86239048Y-144356667D01*
X86239048Y-143872858D01*
X86118095Y-143630953D01*
X85876190Y-143510001D01*
X84908571Y-143510001D01*
X84666667Y-143630953D01*
X84545714Y-143872858D01*
X84545714Y-144356667D01*
X84666667Y-144598572D01*
X84908571Y-144719524D01*
X85150476Y-144719524D01*
X85392381Y-143510001D01*
X84545714Y-145808096D02*
X86239048Y-145808096D01*
X84787619Y-145808096D02*
X84666667Y-145929048D01*
X84545714Y-146170953D01*
X84545714Y-146533810D01*
X84666667Y-146775715D01*
X84908571Y-146896667D01*
X86239048Y-146896667D01*
X86118095Y-147985239D02*
X86239048Y-148227143D01*
X86239048Y-148710953D01*
X86118095Y-148952858D01*
X85876190Y-149073810D01*
X85755238Y-149073810D01*
X85513333Y-148952858D01*
X85392381Y-148710953D01*
X85392381Y-148348096D01*
X85271429Y-148106191D01*
X85029524Y-147985239D01*
X84908571Y-147985239D01*
X84666667Y-148106191D01*
X84545714Y-148348096D01*
X84545714Y-148710953D01*
X84666667Y-148952858D01*
X86239048Y-150162381D02*
X84545714Y-150162381D01*
X83699048Y-150162381D02*
X83820000Y-150041429D01*
X83940952Y-150162381D01*
X83820000Y-150283333D01*
X83699048Y-150162381D01*
X83940952Y-150162381D01*
X84545714Y-151371905D02*
X86239048Y-151371905D01*
X84787619Y-151371905D02*
X84666667Y-151492857D01*
X84545714Y-151734762D01*
X84545714Y-152097619D01*
X84666667Y-152339524D01*
X84908571Y-152460476D01*
X86239048Y-152460476D01*
X84545714Y-154758571D02*
X86601905Y-154758571D01*
X86843810Y-154637619D01*
X86964762Y-154516667D01*
X87085714Y-154274762D01*
X87085714Y-153911905D01*
X86964762Y-153670000D01*
X86118095Y-154758571D02*
X86239048Y-154516667D01*
X86239048Y-154032857D01*
X86118095Y-153790952D01*
X85997143Y-153670000D01*
X85755238Y-153549048D01*
X85029524Y-153549048D01*
X84787619Y-153670000D01*
X84666667Y-153790952D01*
X84545714Y-154032857D01*
X84545714Y-154516667D01*
X84666667Y-154758571D01*
X88004952Y-118049524D02*
X87884000Y-118170476D01*
X87763048Y-118412381D01*
X87763048Y-119017143D01*
X87884000Y-119259047D01*
X88004952Y-119380000D01*
X88246857Y-119500952D01*
X88488762Y-119500952D01*
X88851619Y-119380000D01*
X90303048Y-117928571D01*
X90303048Y-119500952D01*
X87763048Y-121073333D02*
X87763048Y-121315238D01*
X87884000Y-121557143D01*
X88004952Y-121678095D01*
X88246857Y-121799048D01*
X88730667Y-121920000D01*
X89335429Y-121920000D01*
X89819238Y-121799048D01*
X90061143Y-121678095D01*
X90182095Y-121557143D01*
X90303048Y-121315238D01*
X90303048Y-121073333D01*
X90182095Y-120831429D01*
X90061143Y-120710476D01*
X89819238Y-120589524D01*
X89335429Y-120468572D01*
X88730667Y-120468572D01*
X88246857Y-120589524D01*
X88004952Y-120710476D01*
X87884000Y-120831429D01*
X87763048Y-121073333D01*
X90303048Y-124339048D02*
X90303048Y-122887620D01*
X90303048Y-123613334D02*
X87763048Y-123613334D01*
X88125905Y-123371429D01*
X88367810Y-123129524D01*
X88488762Y-122887620D01*
X87763048Y-126637144D02*
X87763048Y-125427620D01*
X88972571Y-125306668D01*
X88851619Y-125427620D01*
X88730667Y-125669525D01*
X88730667Y-126274287D01*
X88851619Y-126516191D01*
X88972571Y-126637144D01*
X89214476Y-126758096D01*
X89819238Y-126758096D01*
X90061143Y-126637144D01*
X90182095Y-126516191D01*
X90303048Y-126274287D01*
X90303048Y-125669525D01*
X90182095Y-125427620D01*
X90061143Y-125306668D01*
X90061143Y-131233334D02*
X90182095Y-131112382D01*
X90303048Y-130749525D01*
X90303048Y-130507620D01*
X90182095Y-130144763D01*
X89940190Y-129902858D01*
X89698286Y-129781906D01*
X89214476Y-129660954D01*
X88851619Y-129660954D01*
X88367810Y-129781906D01*
X88125905Y-129902858D01*
X87884000Y-130144763D01*
X87763048Y-130507620D01*
X87763048Y-130749525D01*
X87884000Y-131112382D01*
X88004952Y-131233334D01*
X90303048Y-133410477D02*
X88972571Y-133410477D01*
X88730667Y-133289525D01*
X88609714Y-133047620D01*
X88609714Y-132563811D01*
X88730667Y-132321906D01*
X90182095Y-133410477D02*
X90303048Y-133168573D01*
X90303048Y-132563811D01*
X90182095Y-132321906D01*
X89940190Y-132200954D01*
X89698286Y-132200954D01*
X89456381Y-132321906D01*
X89335429Y-132563811D01*
X89335429Y-133168573D01*
X89214476Y-133410477D01*
X88609714Y-134620001D02*
X91149714Y-134620001D01*
X88730667Y-134620001D02*
X88609714Y-134861906D01*
X88609714Y-135345715D01*
X88730667Y-135587620D01*
X88851619Y-135708572D01*
X89093524Y-135829525D01*
X89819238Y-135829525D01*
X90061143Y-135708572D01*
X90182095Y-135587620D01*
X90303048Y-135345715D01*
X90303048Y-134861906D01*
X90182095Y-134620001D01*
X90182095Y-136797144D02*
X90303048Y-137039048D01*
X90303048Y-137522858D01*
X90182095Y-137764763D01*
X89940190Y-137885715D01*
X89819238Y-137885715D01*
X89577333Y-137764763D01*
X89456381Y-137522858D01*
X89456381Y-137160001D01*
X89335429Y-136918096D01*
X89093524Y-136797144D01*
X88972571Y-136797144D01*
X88730667Y-136918096D01*
X88609714Y-137160001D01*
X88609714Y-137522858D01*
X88730667Y-137764763D01*
X88609714Y-138611429D02*
X88609714Y-139579048D01*
X87763048Y-138974286D02*
X89940190Y-138974286D01*
X90182095Y-139095238D01*
X90303048Y-139337143D01*
X90303048Y-139579048D01*
X90303048Y-140788572D02*
X90182095Y-140546667D01*
X90061143Y-140425715D01*
X89819238Y-140304763D01*
X89093524Y-140304763D01*
X88851619Y-140425715D01*
X88730667Y-140546667D01*
X88609714Y-140788572D01*
X88609714Y-141151429D01*
X88730667Y-141393334D01*
X88851619Y-141514286D01*
X89093524Y-141635239D01*
X89819238Y-141635239D01*
X90061143Y-141514286D01*
X90182095Y-141393334D01*
X90303048Y-141151429D01*
X90303048Y-140788572D01*
X88609714Y-142723810D02*
X90303048Y-142723810D01*
X88851619Y-142723810D02*
X88730667Y-142844762D01*
X88609714Y-143086667D01*
X88609714Y-143449524D01*
X88730667Y-143691429D01*
X88972571Y-143812381D01*
X90303048Y-143812381D01*
X90182095Y-145989524D02*
X90303048Y-145747619D01*
X90303048Y-145263810D01*
X90182095Y-145021905D01*
X89940190Y-144900953D01*
X88972571Y-144900953D01*
X88730667Y-145021905D01*
X88609714Y-145263810D01*
X88609714Y-145747619D01*
X88730667Y-145989524D01*
X88972571Y-146110476D01*
X89214476Y-146110476D01*
X89456381Y-144900953D01*
X94367048Y-119380001D02*
X91827048Y-119380001D01*
X93641333Y-120226668D01*
X91827048Y-121073334D01*
X94367048Y-121073334D01*
X94367048Y-123371429D02*
X93036571Y-123371429D01*
X92794667Y-123250477D01*
X92673714Y-123008572D01*
X92673714Y-122524763D01*
X92794667Y-122282858D01*
X94246095Y-123371429D02*
X94367048Y-123129525D01*
X94367048Y-122524763D01*
X94246095Y-122282858D01*
X94004190Y-122161906D01*
X93762286Y-122161906D01*
X93520381Y-122282858D01*
X93399429Y-122524763D01*
X93399429Y-123129525D01*
X93278476Y-123371429D01*
X94367048Y-124580953D02*
X92673714Y-124580953D01*
X93157524Y-124580953D02*
X92915619Y-124701905D01*
X92794667Y-124822858D01*
X92673714Y-125064762D01*
X92673714Y-125306667D01*
X94367048Y-126153334D02*
X91827048Y-126153334D01*
X93399429Y-126395239D02*
X94367048Y-127120953D01*
X92673714Y-127120953D02*
X93641333Y-126153334D01*
X94367048Y-130144762D02*
X91827048Y-130144762D01*
X93641333Y-130991429D01*
X91827048Y-131838095D01*
X94367048Y-131838095D01*
X92673714Y-134136190D02*
X94367048Y-134136190D01*
X92673714Y-133047619D02*
X94004190Y-133047619D01*
X94246095Y-133168571D01*
X94367048Y-133410476D01*
X94367048Y-133773333D01*
X94246095Y-134015238D01*
X94125143Y-134136190D01*
X94367048Y-135345714D02*
X92673714Y-135345714D01*
X93157524Y-135345714D02*
X92915619Y-135466666D01*
X92794667Y-135587619D01*
X92673714Y-135829523D01*
X92673714Y-136071428D01*
X92673714Y-136918095D02*
X94367048Y-136918095D01*
X92915619Y-136918095D02*
X92794667Y-137039047D01*
X92673714Y-137280952D01*
X92673714Y-137643809D01*
X92794667Y-137885714D01*
X93036571Y-138006666D01*
X94367048Y-138006666D01*
X94367048Y-140304761D02*
X93036571Y-140304761D01*
X92794667Y-140183809D01*
X92673714Y-139941904D01*
X92673714Y-139458095D01*
X92794667Y-139216190D01*
X94246095Y-140304761D02*
X94367048Y-140062857D01*
X94367048Y-139458095D01*
X94246095Y-139216190D01*
X94004190Y-139095238D01*
X93762286Y-139095238D01*
X93520381Y-139216190D01*
X93399429Y-139458095D01*
X93399429Y-140062857D01*
X93278476Y-140304761D01*
X92673714Y-141514285D02*
X94367048Y-141514285D01*
X92915619Y-141514285D02*
X92794667Y-141635237D01*
X92673714Y-141877142D01*
X92673714Y-142239999D01*
X92794667Y-142481904D01*
X93036571Y-142602856D01*
X94367048Y-142602856D01*
X94246095Y-144779999D02*
X94367048Y-144538094D01*
X94367048Y-144054285D01*
X94246095Y-143812380D01*
X94004190Y-143691428D01*
X93036571Y-143691428D01*
X92794667Y-143812380D01*
X92673714Y-144054285D01*
X92673714Y-144538094D01*
X92794667Y-144779999D01*
X93036571Y-144900951D01*
X93278476Y-144900951D01*
X93520381Y-143691428D01*
X97100571Y-118896192D02*
X97221524Y-119259049D01*
X97342476Y-119380001D01*
X97584381Y-119500953D01*
X97947238Y-119500953D01*
X98189143Y-119380001D01*
X98310095Y-119259049D01*
X98431048Y-119017144D01*
X98431048Y-118049525D01*
X95891048Y-118049525D01*
X95891048Y-118896192D01*
X96012000Y-119138096D01*
X96132952Y-119259049D01*
X96374857Y-119380001D01*
X96616762Y-119380001D01*
X96858667Y-119259049D01*
X96979619Y-119138096D01*
X97100571Y-118896192D01*
X97100571Y-118049525D01*
X98431048Y-120589525D02*
X96737714Y-120589525D01*
X97221524Y-120589525D02*
X96979619Y-120710477D01*
X96858667Y-120831430D01*
X96737714Y-121073334D01*
X96737714Y-121315239D01*
X98431048Y-123250477D02*
X97100571Y-123250477D01*
X96858667Y-123129525D01*
X96737714Y-122887620D01*
X96737714Y-122403811D01*
X96858667Y-122161906D01*
X98310095Y-123250477D02*
X98431048Y-123008573D01*
X98431048Y-122403811D01*
X98310095Y-122161906D01*
X98068190Y-122040954D01*
X97826286Y-122040954D01*
X97584381Y-122161906D01*
X97463429Y-122403811D01*
X97463429Y-123008573D01*
X97342476Y-123250477D01*
X96737714Y-124460001D02*
X98431048Y-124460001D01*
X96979619Y-124460001D02*
X96858667Y-124580953D01*
X96737714Y-124822858D01*
X96737714Y-125185715D01*
X96858667Y-125427620D01*
X97100571Y-125548572D01*
X98431048Y-125548572D01*
X98431048Y-127846667D02*
X95891048Y-127846667D01*
X98310095Y-127846667D02*
X98431048Y-127604763D01*
X98431048Y-127120953D01*
X98310095Y-126879048D01*
X98189143Y-126758096D01*
X97947238Y-126637144D01*
X97221524Y-126637144D01*
X96979619Y-126758096D01*
X96858667Y-126879048D01*
X96737714Y-127120953D01*
X96737714Y-127604763D01*
X96858667Y-127846667D01*
X98431048Y-129419048D02*
X98310095Y-129177143D01*
X98189143Y-129056191D01*
X97947238Y-128935239D01*
X97221524Y-128935239D01*
X96979619Y-129056191D01*
X96858667Y-129177143D01*
X96737714Y-129419048D01*
X96737714Y-129781905D01*
X96858667Y-130023810D01*
X96979619Y-130144762D01*
X97221524Y-130265715D01*
X97947238Y-130265715D01*
X98189143Y-130144762D01*
X98310095Y-130023810D01*
X98431048Y-129781905D01*
X98431048Y-129419048D01*
X96737714Y-131354286D02*
X98431048Y-131354286D01*
X96979619Y-131354286D02*
X96858667Y-131475238D01*
X96737714Y-131717143D01*
X96737714Y-132080000D01*
X96858667Y-132321905D01*
X97100571Y-132442857D01*
X98431048Y-132442857D01*
X98672952Y-137280952D02*
X98552000Y-137039047D01*
X98310095Y-136797143D01*
X97947238Y-136434286D01*
X97826286Y-136192381D01*
X97826286Y-135950476D01*
X98431048Y-136071428D02*
X98310095Y-135829524D01*
X98068190Y-135587619D01*
X97584381Y-135466667D01*
X96737714Y-135466667D01*
X96253905Y-135587619D01*
X96012000Y-135829524D01*
X95891048Y-136071428D01*
X95891048Y-136555238D01*
X96012000Y-136797143D01*
X96253905Y-137039047D01*
X96737714Y-137160000D01*
X97584381Y-137160000D01*
X98068190Y-137039047D01*
X98310095Y-136797143D01*
X98431048Y-136555238D01*
X98431048Y-136071428D01*
X96737714Y-139337142D02*
X98431048Y-139337142D01*
X96737714Y-138248571D02*
X98068190Y-138248571D01*
X98310095Y-138369523D01*
X98431048Y-138611428D01*
X98431048Y-138974285D01*
X98310095Y-139216190D01*
X98189143Y-139337142D01*
X98431048Y-141635237D02*
X97100571Y-141635237D01*
X96858667Y-141514285D01*
X96737714Y-141272380D01*
X96737714Y-140788571D01*
X96858667Y-140546666D01*
X98310095Y-141635237D02*
X98431048Y-141393333D01*
X98431048Y-140788571D01*
X98310095Y-140546666D01*
X98068190Y-140425714D01*
X97826286Y-140425714D01*
X97584381Y-140546666D01*
X97463429Y-140788571D01*
X97463429Y-141393333D01*
X97342476Y-141635237D01*
X98431048Y-143933332D02*
X95891048Y-143933332D01*
X98310095Y-143933332D02*
X98431048Y-143691428D01*
X98431048Y-143207618D01*
X98310095Y-142965713D01*
X98189143Y-142844761D01*
X97947238Y-142723809D01*
X97221524Y-142723809D01*
X96979619Y-142844761D01*
X96858667Y-142965713D01*
X96737714Y-143207618D01*
X96737714Y-143691428D01*
X96858667Y-143933332D01*
X98310095Y-146110475D02*
X98431048Y-145868570D01*
X98431048Y-145384761D01*
X98310095Y-145142856D01*
X98068190Y-145021904D01*
X97100571Y-145021904D01*
X96858667Y-145142856D01*
X96737714Y-145384761D01*
X96737714Y-145868570D01*
X96858667Y-146110475D01*
X97100571Y-146231427D01*
X97342476Y-146231427D01*
X97584381Y-145021904D01*
X99955048Y-121012858D02*
X99955048Y-122464286D01*
X102495048Y-121738572D02*
X99955048Y-121738572D01*
X100801714Y-123069048D02*
X102495048Y-123673810D01*
X100801714Y-124278572D02*
X102495048Y-123673810D01*
X103099810Y-123431905D01*
X103220762Y-123310953D01*
X103341714Y-123069048D01*
X102495048Y-125609048D02*
X102374095Y-125367143D01*
X102132190Y-125246191D01*
X99955048Y-125246191D01*
X102374095Y-127544286D02*
X102495048Y-127302381D01*
X102495048Y-126818572D01*
X102374095Y-126576667D01*
X102132190Y-126455715D01*
X101164571Y-126455715D01*
X100922667Y-126576667D01*
X100801714Y-126818572D01*
X100801714Y-127302381D01*
X100922667Y-127544286D01*
X101164571Y-127665238D01*
X101406476Y-127665238D01*
X101648381Y-126455715D01*
X102495048Y-128753810D02*
X100801714Y-128753810D01*
X101285524Y-128753810D02*
X101043619Y-128874762D01*
X100922667Y-128995715D01*
X100801714Y-129237619D01*
X100801714Y-129479524D01*
X102736952Y-133954762D02*
X102616000Y-133712857D01*
X102374095Y-133470953D01*
X102011238Y-133108096D01*
X101890286Y-132866191D01*
X101890286Y-132624286D01*
X102495048Y-132745238D02*
X102374095Y-132503334D01*
X102132190Y-132261429D01*
X101648381Y-132140477D01*
X100801714Y-132140477D01*
X100317905Y-132261429D01*
X100076000Y-132503334D01*
X99955048Y-132745238D01*
X99955048Y-133229048D01*
X100076000Y-133470953D01*
X100317905Y-133712857D01*
X100801714Y-133833810D01*
X101648381Y-133833810D01*
X102132190Y-133712857D01*
X102374095Y-133470953D01*
X102495048Y-133229048D01*
X102495048Y-132745238D01*
X100801714Y-136010952D02*
X102495048Y-136010952D01*
X100801714Y-134922381D02*
X102132190Y-134922381D01*
X102374095Y-135043333D01*
X102495048Y-135285238D01*
X102495048Y-135648095D01*
X102374095Y-135890000D01*
X102253143Y-136010952D01*
X102495048Y-138309047D02*
X101164571Y-138309047D01*
X100922667Y-138188095D01*
X100801714Y-137946190D01*
X100801714Y-137462381D01*
X100922667Y-137220476D01*
X102374095Y-138309047D02*
X102495048Y-138067143D01*
X102495048Y-137462381D01*
X102374095Y-137220476D01*
X102132190Y-137099524D01*
X101890286Y-137099524D01*
X101648381Y-137220476D01*
X101527429Y-137462381D01*
X101527429Y-138067143D01*
X101406476Y-138309047D01*
X102495048Y-140607142D02*
X99955048Y-140607142D01*
X102374095Y-140607142D02*
X102495048Y-140365238D01*
X102495048Y-139881428D01*
X102374095Y-139639523D01*
X102253143Y-139518571D01*
X102011238Y-139397619D01*
X101285524Y-139397619D01*
X101043619Y-139518571D01*
X100922667Y-139639523D01*
X100801714Y-139881428D01*
X100801714Y-140365238D01*
X100922667Y-140607142D01*
X102374095Y-142784285D02*
X102495048Y-142542380D01*
X102495048Y-142058571D01*
X102374095Y-141816666D01*
X102132190Y-141695714D01*
X101164571Y-141695714D01*
X100922667Y-141816666D01*
X100801714Y-142058571D01*
X100801714Y-142542380D01*
X100922667Y-142784285D01*
X101164571Y-142905237D01*
X101406476Y-142905237D01*
X101648381Y-141695714D01*
X106559048Y-118049525D02*
X104019048Y-118049525D01*
X105833333Y-118896192D01*
X104019048Y-119742858D01*
X106559048Y-119742858D01*
X106559048Y-122040953D02*
X105228571Y-122040953D01*
X104986667Y-121920001D01*
X104865714Y-121678096D01*
X104865714Y-121194287D01*
X104986667Y-120952382D01*
X106438095Y-122040953D02*
X106559048Y-121799049D01*
X106559048Y-121194287D01*
X106438095Y-120952382D01*
X106196190Y-120831430D01*
X105954286Y-120831430D01*
X105712381Y-120952382D01*
X105591429Y-121194287D01*
X105591429Y-121799049D01*
X105470476Y-122040953D01*
X106559048Y-123250477D02*
X104019048Y-123250477D01*
X106559048Y-124339048D02*
X105228571Y-124339048D01*
X104986667Y-124218096D01*
X104865714Y-123976191D01*
X104865714Y-123613334D01*
X104986667Y-123371429D01*
X105107619Y-123250477D01*
X106438095Y-126516191D02*
X106559048Y-126274286D01*
X106559048Y-125790477D01*
X106438095Y-125548572D01*
X106196190Y-125427620D01*
X105228571Y-125427620D01*
X104986667Y-125548572D01*
X104865714Y-125790477D01*
X104865714Y-126274286D01*
X104986667Y-126516191D01*
X105228571Y-126637143D01*
X105470476Y-126637143D01*
X105712381Y-125427620D01*
X106438095Y-127604763D02*
X106559048Y-127846667D01*
X106559048Y-128330477D01*
X106438095Y-128572382D01*
X106196190Y-128693334D01*
X106075238Y-128693334D01*
X105833333Y-128572382D01*
X105712381Y-128330477D01*
X105712381Y-127967620D01*
X105591429Y-127725715D01*
X105349524Y-127604763D01*
X105228571Y-127604763D01*
X104986667Y-127725715D01*
X104865714Y-127967620D01*
X104865714Y-128330477D01*
X104986667Y-128572382D01*
X106559048Y-129781905D02*
X104019048Y-129781905D01*
X106559048Y-130870476D02*
X105228571Y-130870476D01*
X104986667Y-130749524D01*
X104865714Y-130507619D01*
X104865714Y-130144762D01*
X104986667Y-129902857D01*
X105107619Y-129781905D01*
X106438095Y-133894286D02*
X106559048Y-134257143D01*
X106559048Y-134861905D01*
X106438095Y-135103809D01*
X106317143Y-135224762D01*
X106075238Y-135345714D01*
X105833333Y-135345714D01*
X105591429Y-135224762D01*
X105470476Y-135103809D01*
X105349524Y-134861905D01*
X105228571Y-134378095D01*
X105107619Y-134136190D01*
X104986667Y-134015238D01*
X104744762Y-133894286D01*
X104502857Y-133894286D01*
X104260952Y-134015238D01*
X104140000Y-134136190D01*
X104019048Y-134378095D01*
X104019048Y-134982857D01*
X104140000Y-135345714D01*
X106559048Y-136434286D02*
X104019048Y-136434286D01*
X106559048Y-137522857D02*
X105228571Y-137522857D01*
X104986667Y-137401905D01*
X104865714Y-137160000D01*
X104865714Y-136797143D01*
X104986667Y-136555238D01*
X105107619Y-136434286D01*
X106559048Y-138732381D02*
X104865714Y-138732381D01*
X104019048Y-138732381D02*
X104140000Y-138611429D01*
X104260952Y-138732381D01*
X104140000Y-138853333D01*
X104019048Y-138732381D01*
X104260952Y-138732381D01*
X106559048Y-139941905D02*
X104865714Y-139941905D01*
X105349524Y-139941905D02*
X105107619Y-140062857D01*
X104986667Y-140183810D01*
X104865714Y-140425714D01*
X104865714Y-140667619D01*
X106559048Y-141877143D02*
X106438095Y-141635238D01*
X106317143Y-141514286D01*
X106075238Y-141393334D01*
X105349524Y-141393334D01*
X105107619Y-141514286D01*
X104986667Y-141635238D01*
X104865714Y-141877143D01*
X104865714Y-142240000D01*
X104986667Y-142481905D01*
X105107619Y-142602857D01*
X105349524Y-142723810D01*
X106075238Y-142723810D01*
X106317143Y-142602857D01*
X106438095Y-142481905D01*
X106559048Y-142240000D01*
X106559048Y-141877143D01*
X106559048Y-144175238D02*
X106438095Y-143933333D01*
X106196190Y-143812381D01*
X104019048Y-143812381D01*
X106438095Y-146110476D02*
X106559048Y-145868571D01*
X106559048Y-145384762D01*
X106438095Y-145142857D01*
X106196190Y-145021905D01*
X105228571Y-145021905D01*
X104986667Y-145142857D01*
X104865714Y-145384762D01*
X104865714Y-145868571D01*
X104986667Y-146110476D01*
X105228571Y-146231428D01*
X105470476Y-146231428D01*
X105712381Y-145021905D01*
M02*
