G04 #@! TF.FileFunction,Copper,L2,Bot,Signal*
%FSLAX46Y46*%
G04 Gerber Fmt 4.6, Leading zero omitted, Abs format (unit mm)*
G04 Created by KiCad (PCBNEW (after 2015-mar-04 BZR unknown)-product) date Mon 16 Nov 2015 02:55:06 AM EST*
%MOMM*%
G01*
G04 APERTURE LIST*
%ADD10C,0.100000*%
%ADD11C,1.998980*%
%ADD12R,1.998980X1.998980*%
%ADD13R,1.727200X1.727200*%
%ADD14O,1.727200X1.727200*%
%ADD15C,1.600200*%
%ADD16C,0.381000*%
%ADD17C,0.152400*%
G04 APERTURE END LIST*
D10*
D11*
X83820000Y-119380000D03*
D12*
X93980000Y-119380000D03*
D11*
X93980000Y-123190000D03*
D12*
X83820000Y-123190000D03*
D11*
X110490000Y-133350000D03*
D12*
X110490000Y-123190000D03*
D11*
X106680000Y-123190000D03*
D12*
X106680000Y-133350000D03*
D11*
X85090000Y-140970000D03*
D12*
X95250000Y-140970000D03*
D11*
X95250000Y-144780000D03*
D12*
X85090000Y-144780000D03*
D11*
X102870000Y-138430000D03*
D12*
X102870000Y-128270000D03*
D11*
X99060000Y-128270000D03*
D12*
X99060000Y-138430000D03*
D13*
X107950000Y-137160000D03*
D14*
X110490000Y-137160000D03*
X107950000Y-139700000D03*
X110490000Y-139700000D03*
X107950000Y-142240000D03*
X110490000Y-142240000D03*
X107950000Y-144780000D03*
X110490000Y-144780000D03*
X107950000Y-147320000D03*
X110490000Y-147320000D03*
D13*
X80010000Y-142240000D03*
D14*
X77470000Y-142240000D03*
X80010000Y-139700000D03*
X77470000Y-139700000D03*
X80010000Y-137160000D03*
X77470000Y-137160000D03*
X80010000Y-134620000D03*
X77470000Y-134620000D03*
X80010000Y-132080000D03*
X77470000Y-132080000D03*
X80010000Y-129540000D03*
X77470000Y-129540000D03*
X80010000Y-127000000D03*
X77470000Y-127000000D03*
X80010000Y-124460000D03*
X77470000Y-124460000D03*
D15*
X105410000Y-106680000D03*
X108585000Y-106680000D03*
X80010000Y-106680000D03*
X83185000Y-106680000D03*
X80010000Y-157480000D03*
X83185000Y-157480000D03*
X105410000Y-157480000D03*
X108585000Y-157480000D03*
D16*
X98415400Y-115803200D03*
X100029500Y-134859700D03*
X97774500Y-112554600D03*
X108274200Y-112728800D03*
X88940200Y-154068600D03*
X85573300Y-161162200D03*
X94195400Y-129437900D03*
X104530100Y-128692000D03*
X95789200Y-137991200D03*
X87427700Y-119133200D03*
X109865600Y-112738900D03*
X77349000Y-144457700D03*
X88675800Y-140621300D03*
X101881900Y-146406200D03*
X102234900Y-156336000D03*
X90522700Y-121584500D03*
X99525700Y-148665300D03*
X88352300Y-153468400D03*
X101847400Y-140834300D03*
X87323300Y-139815700D03*
X94359600Y-133940000D03*
X96520000Y-135252800D03*
X89947900Y-134293500D03*
X86302900Y-134096100D03*
X82260900Y-135611000D03*
X89922200Y-136302300D03*
X83816100Y-134401800D03*
X88725300Y-135138600D03*
X89574500Y-133714200D03*
X83820000Y-131461800D03*
X88539600Y-132127700D03*
X92192900Y-133191000D03*
X100599400Y-137007000D03*
X91456200Y-141130400D03*
X91935000Y-139010000D03*
X90890100Y-138670300D03*
X92269100Y-138589100D03*
X90891900Y-137538700D03*
X94011800Y-138597200D03*
X94574100Y-137542600D03*
X78917500Y-121647200D03*
X76202000Y-108086000D03*
X101645600Y-108085100D03*
X89705700Y-131628300D03*
X95413600Y-136385300D03*
X105391000Y-128654600D03*
D17*
X95208400Y-119010200D02*
X98415400Y-115803200D01*
X95208400Y-119380000D02*
X95208400Y-119010200D01*
X93980000Y-119380000D02*
X95208400Y-119380000D01*
X107908400Y-133485900D02*
X107908400Y-133350000D01*
X110490000Y-136067500D02*
X107908400Y-133485900D01*
X110490000Y-137160000D02*
X110490000Y-136067500D01*
X106680000Y-133350000D02*
X107908400Y-133350000D01*
X110323300Y-108418300D02*
X108585000Y-106680000D01*
X110323300Y-112916200D02*
X110323300Y-108418300D01*
X107436300Y-115803200D02*
X110323300Y-112916200D01*
X98415400Y-115803200D02*
X107436300Y-115803200D01*
X77356800Y-135712500D02*
X77470000Y-135712500D01*
X76377400Y-136691900D02*
X77356800Y-135712500D01*
X76377400Y-137651500D02*
X76377400Y-136691900D01*
X77333400Y-138607500D02*
X76377400Y-137651500D01*
X77470000Y-138607500D02*
X77333400Y-138607500D01*
X77470000Y-139700000D02*
X77470000Y-138607500D01*
X77470000Y-134620000D02*
X77470000Y-135712500D01*
X77356800Y-140792500D02*
X77470000Y-140792500D01*
X76370200Y-141779100D02*
X77356800Y-140792500D01*
X76370200Y-142685400D02*
X76370200Y-141779100D01*
X78464800Y-144780000D02*
X76370200Y-142685400D01*
X85090000Y-144780000D02*
X78464800Y-144780000D01*
X77470000Y-139700000D02*
X77470000Y-140792500D01*
X107508000Y-158557000D02*
X108585000Y-157480000D01*
X84262000Y-158557000D02*
X107508000Y-158557000D01*
X83185000Y-157480000D02*
X84262000Y-158557000D01*
X99060000Y-138430000D02*
X99060000Y-137201600D01*
X100029500Y-136232100D02*
X100029500Y-134859700D01*
X99060000Y-137201600D02*
X100029500Y-136232100D01*
X103941900Y-134859700D02*
X105451600Y-133350000D01*
X100029500Y-134859700D02*
X103941900Y-134859700D01*
X106680000Y-133350000D02*
X105451600Y-133350000D01*
X107950000Y-147320000D02*
X106857500Y-147320000D01*
X108100000Y-112554600D02*
X97774500Y-112554600D01*
X108274200Y-112728800D02*
X108100000Y-112554600D01*
X100108900Y-154068600D02*
X88940200Y-154068600D01*
X106857500Y-147320000D02*
X100108900Y-154068600D01*
X85406000Y-161162200D02*
X85573300Y-161162200D01*
X82112400Y-157868600D02*
X85406000Y-161162200D01*
X82112400Y-157085200D02*
X82112400Y-157868600D01*
X85129000Y-154068600D02*
X82112400Y-157085200D01*
X88940200Y-154068600D02*
X85129000Y-154068600D01*
X104530100Y-128972200D02*
X104530100Y-128692000D01*
X103959200Y-129543100D02*
X104530100Y-128972200D01*
X94300600Y-129543100D02*
X103959200Y-129543100D01*
X94195400Y-129437900D02*
X94300600Y-129543100D01*
X110490000Y-147320000D02*
X110490000Y-146227500D01*
X105232600Y-140792600D02*
X109143700Y-140792600D01*
X102870000Y-138430000D02*
X105232600Y-140792600D01*
X110376800Y-146227500D02*
X110490000Y-146227500D01*
X109143700Y-144994400D02*
X110376800Y-146227500D01*
X109143700Y-140792600D02*
X109143700Y-144994400D01*
X77470000Y-142240000D02*
X78562500Y-142240000D01*
X109143700Y-139470700D02*
X109143700Y-140792600D01*
X110184400Y-138430000D02*
X109143700Y-139470700D01*
X110796200Y-138430000D02*
X110184400Y-138430000D01*
X111583500Y-137642700D02*
X110796200Y-138430000D01*
X111583500Y-134443500D02*
X111583500Y-137642700D01*
X110490000Y-133350000D02*
X111583500Y-134443500D01*
X97796200Y-139998200D02*
X95789200Y-137991200D01*
X101301800Y-139998200D02*
X97796200Y-139998200D01*
X102870000Y-138430000D02*
X101301800Y-139998200D01*
X79219800Y-140970000D02*
X85090000Y-140970000D01*
X78562500Y-141627300D02*
X79219800Y-140970000D01*
X78562500Y-142240000D02*
X78562500Y-141627300D01*
X94385600Y-139394800D02*
X95789200Y-137991200D01*
X92688600Y-139394800D02*
X94385600Y-139394800D01*
X92612200Y-139471200D02*
X92688600Y-139394800D01*
X90720400Y-139471200D02*
X92612200Y-139471200D01*
X90644100Y-139394900D02*
X90720400Y-139471200D01*
X86665100Y-139394900D02*
X90644100Y-139394900D01*
X85090000Y-140970000D02*
X86665100Y-139394900D01*
X100519700Y-123190000D02*
X93980000Y-123190000D01*
X110490000Y-133160300D02*
X100519700Y-123190000D01*
X110490000Y-133350000D02*
X110490000Y-133160300D01*
X98914700Y-107646200D02*
X87427700Y-119133200D01*
X104772900Y-107646200D02*
X98914700Y-107646200D01*
X109865600Y-112738900D02*
X104772900Y-107646200D01*
X76058700Y-143167400D02*
X77349000Y-144457700D01*
X76058700Y-124256700D02*
X76058700Y-143167400D01*
X77469900Y-122845500D02*
X76058700Y-124256700D01*
X79496200Y-122845500D02*
X77469900Y-122845500D01*
X81733200Y-120608500D02*
X79496200Y-122845500D01*
X85952400Y-120608500D02*
X81733200Y-120608500D01*
X87427700Y-119133200D02*
X85952400Y-120608500D01*
X91574300Y-140621300D02*
X88675800Y-140621300D01*
X94173900Y-143220900D02*
X91574300Y-140621300D01*
X98696600Y-143220900D02*
X94173900Y-143220900D01*
X101881900Y-146406200D02*
X98696600Y-143220900D01*
X105410000Y-157480000D02*
X105410000Y-156552900D01*
X100472000Y-121584500D02*
X90522700Y-121584500D01*
X111888700Y-133001200D02*
X100472000Y-121584500D01*
X111888700Y-150074200D02*
X111888700Y-133001200D01*
X105410000Y-156552900D02*
X111888700Y-150074200D01*
X102451800Y-156552900D02*
X102234900Y-156336000D01*
X105410000Y-156552900D02*
X102451800Y-156552900D01*
X94722600Y-153468400D02*
X99525700Y-148665300D01*
X88352300Y-153468400D02*
X94722600Y-153468400D01*
X97916500Y-140834300D02*
X101847400Y-140834300D01*
X96782200Y-139700000D02*
X97916500Y-140834300D01*
X92967700Y-139700000D02*
X96782200Y-139700000D01*
X92852000Y-139815700D02*
X92967700Y-139700000D01*
X87323300Y-139815700D02*
X92852000Y-139815700D01*
X95207200Y-133940000D02*
X94359600Y-133940000D01*
X96520000Y-135252800D02*
X95207200Y-133940000D01*
X86500300Y-134293500D02*
X86302900Y-134096100D01*
X89947900Y-134293500D02*
X86500300Y-134293500D01*
X77470000Y-137160000D02*
X77470000Y-136067500D01*
X82260900Y-135293800D02*
X82260900Y-135611000D01*
X80457000Y-133489900D02*
X82260900Y-135293800D01*
X79564500Y-133489900D02*
X80457000Y-133489900D01*
X78562500Y-134491900D02*
X79564500Y-133489900D01*
X78562500Y-135111700D02*
X78562500Y-134491900D01*
X77606700Y-136067500D02*
X78562500Y-135111700D01*
X77470000Y-136067500D02*
X77606700Y-136067500D01*
X82952200Y-136302300D02*
X89922200Y-136302300D01*
X82260900Y-135611000D02*
X82952200Y-136302300D01*
X77470000Y-129540000D02*
X78562500Y-129540000D01*
X83816100Y-134308900D02*
X83816100Y-134401800D01*
X80139700Y-130632500D02*
X83816100Y-134308900D01*
X79518300Y-130632500D02*
X80139700Y-130632500D01*
X78562500Y-129676700D02*
X79518300Y-130632500D01*
X78562500Y-129540000D02*
X78562500Y-129676700D01*
X84552900Y-135138600D02*
X88725300Y-135138600D01*
X83816100Y-134401800D02*
X84552900Y-135138600D01*
X86034900Y-133676700D02*
X83820000Y-131461800D01*
X89537000Y-133676700D02*
X86034900Y-133676700D01*
X89574500Y-133714200D02*
X89537000Y-133676700D01*
X78562500Y-127113200D02*
X78562500Y-127000000D01*
X79827300Y-128378000D02*
X78562500Y-127113200D01*
X84789900Y-128378000D02*
X79827300Y-128378000D01*
X88539600Y-132127700D02*
X84789900Y-128378000D01*
X77470000Y-127000000D02*
X78562500Y-127000000D01*
X107950000Y-139700000D02*
X106857500Y-139700000D01*
X83820000Y-126356800D02*
X83820000Y-123190000D01*
X90654200Y-133191000D02*
X83820000Y-126356800D01*
X92192900Y-133191000D02*
X90654200Y-133191000D01*
X104354100Y-137196600D02*
X106857500Y-139700000D01*
X102347600Y-137196600D02*
X104354100Y-137196600D01*
X100909400Y-138634800D02*
X102347600Y-137196600D01*
X100909400Y-138909000D02*
X100909400Y-138634800D01*
X100127800Y-139690600D02*
X100909400Y-138909000D01*
X97945900Y-139690600D02*
X100127800Y-139690600D01*
X97674400Y-139419100D02*
X97945900Y-139690600D01*
X97674400Y-139239200D02*
X97674400Y-139419100D01*
X92192900Y-133757700D02*
X97674400Y-139239200D01*
X92192900Y-133191000D02*
X92192900Y-133757700D01*
X106556400Y-136858900D02*
X106857500Y-137160000D01*
X100747500Y-136858900D02*
X106556400Y-136858900D01*
X100599400Y-137007000D02*
X100747500Y-136858900D01*
X107950000Y-137160000D02*
X106857500Y-137160000D01*
X97748400Y-142240000D02*
X96478400Y-140970000D01*
X107950000Y-142240000D02*
X97748400Y-142240000D01*
X95250000Y-140970000D02*
X96478400Y-140970000D01*
X102870000Y-128270000D02*
X101641600Y-128270000D01*
X101641600Y-128270000D02*
X99060000Y-128270000D01*
X90346600Y-142240000D02*
X91456200Y-141130400D01*
X80010000Y-142240000D02*
X90346600Y-142240000D01*
X80010000Y-139700000D02*
X81102500Y-139700000D01*
X81712700Y-139089800D02*
X81102500Y-139700000D01*
X91855200Y-139089800D02*
X81712700Y-139089800D01*
X91935000Y-139010000D02*
X91855200Y-139089800D01*
X80010000Y-137160000D02*
X81102500Y-137160000D01*
X82612800Y-138670300D02*
X81102500Y-137160000D01*
X90890100Y-138670300D02*
X82612800Y-138670300D01*
X80010000Y-134620000D02*
X81102500Y-134620000D01*
X81102500Y-135045900D02*
X81102500Y-134620000D01*
X84307500Y-138250900D02*
X81102500Y-135045900D01*
X91930900Y-138250900D02*
X84307500Y-138250900D01*
X92269100Y-138589100D02*
X91930900Y-138250900D01*
X80010000Y-132080000D02*
X81102500Y-132080000D01*
X90891900Y-136634300D02*
X90891900Y-137538700D01*
X90087400Y-135829800D02*
X90891900Y-136634300D01*
X84650900Y-135829800D02*
X90087400Y-135829800D01*
X81102500Y-132281400D02*
X84650900Y-135829800D01*
X81102500Y-132080000D02*
X81102500Y-132281400D01*
X80010000Y-129540000D02*
X81102500Y-129540000D01*
X86275400Y-134712900D02*
X81102500Y-129540000D01*
X90127500Y-134712900D02*
X86275400Y-134712900D01*
X94011800Y-138597200D02*
X90127500Y-134712900D01*
X80010000Y-127000000D02*
X81102500Y-127000000D01*
X84031500Y-127000000D02*
X94574100Y-137542600D01*
X81102500Y-127000000D02*
X84031500Y-127000000D01*
X76202000Y-118931700D02*
X78917500Y-121647200D01*
X76202000Y-108086000D02*
X76202000Y-118931700D01*
X77470000Y-124460000D02*
X78506000Y-124460000D01*
X78506000Y-124403500D02*
X78506000Y-124460000D01*
X80961400Y-121948100D02*
X78506000Y-124403500D01*
X87861800Y-121948100D02*
X80961400Y-121948100D01*
X87861800Y-121868900D02*
X87861800Y-121948100D01*
X101645600Y-108085100D02*
X87861800Y-121868900D01*
X87861800Y-129784400D02*
X87861800Y-121948100D01*
X89705700Y-131628300D02*
X87861800Y-129784400D01*
X97660300Y-136385300D02*
X105391000Y-128654600D01*
X95413600Y-136385300D02*
X97660300Y-136385300D01*
M02*
