<?xml version="1.0" standalone="no"?>
 <!DOCTYPE svg PUBLIC "-//W3C//DTD SVG 1.1//EN" 
 "http://www.w3.org/Graphics/SVG/1.1/DTD/svg11.dtd"> 
<svg xmlns="http://www.w3.org/2000/svg" version="1.1" 
    width="29.7002cm" height="21.0007cm" viewBox="0 0 116930 82680 ">
<title>SVG Picture created as ADC-F_Mask.svg date 2015/11/30 19:37:01 </title>
  <desc>Picture generated by PCBNEW </desc>
<g style="fill:#000000; fill-opacity:1;stroke:#000000; stroke-opacity:1;
stroke-linecap:round; stroke-linejoin:round; "
 transform="translate(0 0) scale(1 1)">
</g>
<g style="fill:#000000; fill-opacity:0.0; 
stroke:#000000; stroke-width:39.3701; stroke-opacity:1; 
stroke-linecap:round; stroke-linejoin:round;">
</g>
<g style="fill:#000000; fill-opacity:0.0; 
stroke:#000000; stroke-width:59.0551; stroke-opacity:1; 
stroke-linecap:round; stroke-linejoin:round;">
<rect x="69685.9" y="65357.2" width="42519.7" height="12598.4" rx="0" />
</g>
<g style="fill:#000000; fill-opacity:0.0; 
stroke:#000000; stroke-width:39.3701; stroke-opacity:1; 
stroke-linecap:round; stroke-linejoin:round;">
</g>
<g style="fill:#000000; fill-opacity:0.0; 
stroke:#000000; stroke-width:59.0551; stroke-opacity:1; 
stroke-linecap:round; stroke-linejoin:round;">
<rect x="3937.01" y="3937.01" width="109056" height="74806" rx="0" />
</g>
<g style="fill:#000000; fill-opacity:0.0; 
stroke:#000000; stroke-width:39.3701; stroke-opacity:1; 
stroke-linecap:round; stroke-linejoin:round;">
</g>
<g style="fill:#000000; fill-opacity:0.0; 
stroke:#000000; stroke-width:59.0551; stroke-opacity:1; 
stroke-linecap:round; stroke-linejoin:round;">
<rect x="4724.41" y="4724.41" width="107481" height="73231.2" rx="0" />
</g>
<g style="fill:#000000; fill-opacity:0.0; 
stroke:#000000; stroke-width:39.3701; stroke-opacity:1; 
stroke-linecap:round; stroke-linejoin:round;">
</g>
<g style="fill:#000000; fill-opacity:0.0; 
stroke:#000000; stroke-width:59.0551; stroke-opacity:1; 
stroke-linecap:round; stroke-linejoin:round;">
<path d="M23622 4724
L23622 3937
" />
</g>
<g style="fill:#000000; fill-opacity:0.0; 
stroke:#000000; stroke-width:39.3701; stroke-opacity:1; 
stroke-linecap:round; stroke-linejoin:round;">
</g>
<g style="fill:#000000; fill-opacity:0.0; 
stroke:#000000; stroke-width:59.0551; stroke-opacity:1; 
stroke-linecap:round; stroke-linejoin:round;">
<path d="M43307 4724
L43307 3937
" />
</g>
<g style="fill:#000000; fill-opacity:0.0; 
stroke:#000000; stroke-width:39.3701; stroke-opacity:1; 
stroke-linecap:round; stroke-linejoin:round;">
</g>
<g style="fill:#000000; fill-opacity:0.0; 
stroke:#000000; stroke-width:59.0551; stroke-opacity:1; 
stroke-linecap:round; stroke-linejoin:round;">
<path d="M62992 4724
L62992 3937
" />
</g>
<g style="fill:#000000; fill-opacity:0.0; 
stroke:#000000; stroke-width:39.3701; stroke-opacity:1; 
stroke-linecap:round; stroke-linejoin:round;">
</g>
<g style="fill:#000000; fill-opacity:0.0; 
stroke:#000000; stroke-width:59.0551; stroke-opacity:1; 
stroke-linecap:round; stroke-linejoin:round;">
<path d="M82677 4724
L82677 3937
" />
</g>
<g style="fill:#000000; fill-opacity:0.0; 
stroke:#000000; stroke-width:39.3701; stroke-opacity:1; 
stroke-linecap:round; stroke-linejoin:round;">
</g>
<g style="fill:#000000; fill-opacity:0.0; 
stroke:#000000; stroke-width:59.0551; stroke-opacity:1; 
stroke-linecap:round; stroke-linejoin:round;">
<path d="M102362 4724
L102362 3937
" />
</g>
<g style="fill:#000000; fill-opacity:0.0; 
stroke:#000000; stroke-width:39.3701; stroke-opacity:1; 
stroke-linecap:round; stroke-linejoin:round;">
</g>
<g style="fill:#000000; fill-opacity:0.0; 
stroke:#000000; stroke-width:59.0551; stroke-opacity:1; 
stroke-linecap:round; stroke-linejoin:round;">
<path d="M14169 4562
L13877 4562
" />
<path d="M14023 4562
L14023 4050
L13974 4123
L13925 4172
L13877 4196
" />
</g>
<g style="fill:#000000; fill-opacity:0.0; 
stroke:#000000; stroke-width:39.3701; stroke-opacity:1; 
stroke-linecap:round; stroke-linejoin:round;">
</g>
<g style="fill:#000000; fill-opacity:0.0; 
stroke:#000000; stroke-width:59.0551; stroke-opacity:1; 
stroke-linecap:round; stroke-linejoin:round;">
<path d="M33562 4099
L33586 4074
L33635 4050
L33757 4050
L33805 4074
L33830 4099
L33854 4147
L33854 4196
L33830 4269
L33537 4562
L33854 4562
" />
</g>
<g style="fill:#000000; fill-opacity:0.0; 
stroke:#000000; stroke-width:39.3701; stroke-opacity:1; 
stroke-linecap:round; stroke-linejoin:round;">
</g>
<g style="fill:#000000; fill-opacity:0.0; 
stroke:#000000; stroke-width:59.0551; stroke-opacity:1; 
stroke-linecap:round; stroke-linejoin:round;">
<path d="M53222 4050
L53539 4050
L53368 4245
L53442 4245
L53490 4269
L53515 4294
L53539 4342
L53539 4464
L53515 4513
L53490 4537
L53442 4562
L53295 4562
L53247 4537
L53222 4513
" />
</g>
<g style="fill:#000000; fill-opacity:0.0; 
stroke:#000000; stroke-width:39.3701; stroke-opacity:1; 
stroke-linecap:round; stroke-linejoin:round;">
</g>
<g style="fill:#000000; fill-opacity:0.0; 
stroke:#000000; stroke-width:59.0551; stroke-opacity:1; 
stroke-linecap:round; stroke-linejoin:round;">
<path d="M73175 4221
L73175 4562
" />
<path d="M73053 4026
L72932 4391
L73248 4391
" />
</g>
<g style="fill:#000000; fill-opacity:0.0; 
stroke:#000000; stroke-width:39.3701; stroke-opacity:1; 
stroke-linecap:round; stroke-linejoin:round;">
</g>
<g style="fill:#000000; fill-opacity:0.0; 
stroke:#000000; stroke-width:59.0551; stroke-opacity:1; 
stroke-linecap:round; stroke-linejoin:round;">
<path d="M92885 4050
L92641 4050
L92617 4294
L92641 4269
L92690 4245
L92812 4245
L92860 4269
L92885 4294
L92909 4342
L92909 4464
L92885 4513
L92860 4537
L92812 4562
L92690 4562
L92641 4537
L92617 4513
" />
</g>
<g style="fill:#000000; fill-opacity:0.0; 
stroke:#000000; stroke-width:39.3701; stroke-opacity:1; 
stroke-linecap:round; stroke-linejoin:round;">
</g>
<g style="fill:#000000; fill-opacity:0.0; 
stroke:#000000; stroke-width:59.0551; stroke-opacity:1; 
stroke-linecap:round; stroke-linejoin:round;">
<path d="M112545 4050
L112448 4050
L112399 4074
L112375 4099
L112326 4172
L112302 4269
L112302 4464
L112326 4513
L112350 4537
L112399 4562
L112497 4562
L112545 4537
L112570 4513
L112594 4464
L112594 4342
L112570 4294
L112545 4269
L112497 4245
L112399 4245
L112350 4269
L112326 4294
L112302 4342
" />
</g>
<g style="fill:#000000; fill-opacity:0.0; 
stroke:#000000; stroke-width:39.3701; stroke-opacity:1; 
stroke-linecap:round; stroke-linejoin:round;">
</g>
<g style="fill:#000000; fill-opacity:0.0; 
stroke:#000000; stroke-width:59.0551; stroke-opacity:1; 
stroke-linecap:round; stroke-linejoin:round;">
<path d="M23622 77955
L23622 78742
" />
</g>
<g style="fill:#000000; fill-opacity:0.0; 
stroke:#000000; stroke-width:39.3701; stroke-opacity:1; 
stroke-linecap:round; stroke-linejoin:round;">
</g>
<g style="fill:#000000; fill-opacity:0.0; 
stroke:#000000; stroke-width:59.0551; stroke-opacity:1; 
stroke-linecap:round; stroke-linejoin:round;">
<path d="M43307 77955
L43307 78742
" />
</g>
<g style="fill:#000000; fill-opacity:0.0; 
stroke:#000000; stroke-width:39.3701; stroke-opacity:1; 
stroke-linecap:round; stroke-linejoin:round;">
</g>
<g style="fill:#000000; fill-opacity:0.0; 
stroke:#000000; stroke-width:59.0551; stroke-opacity:1; 
stroke-linecap:round; stroke-linejoin:round;">
<path d="M62992 77955
L62992 78742
" />
</g>
<g style="fill:#000000; fill-opacity:0.0; 
stroke:#000000; stroke-width:39.3701; stroke-opacity:1; 
stroke-linecap:round; stroke-linejoin:round;">
</g>
<g style="fill:#000000; fill-opacity:0.0; 
stroke:#000000; stroke-width:59.0551; stroke-opacity:1; 
stroke-linecap:round; stroke-linejoin:round;">
<path d="M82677 77955
L82677 78742
" />
</g>
<g style="fill:#000000; fill-opacity:0.0; 
stroke:#000000; stroke-width:39.3701; stroke-opacity:1; 
stroke-linecap:round; stroke-linejoin:round;">
</g>
<g style="fill:#000000; fill-opacity:0.0; 
stroke:#000000; stroke-width:59.0551; stroke-opacity:1; 
stroke-linecap:round; stroke-linejoin:round;">
<path d="M102362 77955
L102362 78742
" />
</g>
<g style="fill:#000000; fill-opacity:0.0; 
stroke:#000000; stroke-width:39.3701; stroke-opacity:1; 
stroke-linecap:round; stroke-linejoin:round;">
</g>
<g style="fill:#000000; fill-opacity:0.0; 
stroke:#000000; stroke-width:59.0551; stroke-opacity:1; 
stroke-linecap:round; stroke-linejoin:round;">
<path d="M14169 78580
L13877 78580
" />
<path d="M14023 78580
L14023 78069
L13974 78142
L13925 78190
L13877 78215
" />
</g>
<g style="fill:#000000; fill-opacity:0.0; 
stroke:#000000; stroke-width:39.3701; stroke-opacity:1; 
stroke-linecap:round; stroke-linejoin:round;">
</g>
<g style="fill:#000000; fill-opacity:0.0; 
stroke:#000000; stroke-width:59.0551; stroke-opacity:1; 
stroke-linecap:round; stroke-linejoin:round;">
<path d="M33562 78117
L33586 78093
L33635 78069
L33757 78069
L33805 78093
L33830 78117
L33854 78166
L33854 78215
L33830 78288
L33537 78580
L33854 78580
" />
</g>
<g style="fill:#000000; fill-opacity:0.0; 
stroke:#000000; stroke-width:39.3701; stroke-opacity:1; 
stroke-linecap:round; stroke-linejoin:round;">
</g>
<g style="fill:#000000; fill-opacity:0.0; 
stroke:#000000; stroke-width:59.0551; stroke-opacity:1; 
stroke-linecap:round; stroke-linejoin:round;">
<path d="M53222 78069
L53539 78069
L53368 78263
L53442 78263
L53490 78288
L53515 78312
L53539 78361
L53539 78483
L53515 78532
L53490 78556
L53442 78580
L53295 78580
L53247 78556
L53222 78532
" />
</g>
<g style="fill:#000000; fill-opacity:0.0; 
stroke:#000000; stroke-width:39.3701; stroke-opacity:1; 
stroke-linecap:round; stroke-linejoin:round;">
</g>
<g style="fill:#000000; fill-opacity:0.0; 
stroke:#000000; stroke-width:59.0551; stroke-opacity:1; 
stroke-linecap:round; stroke-linejoin:round;">
<path d="M73175 78239
L73175 78580
" />
<path d="M73053 78044
L72932 78410
L73248 78410
" />
</g>
<g style="fill:#000000; fill-opacity:0.0; 
stroke:#000000; stroke-width:39.3701; stroke-opacity:1; 
stroke-linecap:round; stroke-linejoin:round;">
</g>
<g style="fill:#000000; fill-opacity:0.0; 
stroke:#000000; stroke-width:59.0551; stroke-opacity:1; 
stroke-linecap:round; stroke-linejoin:round;">
<path d="M92885 78069
L92641 78069
L92617 78312
L92641 78288
L92690 78263
L92812 78263
L92860 78288
L92885 78312
L92909 78361
L92909 78483
L92885 78532
L92860 78556
L92812 78580
L92690 78580
L92641 78556
L92617 78532
" />
</g>
<g style="fill:#000000; fill-opacity:0.0; 
stroke:#000000; stroke-width:39.3701; stroke-opacity:1; 
stroke-linecap:round; stroke-linejoin:round;">
</g>
<g style="fill:#000000; fill-opacity:0.0; 
stroke:#000000; stroke-width:59.0551; stroke-opacity:1; 
stroke-linecap:round; stroke-linejoin:round;">
<path d="M112545 78069
L112448 78069
L112399 78093
L112375 78117
L112326 78190
L112302 78288
L112302 78483
L112326 78532
L112350 78556
L112399 78580
L112497 78580
L112545 78556
L112570 78532
L112594 78483
L112594 78361
L112570 78312
L112545 78288
L112497 78263
L112399 78263
L112350 78288
L112326 78312
L112302 78361
" />
</g>
<g style="fill:#000000; fill-opacity:0.0; 
stroke:#000000; stroke-width:39.3701; stroke-opacity:1; 
stroke-linecap:round; stroke-linejoin:round;">
</g>
<g style="fill:#000000; fill-opacity:0.0; 
stroke:#000000; stroke-width:59.0551; stroke-opacity:1; 
stroke-linecap:round; stroke-linejoin:round;">
<path d="M3937 23622
L4724 23622
" />
</g>
<g style="fill:#000000; fill-opacity:0.0; 
stroke:#000000; stroke-width:39.3701; stroke-opacity:1; 
stroke-linecap:round; stroke-linejoin:round;">
</g>
<g style="fill:#000000; fill-opacity:0.0; 
stroke:#000000; stroke-width:59.0551; stroke-opacity:1; 
stroke-linecap:round; stroke-linejoin:round;">
<path d="M3937 43307
L4724 43307
" />
</g>
<g style="fill:#000000; fill-opacity:0.0; 
stroke:#000000; stroke-width:39.3701; stroke-opacity:1; 
stroke-linecap:round; stroke-linejoin:round;">
</g>
<g style="fill:#000000; fill-opacity:0.0; 
stroke:#000000; stroke-width:59.0551; stroke-opacity:1; 
stroke-linecap:round; stroke-linejoin:round;">
<path d="M3937 62992
L4724 62992
" />
</g>
<g style="fill:#000000; fill-opacity:0.0; 
stroke:#000000; stroke-width:39.3701; stroke-opacity:1; 
stroke-linecap:round; stroke-linejoin:round;">
</g>
<g style="fill:#000000; fill-opacity:0.0; 
stroke:#000000; stroke-width:59.0551; stroke-opacity:1; 
stroke-linecap:round; stroke-linejoin:round;">
<path d="M4208 13864
L4452 13864
" />
<path d="M4160 14011
L4330 13499
L4501 14011
" />
</g>
<g style="fill:#000000; fill-opacity:0.0; 
stroke:#000000; stroke-width:39.3701; stroke-opacity:1; 
stroke-linecap:round; stroke-linejoin:round;">
</g>
<g style="fill:#000000; fill-opacity:0.0; 
stroke:#000000; stroke-width:59.0551; stroke-opacity:1; 
stroke-linecap:round; stroke-linejoin:round;">
<path d="M4367 33428
L4440 33452
L4464 33476
L4489 33525
L4489 33598
L4464 33647
L4440 33671
L4391 33696
L4196 33696
L4196 33184
L4367 33184
L4416 33208
L4440 33233
L4464 33281
L4464 33330
L4440 33379
L4416 33403
L4367 33428
L4196 33428
" />
</g>
<g style="fill:#000000; fill-opacity:0.0; 
stroke:#000000; stroke-width:39.3701; stroke-opacity:1; 
stroke-linecap:round; stroke-linejoin:round;">
</g>
<g style="fill:#000000; fill-opacity:0.0; 
stroke:#000000; stroke-width:59.0551; stroke-opacity:1; 
stroke-linecap:round; stroke-linejoin:round;">
<path d="M4489 53332
L4464 53356
L4391 53381
L4342 53381
L4269 53356
L4221 53308
L4196 53259
L4172 53161
L4172 53088
L4196 52991
L4221 52942
L4269 52893
L4342 52869
L4391 52869
L4464 52893
L4489 52918
" />
</g>
<g style="fill:#000000; fill-opacity:0.0; 
stroke:#000000; stroke-width:39.3701; stroke-opacity:1; 
stroke-linecap:round; stroke-linejoin:round;">
</g>
<g style="fill:#000000; fill-opacity:0.0; 
stroke:#000000; stroke-width:59.0551; stroke-opacity:1; 
stroke-linecap:round; stroke-linejoin:round;">
<path d="M4196 73066
L4196 72554
L4318 72554
L4391 72578
L4440 72627
L4464 72676
L4489 72773
L4489 72846
L4464 72944
L4440 72993
L4391 73041
L4318 73066
L4196 73066
" />
</g>
<g style="fill:#000000; fill-opacity:0.0; 
stroke:#000000; stroke-width:39.3701; stroke-opacity:1; 
stroke-linecap:round; stroke-linejoin:round;">
</g>
<g style="fill:#000000; fill-opacity:0.0; 
stroke:#000000; stroke-width:59.0551; stroke-opacity:1; 
stroke-linecap:round; stroke-linejoin:round;">
<path d="M112992 23622
L112205 23622
" />
</g>
<g style="fill:#000000; fill-opacity:0.0; 
stroke:#000000; stroke-width:39.3701; stroke-opacity:1; 
stroke-linecap:round; stroke-linejoin:round;">
</g>
<g style="fill:#000000; fill-opacity:0.0; 
stroke:#000000; stroke-width:59.0551; stroke-opacity:1; 
stroke-linecap:round; stroke-linejoin:round;">
<path d="M112992 43307
L112205 43307
" />
</g>
<g style="fill:#000000; fill-opacity:0.0; 
stroke:#000000; stroke-width:39.3701; stroke-opacity:1; 
stroke-linecap:round; stroke-linejoin:round;">
</g>
<g style="fill:#000000; fill-opacity:0.0; 
stroke:#000000; stroke-width:59.0551; stroke-opacity:1; 
stroke-linecap:round; stroke-linejoin:round;">
<path d="M112992 62992
L112205 62992
" />
</g>
<g style="fill:#000000; fill-opacity:0.0; 
stroke:#000000; stroke-width:39.3701; stroke-opacity:1; 
stroke-linecap:round; stroke-linejoin:round;">
</g>
<g style="fill:#000000; fill-opacity:0.0; 
stroke:#000000; stroke-width:59.0551; stroke-opacity:1; 
stroke-linecap:round; stroke-linejoin:round;">
<path d="M112477 13864
L112721 13864
" />
<path d="M112428 14011
L112599 13499
L112769 14011
" />
</g>
<g style="fill:#000000; fill-opacity:0.0; 
stroke:#000000; stroke-width:39.3701; stroke-opacity:1; 
stroke-linecap:round; stroke-linejoin:round;">
</g>
<g style="fill:#000000; fill-opacity:0.0; 
stroke:#000000; stroke-width:59.0551; stroke-opacity:1; 
stroke-linecap:round; stroke-linejoin:round;">
<path d="M112635 33428
L112708 33452
L112733 33476
L112757 33525
L112757 33598
L112733 33647
L112708 33671
L112660 33696
L112465 33696
L112465 33184
L112635 33184
L112684 33208
L112708 33233
L112733 33281
L112733 33330
L112708 33379
L112684 33403
L112635 33428
L112465 33428
" />
</g>
<g style="fill:#000000; fill-opacity:0.0; 
stroke:#000000; stroke-width:39.3701; stroke-opacity:1; 
stroke-linecap:round; stroke-linejoin:round;">
</g>
<g style="fill:#000000; fill-opacity:0.0; 
stroke:#000000; stroke-width:59.0551; stroke-opacity:1; 
stroke-linecap:round; stroke-linejoin:round;">
<path d="M112757 53332
L112733 53356
L112660 53381
L112611 53381
L112538 53356
L112489 53308
L112465 53259
L112440 53161
L112440 53088
L112465 52991
L112489 52942
L112538 52893
L112611 52869
L112660 52869
L112733 52893
L112757 52918
" />
</g>
<g style="fill:#000000; fill-opacity:0.0; 
stroke:#000000; stroke-width:39.3701; stroke-opacity:1; 
stroke-linecap:round; stroke-linejoin:round;">
</g>
<g style="fill:#000000; fill-opacity:0.0; 
stroke:#000000; stroke-width:59.0551; stroke-opacity:1; 
stroke-linecap:round; stroke-linejoin:round;">
<path d="M112465 73066
L112465 72554
L112587 72554
L112660 72578
L112708 72627
L112733 72676
L112757 72773
L112757 72846
L112733 72944
L112708 72993
L112660 73041
L112587 73066
L112465 73066
" />
</g>
<g style="fill:#000000; fill-opacity:0.0; 
stroke:#000000; stroke-width:39.3701; stroke-opacity:1; 
stroke-linecap:round; stroke-linejoin:round;">
</g>
<g style="fill:#000000; fill-opacity:0.0; 
stroke:#000000; stroke-width:59.0551; stroke-opacity:1; 
stroke-linecap:round; stroke-linejoin:round;">
<path d="M78881 76293
L78881 75703
L79022 75703
L79106 75731
L79162 75787
L79190 75843
L79219 75956
L79219 76040
L79190 76153
L79162 76209
L79106 76265
L79022 76293
L78881 76293
" />
<path d="M79725 76293
L79725 75984
L79697 75928
L79640 75899
L79528 75899
L79472 75928
" />
<path d="M79725 76265
L79669 76293
L79528 76293
L79472 76265
L79444 76209
L79444 76153
L79472 76096
L79528 76068
L79669 76068
L79725 76040
" />
<path d="M79922 75899
L80147 75899
" />
<path d="M80006 75703
L80006 76209
L80034 76265
L80090 76293
L80147 76293
" />
<path d="M80568 76265
L80512 76293
L80400 76293
L80343 76265
L80315 76209
L80315 75984
L80343 75928
L80400 75899
L80512 75899
L80568 75928
L80597 75984
L80597 76040
L80315 76096
" />
<path d="M80850 76237
L80878 76265
L80850 76293
L80822 76265
L80850 76237
L80850 76293
" />
<path d="M80850 75928
L80878 75956
L80850 75984
L80822 75956
L80850 75928
L80850 75984
" />
</g>
<g style="fill:#000000; fill-opacity:0.0; 
stroke:#000000; stroke-width:39.3701; stroke-opacity:1; 
stroke-linecap:round; stroke-linejoin:round;">
</g>
<g style="fill:#000000; fill-opacity:0.0; 
stroke:#000000; stroke-width:59.0551; stroke-opacity:1; 
stroke-linecap:round; stroke-linejoin:round;">
<path d="M69685 76577
L112205 76577
" />
</g>
<g style="fill:#000000; fill-opacity:0.0; 
stroke:#000000; stroke-width:39.3701; stroke-opacity:1; 
stroke-linecap:round; stroke-linejoin:round;">
</g>
<g style="fill:#000000; fill-opacity:0.0; 
stroke:#000000; stroke-width:59.0551; stroke-opacity:1; 
stroke-linecap:round; stroke-linejoin:round;">
<path d="M70220 77395
L70220 76805
" />
<path d="M70557 77395
L70304 77058
" />
<path d="M70557 76805
L70220 77142
" />
<path d="M70810 77395
L70810 77002
" />
<path d="M70810 76805
L70782 76833
L70810 76861
L70838 76833
L70810 76805
L70810 76861
" />
<path d="M71429 77339
L71401 77367
L71316 77395
L71260 77395
L71176 77367
L71120 77311
L71091 77255
L71063 77142
L71063 77058
L71091 76946
L71120 76889
L71176 76833
L71260 76805
L71316 76805
L71401 76833
L71429 76861
" />
<path d="M71935 77395
L71935 77086
L71907 77030
L71851 77002
L71738 77002
L71682 77030
" />
<path d="M71935 77367
L71879 77395
L71738 77395
L71682 77367
L71654 77311
L71654 77255
L71682 77199
L71738 77171
L71879 77171
L71935 77142
" />
<path d="M72469 77395
L72469 76805
" />
<path d="M72469 77367
L72413 77395
L72301 77395
L72244 77367
L72216 77339
L72188 77283
L72188 77114
L72216 77058
L72244 77030
L72301 77002
L72413 77002
L72469 77030
" />
<path d="M73201 77086
L73397 77086
" />
<path d="M73482 77395
L73201 77395
L73201 76805
L73482 76805
" />
<path d="M73735 77339
L73763 77367
L73735 77395
L73707 77367
L73735 77339
L73735 77395
" />
<path d="M74016 77395
L74016 76805
L74157 76805
L74241 76833
L74297 76889
L74325 76946
L74354 77058
L74354 77142
L74325 77255
L74297 77311
L74241 77367
L74157 77395
L74016 77395
" />
<path d="M74607 77339
L74635 77367
L74607 77395
L74579 77367
L74607 77339
L74607 77395
" />
<path d="M74860 77227
L75141 77227
" />
<path d="M74804 77395
L75000 76805
L75197 77395
" />
<path d="M75394 77339
L75422 77367
L75394 77395
L75366 77367
L75394 77339
L75394 77395
" />
<path d="M76575 77395
L76575 76805
" />
<path d="M76631 77171
L76800 77395
" />
<path d="M76800 77002
L76575 77227
" />
<path d="M77053 77395
L77053 77002
" />
<path d="M77053 76805
L77025 76833
L77053 76861
L77081 76833
L77053 76805
L77053 76861
" />
<path d="M77588 77367
L77531 77395
L77419 77395
L77363 77367
L77334 77339
L77306 77283
L77306 77114
L77334 77058
L77363 77030
L77419 77002
L77531 77002
L77588 77030
" />
<path d="M78094 77395
L78094 77086
L78066 77030
L78009 77002
L77897 77002
L77841 77030
" />
<path d="M78094 77367
L78037 77395
L77897 77395
L77841 77367
L77813 77311
L77813 77255
L77841 77199
L77897 77171
L78037 77171
L78094 77142
" />
<path d="M78628 77395
L78628 76805
" />
<path d="M78628 77367
L78572 77395
L78459 77395
L78403 77367
L78375 77339
L78347 77283
L78347 77114
L78375 77058
L78403 77030
L78459 77002
L78572 77002
L78628 77030
" />
<path d="M79528 77620
L79500 77592
L79444 77508
L79415 77452
L79387 77367
L79359 77227
L79359 77114
L79387 76974
L79415 76889
L79444 76833
L79500 76749
L79528 76721
" />
<path d="M80006 77395
L80006 77086
L79978 77030
L79922 77002
L79809 77002
L79753 77030
" />
<path d="M80006 77367
L79950 77395
L79809 77395
L79753 77367
L79725 77311
L79725 77255
L79753 77199
L79809 77171
L79950 77171
L80006 77142
" />
<path d="M80203 77002
L80428 77002
" />
<path d="M80287 77395
L80287 76889
L80315 76833
L80372 76805
L80428 76805
" />
<path d="M80540 77002
L80765 77002
" />
<path d="M80625 76805
L80625 77311
L80653 77367
L80709 77395
L80765 77395
" />
<path d="M81187 77367
L81131 77395
L81018 77395
L80962 77367
L80934 77311
L80934 77086
L80962 77030
L81018 77002
L81131 77002
L81187 77030
L81215 77086
L81215 77142
L80934 77199
" />
<path d="M81468 77395
L81468 77002
" />
<path d="M81468 77114
L81496 77058
L81525 77030
L81581 77002
L81637 77002
" />
<path d="M82256 76861
L82284 76833
L82340 76805
L82481 76805
L82537 76833
L82565 76861
L82593 76917
L82593 76974
L82565 77058
L82228 77395
L82593 77395
" />
<path d="M82959 76805
L83015 76805
L83071 76833
L83099 76861
L83127 76917
L83156 77030
L83156 77171
L83127 77283
L83099 77339
L83071 77367
L83015 77395
L82959 77395
L82903 77367
L82874 77339
L82846 77283
L82818 77171
L82818 77030
L82846 76917
L82874 76861
L82903 76833
L82959 76805
" />
<path d="M83718 77395
L83381 77395
" />
<path d="M83549 77395
L83549 76805
L83493 76889
L83437 76946
L83381 76974
" />
<path d="M84252 76805
L83971 76805
L83943 77086
L83971 77058
L84027 77030
L84168 77030
L84224 77058
L84252 77086
L84280 77142
L84280 77283
L84252 77339
L84224 77367
L84168 77395
L84027 77395
L83971 77367
L83943 77339
" />
<path d="M84534 77171
L84983 77171
" />
<path d="M85265 77395
L85265 77002
" />
<path d="M85265 77058
L85293 77030
L85349 77002
L85433 77002
L85490 77030
L85518 77086
L85518 77395
" />
<path d="M85518 77086
L85546 77030
L85602 77002
L85687 77002
L85743 77030
L85771 77086
L85771 77395
" />
<path d="M86305 77395
L86305 77086
L86277 77030
L86221 77002
L86108 77002
L86052 77030
" />
<path d="M86305 77367
L86249 77395
L86108 77395
L86052 77367
L86024 77311
L86024 77255
L86052 77199
L86108 77171
L86249 77171
L86305 77142
" />
<path d="M86586 77395
L86586 77002
" />
<path d="M86586 77114
L86615 77058
L86643 77030
L86699 77002
L86755 77002
" />
<path d="M86952 77171
L87402 77171
" />
<path d="M87796 76805
L87852 76805
L87908 76833
L87936 76861
L87964 76917
L87992 77030
L87992 77171
L87964 77283
L87936 77339
L87908 77367
L87852 77395
L87796 77395
L87739 77367
L87711 77339
L87683 77283
L87655 77171
L87655 77030
L87683 76917
L87711 76861
L87739 76833
L87796 76805
" />
<path d="M88499 77002
L88499 77395
" />
<path d="M88358 76777
L88217 77199
L88583 77199
" />
<path d="M89455 77086
L89539 77114
L89567 77142
L89595 77199
L89595 77283
L89567 77339
L89539 77367
L89483 77395
L89258 77395
L89258 76805
L89455 76805
L89511 76833
L89539 76861
L89567 76917
L89567 76974
L89539 77030
L89511 77058
L89455 77086
L89258 77086
" />
<path d="M89792 76805
L90186 76805
L89792 77395
L90186 77395
" />
<path d="M90748 77395
L90552 77114
" />
<path d="M90411 77395
L90411 76805
L90636 76805
L90692 76833
L90720 76861
L90748 76917
L90748 77002
L90720 77058
L90692 77086
L90636 77114
L90411 77114
" />
<path d="M91705 77002
L91705 77395
" />
<path d="M91451 77002
L91451 77311
L91480 77367
L91536 77395
L91620 77395
L91676 77367
L91705 77339
" />
<path d="M91986 77002
L91986 77395
" />
<path d="M91986 77058
L92014 77030
L92070 77002
L92154 77002
L92211 77030
L92239 77086
L92239 77395
" />
<path d="M92520 77395
L92520 76805
" />
<path d="M92576 77171
L92745 77395
" />
<path d="M92745 77002
L92520 77227
" />
<path d="M92998 77002
L92998 77395
" />
<path d="M92998 77058
L93026 77030
L93082 77002
L93167 77002
L93223 77030
L93251 77086
L93251 77395
" />
<path d="M93617 77395
L93561 77367
L93532 77339
L93504 77283
L93504 77114
L93532 77058
L93561 77030
L93617 77002
L93701 77002
L93757 77030
L93786 77058
L93814 77114
L93814 77283
L93786 77339
L93757 77367
L93701 77395
L93617 77395
" />
<path d="M94010 77002
L94123 77395
L94235 77114
L94348 77395
L94460 77002
" />
<path d="M94685 77002
L94685 77395
" />
<path d="M94685 77058
L94714 77030
L94770 77002
L94854 77002
L94910 77030
L94938 77086
L94938 77395
" />
<path d="M95163 77620
L95192 77592
L95248 77508
L95276 77452
L95304 77367
L95332 77227
L95332 77114
L95304 76974
L95276 76889
L95248 76833
L95192 76749
L95163 76721
" />
<path d="M95613 77171
L96063 77171
" />
<path d="M96345 77002
L96345 77592
" />
<path d="M96345 77030
L96401 77002
L96513 77002
L96570 77030
L96598 77058
L96626 77114
L96626 77283
L96598 77339
L96570 77367
L96513 77395
L96401 77395
L96345 77367
" />
<path d="M96879 77395
L96879 77002
" />
<path d="M96879 77114
L96907 77058
L96935 77030
L96991 77002
L97048 77002
" />
<path d="M97329 77395
L97273 77367
L97244 77339
L97216 77283
L97216 77114
L97244 77058
L97273 77030
L97329 77002
L97413 77002
L97469 77030
L97498 77058
L97526 77114
L97526 77283
L97498 77339
L97469 77367
L97413 77395
L97329 77395
" />
<path d="M98032 77395
L98032 76805
" />
<path d="M98032 77367
L97976 77395
L97863 77395
L97807 77367
L97779 77339
L97751 77283
L97751 77114
L97779 77058
L97807 77030
L97863 77002
L97976 77002
L98032 77030
" />
<path d="M98566 77002
L98566 77395
" />
<path d="M98313 77002
L98313 77311
L98341 77367
L98397 77395
L98482 77395
L98538 77367
L98566 77339
" />
<path d="M99100 77367
L99044 77395
L98932 77395
L98876 77367
L98847 77339
L98819 77283
L98819 77114
L98847 77058
L98876 77030
L98932 77002
L99044 77002
L99100 77030
" />
<path d="M99269 77002
L99494 77002
" />
<path d="M99354 76805
L99354 77311
L99382 77367
L99438 77395
L99494 77395
" />
</g>
<g style="fill:#000000; fill-opacity:0.0; 
stroke:#000000; stroke-width:39.3701; stroke-opacity:1; 
stroke-linecap:round; stroke-linejoin:round;">
</g>
<g style="fill:#000000; fill-opacity:0.0; 
stroke:#000000; stroke-width:59.0551; stroke-opacity:1; 
stroke-linecap:round; stroke-linejoin:round;">
<path d="M69685 75396
L112205 75396
" />
</g>
<g style="fill:#000000; fill-opacity:0.0; 
stroke:#000000; stroke-width:39.3701; stroke-opacity:1; 
stroke-linecap:round; stroke-linejoin:round;">
</g>
<g style="fill:#000000; fill-opacity:0.0; 
stroke:#000000; stroke-width:118.11; stroke-opacity:1; 
stroke-linecap:round; stroke-linejoin:round;">
<path d="M104022 76293
L103825 76012
" />
<path d="M103684 76293
L103684 75703
L103909 75703
L103965 75731
L103994 75759
L104022 75815
L104022 75899
L103994 75956
L103965 75984
L103909 76012
L103684 76012
" />
<path d="M104500 76265
L104444 76293
L104331 76293
L104275 76265
L104247 76209
L104247 75984
L104275 75928
L104331 75899
L104444 75899
L104500 75928
L104528 75984
L104528 76040
L104247 76096
" />
<path d="M104725 75899
L104865 76293
L105006 75899
" />
<path d="M105231 76237
L105259 76265
L105231 76293
L105203 76265
L105231 76237
L105231 76293
" />
<path d="M105231 75928
L105259 75956
L105231 75984
L105203 75956
L105231 75928
L105231 75984
" />
</g>
<g style="fill:#000000; fill-opacity:0.0; 
stroke:#000000; stroke-width:39.3701; stroke-opacity:1; 
stroke-linecap:round; stroke-linejoin:round;">
</g>
<g style="fill:#000000; fill-opacity:0.0; 
stroke:#000000; stroke-width:59.0551; stroke-opacity:1; 
stroke-linecap:round; stroke-linejoin:round;">
<path d="M70192 76265
L70276 76293
L70417 76293
L70473 76265
L70501 76237
L70529 76181
L70529 76124
L70501 76068
L70473 76040
L70417 76012
L70304 75984
L70248 75956
L70220 75928
L70192 75871
L70192 75815
L70220 75759
L70248 75731
L70304 75703
L70445 75703
L70529 75731
" />
<path d="M70782 76293
L70782 75899
" />
<path d="M70782 75703
L70754 75731
L70782 75759
L70810 75731
L70782 75703
L70782 75759
" />
<path d="M71007 75899
L71316 75899
L71007 76293
L71316 76293
" />
<path d="M71766 76265
L71710 76293
L71598 76293
L71541 76265
L71513 76209
L71513 75984
L71541 75928
L71598 75899
L71710 75899
L71766 75928
L71795 75984
L71795 76040
L71513 76096
" />
<path d="M72048 76237
L72076 76265
L72048 76293
L72019 76265
L72048 76237
L72048 76293
" />
<path d="M72048 75928
L72076 75956
L72048 75984
L72019 75956
L72048 75928
L72048 75984
" />
<path d="M72751 76124
L73032 76124
" />
<path d="M72694 76293
L72891 75703
L73088 76293
" />
<path d="M73538 75899
L73538 76293
" />
<path d="M73397 75674
L73257 76096
L73622 76096
" />
</g>
<g style="fill:#000000; fill-opacity:0.0; 
stroke:#000000; stroke-width:39.3701; stroke-opacity:1; 
stroke-linecap:round; stroke-linejoin:round;">
</g>
<g style="fill:#000000; fill-opacity:0.0; 
stroke:#000000; stroke-width:59.0551; stroke-opacity:1; 
stroke-linecap:round; stroke-linejoin:round;">
<path d="M103684 77395
L103684 76805
" />
<path d="M104219 77395
L104219 76805
" />
<path d="M104219 77367
L104162 77395
L104050 77395
L103994 77367
L103965 77339
L103937 77283
L103937 77114
L103965 77058
L103994 77030
L104050 77002
L104162 77002
L104219 77030
" />
<path d="M104500 77339
L104528 77367
L104500 77395
L104472 77367
L104500 77339
L104500 77395
" />
<path d="M104500 77030
L104528 77058
L104500 77086
L104472 77058
L104500 77030
L104500 77086
" />
<path d="M105540 77395
L105203 77395
" />
<path d="M105372 77395
L105372 76805
L105315 76889
L105259 76946
L105203 76974
" />
<path d="M106215 76777
L105709 77536
" />
<path d="M106721 77395
L106384 77395
" />
<path d="M106553 77395
L106553 76805
L106496 76889
L106440 76946
L106384 76974
" />
</g>
<g style="fill:#000000; fill-opacity:0.0; 
stroke:#000000; stroke-width:39.3701; stroke-opacity:1; 
stroke-linecap:round; stroke-linejoin:round;">
</g>
<g style="fill:#000000; fill-opacity:0.0; 
stroke:#000000; stroke-width:59.0551; stroke-opacity:1; 
stroke-linecap:round; stroke-linejoin:round;">
<path d="M69685 73821
L112205 73821
" />
</g>
<g style="fill:#000000; fill-opacity:0.0; 
stroke:#000000; stroke-width:39.3701; stroke-opacity:1; 
stroke-linecap:round; stroke-linejoin:round;">
</g>
<g style="fill:#000000; fill-opacity:0.0; 
stroke:#000000; stroke-width:157.48; stroke-opacity:1; 
stroke-linecap:round; stroke-linejoin:round;">
<path d="M70257 74099
L70707 74099
" />
<path d="M70384 74886
L70482 74099
" />
<path d="M70871 74886
L70937 74361
" />
<path d="M70970 74099
L70927 74136
L70960 74174
L71002 74136
L70970 74099
L70960 74174
" />
<path d="M71199 74361
L71499 74361
" />
<path d="M71345 74099
L71260 74774
L71288 74849
L71359 74886
L71434 74886
" />
<path d="M71809 74886
L71738 74849
L71710 74774
L71795 74099
" />
<path d="M72413 74849
L72334 74886
L72184 74886
L72113 74849
L72085 74774
L72123 74474
L72169 74399
L72249 74361
L72399 74361
L72469 74399
L72498 74474
L72488 74549
L72104 74624
" />
<path d="M72793 74811
L72826 74849
L72783 74886
L72751 74849
L72793 74811
L72783 74886
" />
<path d="M72844 74399
L72877 74436
L72835 74474
L72802 74436
L72844 74399
L72835 74474
" />
</g>
<g style="fill:#000000; fill-opacity:0.0; 
stroke:#000000; stroke-width:39.3701; stroke-opacity:1; 
stroke-linecap:round; stroke-linejoin:round;">
</g>
<g style="fill:#000000; fill-opacity:0.0; 
stroke:#000000; stroke-width:59.0551; stroke-opacity:1; 
stroke-linecap:round; stroke-linejoin:round;">
<path d="M70417 73070
L70220 73070
" />
<path d="M70220 73380
L70220 72789
L70501 72789
" />
<path d="M70726 73380
L70726 72986
" />
<path d="M70726 72789
L70698 72817
L70726 72845
L70754 72817
L70726 72789
L70726 72845
" />
<path d="M71091 73380
L71035 73352
L71007 73295
L71007 72789
" />
<path d="M71541 73352
L71485 73380
L71373 73380
L71316 73352
L71288 73295
L71288 73070
L71316 73014
L71373 72986
L71485 72986
L71541 73014
L71570 73070
L71570 73127
L71288 73183
" />
<path d="M71823 73323
L71851 73352
L71823 73380
L71795 73352
L71823 73323
L71823 73380
" />
<path d="M71823 73014
L71851 73042
L71823 73070
L71795 73042
L71823 73014
L71823 73070
" />
<path d="M72526 73211
L72807 73211
" />
<path d="M72469 73380
L72666 72789
L72863 73380
" />
<path d="M73060 73380
L73060 72789
L73201 72789
L73285 72817
L73341 72874
L73369 72930
L73397 73042
L73397 73127
L73369 73239
L73341 73295
L73285 73352
L73201 73380
L73060 73380
" />
<path d="M73988 73323
L73960 73352
L73876 73380
L73819 73380
L73735 73352
L73679 73295
L73651 73239
L73622 73127
L73622 73042
L73651 72930
L73679 72874
L73735 72817
L73819 72789
L73876 72789
L73960 72817
L73988 72845
" />
<path d="M74241 73323
L74269 73352
L74241 73380
L74213 73352
L74241 73323
L74241 73380
" />
<path d="M74522 73380
L74522 72789
" />
<path d="M74579 73155
L74747 73380
" />
<path d="M74747 72986
L74522 73211
" />
<path d="M75000 73380
L75000 72986
" />
<path d="M75000 72789
L74972 72817
L75000 72845
L75028 72817
L75000 72789
L75000 72845
" />
<path d="M75535 73352
L75478 73380
L75366 73380
L75310 73352
L75282 73323
L75253 73267
L75253 73099
L75282 73042
L75310 73014
L75366 72986
L75478 72986
L75535 73014
" />
<path d="M76041 73380
L76041 73070
L76013 73014
L75956 72986
L75844 72986
L75788 73014
" />
<path d="M76041 73352
L75985 73380
L75844 73380
L75788 73352
L75760 73295
L75760 73239
L75788 73183
L75844 73155
L75985 73155
L76041 73127
" />
<path d="M76575 73380
L76575 72789
" />
<path d="M76575 73352
L76519 73380
L76406 73380
L76350 73352
L76322 73323
L76294 73267
L76294 73099
L76322 73042
L76350 73014
L76406 72986
L76519 72986
L76575 73014
" />
<path d="M76716 73436
L77166 73436
" />
<path d="M77306 72986
L77306 73577
" />
<path d="M77306 73014
L77363 72986
L77475 72986
L77531 73014
L77559 73042
L77588 73099
L77588 73267
L77559 73323
L77531 73352
L77475 73380
L77363 73380
L77306 73352
" />
<path d="M78094 73352
L78037 73380
L77925 73380
L77869 73352
L77841 73323
L77813 73267
L77813 73099
L77841 73042
L77869 73014
L77925 72986
L78037 72986
L78094 73014
" />
<path d="M78347 73380
L78347 72789
" />
<path d="M78347 73014
L78403 72986
L78516 72986
L78572 73014
L78600 73042
L78628 73099
L78628 73267
L78600 73323
L78572 73352
L78516 73380
L78403 73380
L78347 73352
" />
</g>
<g style="fill:#000000; fill-opacity:0.0; 
stroke:#000000; stroke-width:39.3701; stroke-opacity:1; 
stroke-linecap:round; stroke-linejoin:round;">
</g>
<g style="fill:#000000; fill-opacity:0.0; 
stroke:#000000; stroke-width:59.0551; stroke-opacity:1; 
stroke-linecap:round; stroke-linejoin:round;">
<path d="M69685 71459
L112205 71459
" />
</g>
<g style="fill:#000000; fill-opacity:0.0; 
stroke:#000000; stroke-width:39.3701; stroke-opacity:1; 
stroke-linecap:round; stroke-linejoin:round;">
</g>
<g style="fill:#000000; fill-opacity:0.0; 
stroke:#000000; stroke-width:59.0551; stroke-opacity:1; 
stroke-linecap:round; stroke-linejoin:round;">
<path d="M70192 72289
L70276 72317
L70417 72317
L70473 72289
L70501 72260
L70529 72204
L70529 72148
L70501 72092
L70473 72064
L70417 72036
L70304 72007
L70248 71979
L70220 71951
L70192 71895
L70192 71839
L70220 71782
L70248 71754
L70304 71726
L70445 71726
L70529 71754
" />
<path d="M70782 72317
L70782 71726
" />
<path d="M71035 72317
L71035 72007
L71007 71951
L70951 71923
L70867 71923
L70810 71951
L70782 71979
" />
<path d="M71541 72289
L71485 72317
L71373 72317
L71316 72289
L71288 72232
L71288 72007
L71316 71951
L71373 71923
L71485 71923
L71541 71951
L71570 72007
L71570 72064
L71288 72120
" />
<path d="M72048 72289
L71991 72317
L71879 72317
L71823 72289
L71795 72232
L71795 72007
L71823 71951
L71879 71923
L71991 71923
L72048 71951
L72076 72007
L72076 72064
L71795 72120
" />
<path d="M72244 71923
L72469 71923
" />
<path d="M72329 71726
L72329 72232
L72357 72289
L72413 72317
L72469 72317
" />
<path d="M72666 72260
L72694 72289
L72666 72317
L72638 72289
L72666 72260
L72666 72317
" />
<path d="M72666 71951
L72694 71979
L72666 72007
L72638 71979
L72666 71951
L72666 72007
" />
</g>
<g style="fill:#000000; fill-opacity:0.0; 
stroke:#000000; stroke-width:39.3701; stroke-opacity:1; 
stroke-linecap:round; stroke-linejoin:round;">
</g>
<g style="fill:#000000; fill-opacity:0.0; 
stroke:#000000; stroke-width:59.0551; stroke-opacity:1; 
stroke-linecap:round; stroke-linejoin:round;">
<path d="M77559 75396
L77559 76577
" />
</g>
<g style="fill:#000000; fill-opacity:0.0; 
stroke:#000000; stroke-width:39.3701; stroke-opacity:1; 
stroke-linecap:round; stroke-linejoin:round;">
</g>
<g style="fill:#000000; fill-opacity:0.0; 
stroke:#000000; stroke-width:59.0551; stroke-opacity:1; 
stroke-linecap:round; stroke-linejoin:round;">
<path d="M102756 75396
L102756 77955
" />
</g>
<g style="fill:#C2C200; fill-opacity:0.0; 
stroke:#C2C200; stroke-width:59.0551; stroke-opacity:1; 
stroke-linecap:round; stroke-linejoin:round;">
<path d="M29500 40500
L29500 63500
" />
<path d="M43500 39500
L30500 39500
" />
<path d="M44500 63500
L44500 40500
" />
<path d="M30500 64500
L43500 64500
" />
<path d="M44500 40500 A1000 1000 0.0 0 0 43500 39500 " />
<path d="M30500 39500 A1000 1000 0.0 0 0 29500 40500 " />
<path d="M29500 63500 A1000 1000 0.0 0 0 30500 64500 " />
<path d="M43500 64500 A1000 1000 0.0 0 0 44500 63500 " />
</g>
<g style="fill:#840000; fill-opacity:0.0; 
stroke:#840000; stroke-width:39.3701; stroke-opacity:1; 
stroke-linecap:round; stroke-linejoin:round;">
</g>
<g style="fill:#840000; fill-opacity:1.0; 
stroke:#840000; stroke-width:39.3701; stroke-opacity:1; 
stroke-linecap:round; stroke-linejoin:round;">
<circle cx="43500" cy="52500" r="452.555" /> 
<polyline style="fill-rule:evenodd;"
points="43952,48952
43047,48952
43047,48047
43952,48047
43952,48952
" /> 
<polyline style="fill-rule:evenodd;"
points="35169,40793
35169,41206
34578,41206
34578,40793
35169,40793
" /> 
<polyline style="fill-rule:evenodd;"
points="34421,40793
34421,41206
33830,41206
33830,40793
34421,40793
" /> 
<polyline style="fill-rule:evenodd;"
points="33830,43206
33830,42793
34421,42793
34421,43206
33830,43206
" /> 
<polyline style="fill-rule:evenodd;"
points="34578,43206
34578,42793
35169,42793
35169,43206
34578,43206
" /> 
<polyline style="fill-rule:evenodd;"
points="33830,44206
33830,43793
34421,43793
34421,44206
33830,44206
" /> 
<polyline style="fill-rule:evenodd;"
points="34578,44206
34578,43793
35169,43793
35169,44206
34578,44206
" /> 
<polyline style="fill-rule:evenodd;"
points="37169,43793
37169,44206
36578,44206
36578,43793
37169,43793
" /> 
<polyline style="fill-rule:evenodd;"
points="36421,43793
36421,44206
35830,44206
35830,43793
36421,43793
" /> 
<polyline style="fill-rule:evenodd;"
points="35830,42206
35830,41793
36421,41793
36421,42206
35830,42206
" /> 
<polyline style="fill-rule:evenodd;"
points="36578,42206
36578,41793
37169,41793
37169,42206
36578,42206
" /> 
<polyline style="fill-rule:evenodd;"
points="29830,46206
29830,45793
30421,45793
30421,46206
29830,46206
" /> 
<polyline style="fill-rule:evenodd;"
points="30578,46206
30578,45793
31169,45793
31169,46206
30578,46206
" /> 
<polyline style="fill-rule:evenodd;"
points="31169,44793
31169,45206
30578,45206
30578,44793
31169,44793
" /> 
<polyline style="fill-rule:evenodd;"
points="30421,44793
30421,45206
29830,45206
29830,44793
30421,44793
" /> 
<polyline style="fill-rule:evenodd;"
points="31830,46206
31830,45793
32421,45793
32421,46206
31830,46206
" /> 
<polyline style="fill-rule:evenodd;"
points="32578,46206
32578,45793
33169,45793
33169,46206
32578,46206
" /> 
<polyline style="fill-rule:evenodd;"
points="39830,44206
39830,43793
40421,43793
40421,44206
39830,44206
" /> 
<polyline style="fill-rule:evenodd;"
points="40578,44206
40578,43793
41169,43793
41169,44206
40578,44206
" /> 
<polyline style="fill-rule:evenodd;"
points="39830,46206
39830,45793
40421,45793
40421,46206
39830,46206
" /> 
<polyline style="fill-rule:evenodd;"
points="40578,46206
40578,45793
41169,45793
41169,46206
40578,46206
" /> 
<polyline style="fill-rule:evenodd;"
points="39169,41793
39169,42206
38578,42206
38578,41793
39169,41793
" /> 
<polyline style="fill-rule:evenodd;"
points="38421,41793
38421,42206
37830,42206
37830,41793
38421,41793
" /> 
<polyline style="fill-rule:evenodd;"
points="43169,44793
43169,45206
42578,45206
42578,44793
43169,44793
" /> 
<polyline style="fill-rule:evenodd;"
points="42421,44793
42421,45206
41830,45206
41830,44793
42421,44793
" /> 
<polyline style="fill-rule:evenodd;"
points="43169,43793
43169,44206
42578,44206
42578,43793
43169,43793
" /> 
<polyline style="fill-rule:evenodd;"
points="42421,43793
42421,44206
41830,44206
41830,43793
42421,43793
" /> 
<polyline style="fill-rule:evenodd;"
points="43169,45793
43169,46206
42578,46206
42578,45793
43169,45793
" /> 
<polyline style="fill-rule:evenodd;"
points="42421,45793
42421,46206
41830,46206
41830,45793
42421,45793
" /> 
<polyline style="fill-rule:evenodd;"
points="37830,45206
37830,44793
38421,44793
38421,45206
37830,45206
" /> 
<polyline style="fill-rule:evenodd;"
points="38578,45206
38578,44793
39169,44793
39169,45206
38578,45206
" /> 
<polyline style="fill-rule:evenodd;"
points="39830,49206
39830,48793
40421,48793
40421,49206
39830,49206
" /> 
<polyline style="fill-rule:evenodd;"
points="40578,49206
40578,48793
41169,48793
41169,49206
40578,49206
" /> 
<polyline style="fill-rule:evenodd;"
points="39169,47793
39169,48206
38578,48206
38578,47793
39169,47793
" /> 
<polyline style="fill-rule:evenodd;"
points="38421,47793
38421,48206
37830,48206
37830,47793
38421,47793
" /> 
<polyline style="fill-rule:evenodd;"
points="35830,46206
35830,45793
36421,45793
36421,46206
35830,46206
" /> 
<polyline style="fill-rule:evenodd;"
points="36578,46206
36578,45793
37169,45793
37169,46206
36578,46206
" /> 
<polyline style="fill-rule:evenodd;"
points="31169,57293
31169,57706
30578,57706
30578,57293
31169,57293
" /> 
<polyline style="fill-rule:evenodd;"
points="30421,57293
30421,57706
29830,57706
29830,57293
30421,57293
" /> 
<polyline style="fill-rule:evenodd;"
points="31169,58293
31169,58706
30578,58706
30578,58293
31169,58293
" /> 
<polyline style="fill-rule:evenodd;"
points="30421,58293
30421,58706
29830,58706
29830,58293
30421,58293
" /> 
<polyline style="fill-rule:evenodd;"
points="31169,59293
31169,59706
30578,59706
30578,59293
31169,59293
" /> 
<polyline style="fill-rule:evenodd;"
points="30421,59293
30421,59706
29830,59706
29830,59293
30421,59293
" /> 
<polyline style="fill-rule:evenodd;"
points="33169,59293
33169,59706
32578,59706
32578,59293
33169,59293
" /> 
<polyline style="fill-rule:evenodd;"
points="32421,59293
32421,59706
31830,59706
31830,59293
32421,59293
" /> 
<polyline style="fill-rule:evenodd;"
points="33793,61330
34206,61330
34206,61921
33793,61921
33793,61330
" /> 
<polyline style="fill-rule:evenodd;"
points="33793,62078
34206,62078
34206,62669
33793,62669
33793,62078
" /> 
<polyline style="fill-rule:evenodd;"
points="38830,61706
38830,61293
39421,61293
39421,61706
38830,61706
" /> 
<polyline style="fill-rule:evenodd;"
points="39578,61706
39578,61293
40169,61293
40169,61706
39578,61706
" /> 
<polyline style="fill-rule:evenodd;"
points="43293,59330
43706,59330
43706,59921
43293,59921
43293,59330
" /> 
<polyline style="fill-rule:evenodd;"
points="43293,60078
43706,60078
43706,60669
43293,60669
43293,60078
" /> 
<polyline style="fill-rule:evenodd;"
points="40293,59330
40706,59330
40706,59921
40293,59921
40293,59330
" /> 
<polyline style="fill-rule:evenodd;"
points="40293,60078
40706,60078
40706,60669
40293,60669
40293,60078
" /> 
<polyline style="fill-rule:evenodd;"
points="39293,59330
39706,59330
39706,59921
39293,59921
39293,59330
" /> 
<polyline style="fill-rule:evenodd;"
points="39293,60078
39706,60078
39706,60669
39293,60669
39293,60078
" /> 
<polyline style="fill-rule:evenodd;"
points="38293,59330
38706,59330
38706,59921
38293,59921
38293,59330
" /> 
<polyline style="fill-rule:evenodd;"
points="38293,60078
38706,60078
38706,60669
38293,60669
38293,60078
" /> 
<polyline style="fill-rule:evenodd;"
points="37293,59330
37706,59330
37706,59921
37293,59921
37293,59330
" /> 
<polyline style="fill-rule:evenodd;"
points="37293,60078
37706,60078
37706,60669
37293,60669
37293,60078
" /> 
<polyline style="fill-rule:evenodd;"
points="38206,62669
37793,62669
37793,62078
38206,62078
38206,62669
" /> 
<polyline style="fill-rule:evenodd;"
points="38206,61921
37793,61921
37793,61330
38206,61330
38206,61921
" /> 
<polyline style="fill-rule:evenodd;"
points="35293,59330
35706,59330
35706,59921
35293,59921
35293,59330
" /> 
<polyline style="fill-rule:evenodd;"
points="35293,60078
35706,60078
35706,60669
35293,60669
35293,60078
" /> 
<polyline style="fill-rule:evenodd;"
points="34169,54293
34169,54706
33578,54706
33578,54293
34169,54293
" /> 
<polyline style="fill-rule:evenodd;"
points="33421,54293
33421,54706
32830,54706
32830,54293
33421,54293
" /> 
<polyline style="fill-rule:evenodd;"
points="34706,60669
34293,60669
34293,60078
34706,60078
34706,60669
" /> 
<polyline style="fill-rule:evenodd;"
points="34706,59921
34293,59921
34293,59330
34706,59330
34706,59921
" /> 
<polyline style="fill-rule:evenodd;"
points="34169,53293
34169,53706
33578,53706
33578,53293
34169,53293
" /> 
<polyline style="fill-rule:evenodd;"
points="33421,53293
33421,53706
32830,53706
32830,53293
33421,53293
" /> 
<polyline style="fill-rule:evenodd;"
points="38293,57330
38706,57330
38706,57921
38293,57921
38293,57330
" /> 
<polyline style="fill-rule:evenodd;"
points="38293,58078
38706,58078
38706,58669
38293,58669
38293,58078
" /> 
<polyline style="fill-rule:evenodd;"
points="37793,53330
38206,53330
38206,53921
37793,53921
37793,53330
" /> 
<polyline style="fill-rule:evenodd;"
points="37793,54078
38206,54078
38206,54669
37793,54669
37793,54078
" /> 
<polyline style="fill-rule:evenodd;"
points="37793,51330
38206,51330
38206,51921
37793,51921
37793,51330
" /> 
<polyline style="fill-rule:evenodd;"
points="37793,52078
38206,52078
38206,52669
37793,52669
37793,52078
" /> 
<polyline style="fill-rule:evenodd;"
points="34169,52293
34169,52706
33578,52706
33578,52293
34169,52293
" /> 
<polyline style="fill-rule:evenodd;"
points="33421,52293
33421,52706
32830,52706
32830,52293
33421,52293
" /> 
<polyline style="fill-rule:evenodd;"
points="33830,58706
33830,58293
34421,58293
34421,58706
33830,58706
" /> 
<polyline style="fill-rule:evenodd;"
points="34578,58706
34578,58293
35169,58293
35169,58706
34578,58706
" /> 
<polyline style="fill-rule:evenodd;"
points="32793,50330
33206,50330
33206,50921
32793,50921
32793,50330
" /> 
<polyline style="fill-rule:evenodd;"
points="32793,51078
33206,51078
33206,51669
32793,51669
32793,51078
" /> 
<polyline style="fill-rule:evenodd;"
points="35206,54669
34793,54669
34793,54078
35206,54078
35206,54669
" /> 
<polyline style="fill-rule:evenodd;"
points="35206,53921
34793,53921
34793,53330
35206,53330
35206,53921
" /> 
<circle cx="33000" cy="47000" r="452.555" /> 
<polyline style="fill-rule:evenodd;"
points="36547,47452
36547,46547
37452,46547
37452,47452
36547,47452
" /> 
<circle cx="37000" cy="48500" r="452.555" /> 
<polyline style="fill-rule:evenodd;"
points="33452,48047
33452,48952
32547,48952
32547,48047
33452,48047
" /> 
<circle cx="43500" cy="52500" r="452.555" /> 
<polyline style="fill-rule:evenodd;"
points="43952,48952
43047,48952
43047,48047
43952,48047
43952,48952
" /> 
<circle cx="42000" cy="48500" r="452.555" /> 
<polyline style="fill-rule:evenodd;"
points="41547,52047
42452,52047
42452,52952
41547,52952
41547,52047
" /> 
<circle cx="33500" cy="55500" r="452.555" /> 
<polyline style="fill-rule:evenodd;"
points="37047,55952
37047,55047
37952,55047
37952,55952
37047,55952
" /> 
<circle cx="37500" cy="57000" r="452.555" /> 
<polyline style="fill-rule:evenodd;"
points="33952,56547
33952,57452
33047,57452
33047,56547
33952,56547
" /> 
<circle cx="40500" cy="54500" r="452.555" /> 
<polyline style="fill-rule:evenodd;"
points="40952,50952
40047,50952
40047,50047
40952,50047
40952,50952
" /> 
<circle cx="39000" cy="50500" r="452.555" /> 
<polyline style="fill-rule:evenodd;"
points="38547,54047
39452,54047
39452,54952
38547,54952
38547,54047
" /> 
<polyline style="fill-rule:evenodd;"
points="42100,54399
42100,53600
42899,53600
42899,54399
42100,54399
" /> 
</g>
<g style="fill:#840000; fill-opacity:1.0; 
stroke:#840000; stroke-width:837.48; stroke-opacity:1; 
stroke-linecap:round; stroke-linejoin:round;">
</g>
<g style="fill:#840000; fill-opacity:0.0; 
stroke:#840000; stroke-width:837.48; stroke-opacity:1; 
stroke-linecap:round; stroke-linejoin:round;">
<path d="M43500 54000
L43500 54000
" />
<path d="M42500 55000
L42500 55000
" />
<path d="M43500 55000
L43500 55000
" />
<path d="M42500 56000
L42500 56000
" />
<path d="M43500 56000
L43500 56000
" />
<path d="M42500 57000
L42500 57000
" />
<path d="M43500 57000
L43500 57000
" />
<path d="M42500 58000
L42500 58000
" />
<path d="M43500 58000
L43500 58000
" />
</g>
<g style="fill:#840000; fill-opacity:0.0; 
stroke:#840000; stroke-width:39.3701; stroke-opacity:1; 
stroke-linecap:round; stroke-linejoin:round;">
</g>
<g style="fill:#840000; fill-opacity:1.0; 
stroke:#840000; stroke-width:39.3701; stroke-opacity:1; 
stroke-linecap:round; stroke-linejoin:round;">
<polyline style="fill-rule:evenodd;"
points="31899,55600
31899,56399
31100,56399
31100,55600
31899,55600
" /> 
</g>
<g style="fill:#840000; fill-opacity:1.0; 
stroke:#840000; stroke-width:837.48; stroke-opacity:1; 
stroke-linecap:round; stroke-linejoin:round;">
</g>
<g style="fill:#840000; fill-opacity:0.0; 
stroke:#840000; stroke-width:837.48; stroke-opacity:1; 
stroke-linecap:round; stroke-linejoin:round;">
<path d="M30500 56000
L30500 56000
" />
<path d="M31500 55000
L31500 55000
" />
<path d="M30500 55000
L30500 55000
" />
<path d="M31500 54000
L31500 54000
" />
<path d="M30500 54000
L30500 54000
" />
<path d="M31500 53000
L31500 53000
" />
<path d="M30500 53000
L30500 53000
" />
<path d="M31500 52000
L31500 52000
" />
<path d="M30500 52000
L30500 52000
" />
<path d="M31500 51000
L31500 51000
" />
<path d="M30500 51000
L30500 51000
" />
<path d="M31500 50000
L31500 50000
" />
<path d="M30500 50000
L30500 50000
" />
<path d="M31500 49000
L31500 49000
" />
<path d="M30500 49000
L30500 49000
" />
</g>
<g style="fill:#840000; fill-opacity:0.0; 
stroke:#840000; stroke-width:39.3701; stroke-opacity:1; 
stroke-linecap:round; stroke-linejoin:round;">
</g>
<g style="fill:#840000; fill-opacity:1.0; 
stroke:#840000; stroke-width:39.3701; stroke-opacity:1; 
stroke-linecap:round; stroke-linejoin:round;">
<polyline style="fill-rule:evenodd;"
points="33771,42236
33771,41763
34362,41763
34362,42236
33771,42236
" /> 
<polyline style="fill-rule:evenodd;"
points="34637,42236
34637,41763
35228,41763
35228,42236
34637,42236
" /> 
<polyline style="fill-rule:evenodd;"
points="35771,41236
35771,40763
36362,40763
36362,41236
35771,41236
" /> 
<polyline style="fill-rule:evenodd;"
points="36637,41236
36637,40763
37228,40763
37228,41236
36637,41236
" /> 
<polyline style="fill-rule:evenodd;"
points="33771,45236
33771,44763
34362,44763
34362,45236
33771,45236
" /> 
<polyline style="fill-rule:evenodd;"
points="34637,45236
34637,44763
35228,44763
35228,45236
34637,45236
" /> 
<polyline style="fill-rule:evenodd;"
points="35771,43236
35771,42763
36362,42763
36362,43236
35771,43236
" /> 
<polyline style="fill-rule:evenodd;"
points="36637,43236
36637,42763
37228,42763
37228,43236
36637,43236
" /> 
<polyline style="fill-rule:evenodd;"
points="31771,44236
31771,43763
32362,43763
32362,44236
31771,44236
" /> 
<polyline style="fill-rule:evenodd;"
points="32637,44236
32637,43763
33228,43763
33228,44236
32637,44236
" /> 
<polyline style="fill-rule:evenodd;"
points="35771,45236
35771,44763
36362,44763
36362,45236
35771,45236
" /> 
<polyline style="fill-rule:evenodd;"
points="36637,45236
36637,44763
37228,44763
37228,45236
36637,45236
" /> 
<polyline style="fill-rule:evenodd;"
points="31228,43763
31228,44236
30637,44236
30637,43763
31228,43763
" /> 
<polyline style="fill-rule:evenodd;"
points="30362,43763
30362,44236
29771,44236
29771,43763
30362,43763
" /> 
<polyline style="fill-rule:evenodd;"
points="31771,45236
31771,44763
32362,44763
32362,45236
31771,45236
" /> 
<polyline style="fill-rule:evenodd;"
points="32637,45236
32637,44763
33228,44763
33228,45236
32637,45236
" /> 
<polyline style="fill-rule:evenodd;"
points="31228,46763
31228,47236
30637,47236
30637,46763
31228,46763
" /> 
<polyline style="fill-rule:evenodd;"
points="30362,46763
30362,47236
29771,47236
29771,46763
30362,46763
" /> 
<polyline style="fill-rule:evenodd;"
points="37771,44236
37771,43763
38362,43763
38362,44236
37771,44236
" /> 
<polyline style="fill-rule:evenodd;"
points="38637,44236
38637,43763
39228,43763
39228,44236
38637,44236
" /> 
<polyline style="fill-rule:evenodd;"
points="39228,40763
39228,41236
38637,41236
38637,40763
39228,40763
" /> 
<polyline style="fill-rule:evenodd;"
points="38362,40763
38362,41236
37771,41236
37771,40763
38362,40763
" /> 
<polyline style="fill-rule:evenodd;"
points="37771,43236
37771,42763
38362,42763
38362,43236
37771,43236
" /> 
<polyline style="fill-rule:evenodd;"
points="38637,43236
38637,42763
39228,42763
39228,43236
38637,43236
" /> 
<polyline style="fill-rule:evenodd;"
points="39771,47236
39771,46763
40362,46763
40362,47236
39771,47236
" /> 
<polyline style="fill-rule:evenodd;"
points="40637,47236
40637,46763
41228,46763
41228,47236
40637,47236
" /> 
<polyline style="fill-rule:evenodd;"
points="37771,46236
37771,45763
38362,45763
38362,46236
37771,46236
" /> 
<polyline style="fill-rule:evenodd;"
points="38637,46236
38637,45763
39228,45763
39228,46236
38637,46236
" /> 
<polyline style="fill-rule:evenodd;"
points="39771,45236
39771,44763
40362,44763
40362,45236
39771,45236
" /> 
<polyline style="fill-rule:evenodd;"
points="40637,45236
40637,44763
41228,44763
41228,45236
40637,45236
" /> 
<polyline style="fill-rule:evenodd;"
points="41771,47236
41771,46763
42362,46763
42362,47236
41771,47236
" /> 
<polyline style="fill-rule:evenodd;"
points="42637,47236
42637,46763
43228,46763
43228,47236
42637,47236
" /> 
<polyline style="fill-rule:evenodd;"
points="39771,48236
39771,47763
40362,47763
40362,48236
39771,48236
" /> 
<polyline style="fill-rule:evenodd;"
points="40637,48236
40637,47763
41228,47763
41228,48236
40637,48236
" /> 
<polyline style="fill-rule:evenodd;"
points="38771,56236
38771,55763
39362,55763
39362,56236
38771,56236
" /> 
<polyline style="fill-rule:evenodd;"
points="39637,56236
39637,55763
40228,55763
40228,56236
39637,56236
" /> 
<polyline style="fill-rule:evenodd;"
points="33228,58263
33228,58736
32637,58736
32637,58263
33228,58263
" /> 
<polyline style="fill-rule:evenodd;"
points="32362,58263
32362,58736
31771,58736
31771,58263
32362,58263
" /> 
<polyline style="fill-rule:evenodd;"
points="34763,61271
35236,61271
35236,61862
34763,61862
34763,61271
" /> 
<polyline style="fill-rule:evenodd;"
points="34763,62137
35236,62137
35236,62728
34763,62728
34763,62137
" /> 
<polyline style="fill-rule:evenodd;"
points="33771,63736
33771,63263
34362,63263
34362,63736
33771,63736
" /> 
<polyline style="fill-rule:evenodd;"
points="34637,63736
34637,63263
35228,63263
35228,63736
34637,63736
" /> 
<polyline style="fill-rule:evenodd;"
points="44236,62728
43763,62728
43763,62137
44236,62137
44236,62728
" /> 
<polyline style="fill-rule:evenodd;"
points="44236,61862
43763,61862
43763,61271
44236,61271
44236,61862
" /> 
<polyline style="fill-rule:evenodd;"
points="43763,43771
44236,43771
44236,44362
43763,44362
43763,43771
" /> 
<polyline style="fill-rule:evenodd;"
points="43763,44637
44236,44637
44236,45228
43763,45228
43763,44637
" /> 
<polyline style="fill-rule:evenodd;"
points="33771,46236
33771,45763
34362,45763
34362,46236
33771,46236
" /> 
<polyline style="fill-rule:evenodd;"
points="34637,46236
34637,45763
35228,45763
35228,46236
34637,46236
" /> 
<polyline style="fill-rule:evenodd;"
points="37771,47236
37771,46763
38362,46763
38362,47236
37771,47236
" /> 
<polyline style="fill-rule:evenodd;"
points="38637,47236
38637,46763
39228,46763
39228,47236
38637,47236
" /> 
<polyline style="fill-rule:evenodd;"
points="38771,62736
38771,62263
39362,62263
39362,62736
38771,62736
" /> 
<polyline style="fill-rule:evenodd;"
points="39637,62736
39637,62263
40228,62263
40228,62736
39637,62736
" /> 
<polyline style="fill-rule:evenodd;"
points="39771,63736
39771,63263
40362,63263
40362,63736
39771,63736
" /> 
<polyline style="fill-rule:evenodd;"
points="40637,63736
40637,63263
41228,63263
41228,63736
40637,63736
" /> 
<polyline style="fill-rule:evenodd;"
points="37771,63736
37771,63263
38362,63263
38362,63736
37771,63736
" /> 
<polyline style="fill-rule:evenodd;"
points="38637,63736
38637,63263
39228,63263
39228,63736
38637,63736
" /> 
<polyline style="fill-rule:evenodd;"
points="35771,63736
35771,63263
36362,63263
36362,63736
35771,63736
" /> 
<polyline style="fill-rule:evenodd;"
points="36637,63736
36637,63263
37228,63263
37228,63736
36637,63736
" /> 
<polyline style="fill-rule:evenodd;"
points="40263,57271
40736,57271
40736,57862
40263,57862
40263,57271
" /> 
<polyline style="fill-rule:evenodd;"
points="40263,58137
40736,58137
40736,58728
40263,58728
40263,58137
" /> 
<polyline style="fill-rule:evenodd;"
points="36736,60728
36263,60728
36263,60137
36736,60137
36736,60728
" /> 
<polyline style="fill-rule:evenodd;"
points="36736,59862
36263,59862
36263,59271
36736,59271
36736,59862
" /> 
<polyline style="fill-rule:evenodd;"
points="36763,61271
37236,61271
37236,61862
36763,61862
36763,61271
" /> 
<polyline style="fill-rule:evenodd;"
points="36763,62137
37236,62137
37236,62728
36763,62728
36763,62137
" /> 
<polyline style="fill-rule:evenodd;"
points="36236,62728
35763,62728
35763,62137
36236,62137
36236,62728
" /> 
<polyline style="fill-rule:evenodd;"
points="36236,61862
35763,61862
35763,61271
36236,61271
36236,61862
" /> 
<polyline style="fill-rule:evenodd;"
points="35771,58736
35771,58263
36362,58263
36362,58736
35771,58736
" /> 
<polyline style="fill-rule:evenodd;"
points="36637,58736
36637,58263
37228,58263
37228,58736
36637,58736
" /> 
<polyline style="fill-rule:evenodd;"
points="39263,57271
39736,57271
39736,57862
39263,57862
39263,57271
" /> 
<polyline style="fill-rule:evenodd;"
points="39263,58137
39736,58137
39736,58728
39263,58728
39263,58137
" /> 
<polyline style="fill-rule:evenodd;"
points="41236,56728
40763,56728
40763,56137
41236,56137
41236,56728
" /> 
<polyline style="fill-rule:evenodd;"
points="41236,55862
40763,55862
40763,55271
41236,55271
41236,55862
" /> 
<polyline style="fill-rule:evenodd;"
points="30236,61728
29763,61728
29763,61137
30236,61137
30236,61728
" /> 
<polyline style="fill-rule:evenodd;"
points="30236,60862
29763,60862
29763,60271
30236,60271
30236,60862
" /> 
<polyline style="fill-rule:evenodd;"
points="40236,43228
39763,43228
39763,42637
40236,42637
40236,43228
" /> 
<polyline style="fill-rule:evenodd;"
points="40236,42362
39763,42362
39763,41771
40236,41771
40236,42362
" /> 
<polyline style="fill-rule:evenodd;"
points="30236,43228
29763,43228
29763,42637
30236,42637
30236,43228
" /> 
<polyline style="fill-rule:evenodd;"
points="30236,42362
29763,42362
29763,41771
30236,41771
30236,42362
" /> 
<polyline style="fill-rule:evenodd;"
points="43763,41771
44236,41771
44236,42362
43763,42362
43763,41771
" /> 
<polyline style="fill-rule:evenodd;"
points="43763,42637
44236,42637
44236,43228
43763,43228
43763,42637
" /> 
<polyline style="fill-rule:evenodd;"
points="38236,50728
37763,50728
37763,50137
38236,50137
38236,50728
" /> 
<polyline style="fill-rule:evenodd;"
points="38236,49862
37763,49862
37763,49271
38236,49271
38236,49862
" /> 
<circle cx="41500" cy="42000" r="374.055" /> 
<circle cx="42750" cy="42000" r="374.055" /> 
<circle cx="31500" cy="42000" r="374.055" /> 
<circle cx="32750" cy="42000" r="374.055" /> 
<polyline style="fill-rule:evenodd;"
points="37005,51120
37005,51415
36316,51415
36316,51120
37005,51120
" /> 
<polyline style="fill-rule:evenodd;"
points="37005,50864
37005,51159
36316,51159
36316,50864
37005,50864
" /> 
<polyline style="fill-rule:evenodd;"
points="37005,50608
37005,50903
36316,50903
36316,50608
37005,50608
" /> 
<polyline style="fill-rule:evenodd;"
points="37005,50352
37005,50647
36316,50647
36316,50352
37005,50352
" /> 
<polyline style="fill-rule:evenodd;"
points="37005,50096
37005,50391
36316,50391
36316,50096
37005,50096
" /> 
<polyline style="fill-rule:evenodd;"
points="37005,49840
37005,50135
36316,50135
36316,49840
37005,49840
" /> 
<polyline style="fill-rule:evenodd;"
points="37005,49584
37005,49879
36316,49879
36316,49584
37005,49584
" /> 
<polyline style="fill-rule:evenodd;"
points="34683,49584
34683,49879
33994,49879
33994,49584
34683,49584
" /> 
<polyline style="fill-rule:evenodd;"
points="34683,49840
34683,50135
33994,50135
33994,49840
34683,49840
" /> 
<polyline style="fill-rule:evenodd;"
points="34683,50096
34683,50391
33994,50391
33994,50096
34683,50096
" /> 
<polyline style="fill-rule:evenodd;"
points="34683,50352
34683,50647
33994,50647
33994,50352
34683,50352
" /> 
<polyline style="fill-rule:evenodd;"
points="34683,50608
34683,50903
33994,50903
33994,50608
34683,50608
" /> 
<polyline style="fill-rule:evenodd;"
points="34683,50864
34683,51159
33994,51159
33994,50864
34683,50864
" /> 
<polyline style="fill-rule:evenodd;"
points="34683,51120
34683,51415
33994,51415
33994,51120
34683,51120
" /> 
<circle cx="31500" cy="62000" r="374.055" /> 
<circle cx="32750" cy="62000" r="374.055" /> 
<circle cx="41500" cy="62000" r="374.055" /> 
<circle cx="42750" cy="62000" r="374.055" /> 
<polyline style="fill-rule:evenodd;"
points="35515,53125
35515,52929
35948,52929
35948,53125
35515,53125
" /> 
<polyline style="fill-rule:evenodd;"
points="35515,53283
35515,53086
35948,53086
35948,53283
35515,53283
" /> 
<polyline style="fill-rule:evenodd;"
points="35515,53440
35515,53244
35948,53244
35948,53440
35515,53440
" /> 
<polyline style="fill-rule:evenodd;"
points="35515,53598
35515,53401
35948,53401
35948,53598
35515,53598
" /> 
<polyline style="fill-rule:evenodd;"
points="35515,53755
35515,53559
35948,53559
35948,53755
35515,53755
" /> 
<polyline style="fill-rule:evenodd;"
points="35515,53913
35515,53716
35948,53716
35948,53913
35515,53913
" /> 
<polyline style="fill-rule:evenodd;"
points="35515,54070
35515,53874
35948,53874
35948,54070
35515,54070
" /> 
<polyline style="fill-rule:evenodd;"
points="36125,54484
35929,54484
35929,54051
36125,54051
36125,54484
" /> 
<polyline style="fill-rule:evenodd;"
points="36283,54484
36086,54484
36086,54051
36283,54051
36283,54484
" /> 
<polyline style="fill-rule:evenodd;"
points="36440,54484
36244,54484
36244,54051
36440,54051
36440,54484
" /> 
<polyline style="fill-rule:evenodd;"
points="36598,54484
36401,54484
36401,54051
36598,54051
36598,54484
" /> 
<polyline style="fill-rule:evenodd;"
points="36755,54484
36559,54484
36559,54051
36755,54051
36755,54484
" /> 
<polyline style="fill-rule:evenodd;"
points="36913,54484
36716,54484
36716,54051
36913,54051
36913,54484
" /> 
<polyline style="fill-rule:evenodd;"
points="37070,54484
36874,54484
36874,54051
37070,54051
37070,54484
" /> 
<polyline style="fill-rule:evenodd;"
points="37051,54070
37051,53874
37484,53874
37484,54070
37051,54070
" /> 
<polyline style="fill-rule:evenodd;"
points="37051,53913
37051,53716
37484,53716
37484,53913
37051,53913
" /> 
<polyline style="fill-rule:evenodd;"
points="37051,53755
37051,53559
37484,53559
37484,53755
37051,53755
" /> 
<polyline style="fill-rule:evenodd;"
points="37051,53598
37051,53401
37484,53401
37484,53598
37051,53598
" /> 
<polyline style="fill-rule:evenodd;"
points="37051,53440
37051,53244
37484,53244
37484,53440
37051,53440
" /> 
<polyline style="fill-rule:evenodd;"
points="37051,53283
37051,53086
37484,53086
37484,53283
37051,53283
" /> 
<polyline style="fill-rule:evenodd;"
points="37051,53125
37051,52929
37484,52929
37484,53125
37051,53125
" /> 
<polyline style="fill-rule:evenodd;"
points="37070,52948
36874,52948
36874,52515
37070,52515
37070,52948
" /> 
<polyline style="fill-rule:evenodd;"
points="36913,52948
36716,52948
36716,52515
36913,52515
36913,52948
" /> 
<polyline style="fill-rule:evenodd;"
points="36755,52948
36559,52948
36559,52515
36755,52515
36755,52948
" /> 
<polyline style="fill-rule:evenodd;"
points="36598,52948
36401,52948
36401,52515
36598,52515
36598,52948
" /> 
<polyline style="fill-rule:evenodd;"
points="36440,52948
36244,52948
36244,52515
36440,52515
36440,52948
" /> 
<polyline style="fill-rule:evenodd;"
points="36283,52948
36086,52948
36086,52515
36283,52515
36283,52948
" /> 
<polyline style="fill-rule:evenodd;"
points="36125,52948
35929,52948
35929,52515
36125,52515
36125,52948
" /> 
<polyline style="fill-rule:evenodd;"
points="36440,54031
36440,53440
37031,53440
37031,54031
36440,54031
" /> 
<polyline style="fill-rule:evenodd;"
points="36440,53559
36440,52968
37031,52968
37031,53559
36440,53559
" /> 
<polyline style="fill-rule:evenodd;"
points="35968,54031
35968,53440
36559,53440
36559,54031
35968,54031
" /> 
<polyline style="fill-rule:evenodd;"
points="35968,53559
35968,52968
36559,52968
36559,53559
35968,53559
" /> 
</g> 
</svg>
