G04 #@! TF.FileFunction,Soldermask,Top*
%FSLAX46Y46*%
G04 Gerber Fmt 4.6, Leading zero omitted, Abs format (unit mm)*
G04 Created by KiCad (PCBNEW (after 2015-mar-04 BZR unknown)-product) date Mon 16 Nov 2015 02:42:57 AM EST*
%MOMM*%
G01*
G04 APERTURE LIST*
%ADD10C,0.100000*%
%ADD11R,1.600000X1.150000*%
%ADD12R,1.150000X1.600000*%
%ADD13C,2.398980*%
%ADD14R,2.398980X2.398980*%
%ADD15R,2.127200X2.127200*%
%ADD16O,2.127200X2.127200*%
%ADD17R,1.600000X1.300000*%
%ADD18R,1.300000X1.600000*%
%ADD19C,2.000200*%
%ADD20R,1.850000X0.850000*%
%ADD21R,1.200000X0.600000*%
%ADD22R,0.600000X1.200000*%
%ADD23R,1.600000X1.600000*%
G04 APERTURE END LIST*
D10*
D11*
X88580000Y-104140000D03*
X86680000Y-104140000D03*
X86680000Y-109220000D03*
X88580000Y-109220000D03*
X86680000Y-111760000D03*
X88580000Y-111760000D03*
X93660000Y-111760000D03*
X91760000Y-111760000D03*
X91760000Y-106680000D03*
X93660000Y-106680000D03*
X76520000Y-116840000D03*
X78420000Y-116840000D03*
X78420000Y-114300000D03*
X76520000Y-114300000D03*
X81600000Y-116840000D03*
X83500000Y-116840000D03*
X101920000Y-111760000D03*
X103820000Y-111760000D03*
X101920000Y-116840000D03*
X103820000Y-116840000D03*
X98740000Y-106680000D03*
X96840000Y-106680000D03*
X108900000Y-114300000D03*
X107000000Y-114300000D03*
X108900000Y-111760000D03*
X107000000Y-111760000D03*
X108900000Y-116840000D03*
X107000000Y-116840000D03*
X96840000Y-114300000D03*
X98740000Y-114300000D03*
X101920000Y-124460000D03*
X103820000Y-124460000D03*
X98740000Y-121920000D03*
X96840000Y-121920000D03*
X91760000Y-116840000D03*
X93660000Y-116840000D03*
X78420000Y-146050000D03*
X76520000Y-146050000D03*
X78420000Y-148590000D03*
X76520000Y-148590000D03*
X78420000Y-151130000D03*
X76520000Y-151130000D03*
X83500000Y-151130000D03*
X81600000Y-151130000D03*
D12*
X86360000Y-156530000D03*
X86360000Y-158430000D03*
D11*
X99380000Y-156210000D03*
X101280000Y-156210000D03*
D12*
X110490000Y-151450000D03*
X110490000Y-153350000D03*
X102870000Y-151450000D03*
X102870000Y-153350000D03*
X100330000Y-151450000D03*
X100330000Y-153350000D03*
X97790000Y-151450000D03*
X97790000Y-153350000D03*
X95250000Y-151450000D03*
X95250000Y-153350000D03*
X96520000Y-158430000D03*
X96520000Y-156530000D03*
X90170000Y-151450000D03*
X90170000Y-153350000D03*
D11*
X86040000Y-138430000D03*
X84140000Y-138430000D03*
D12*
X87630000Y-153350000D03*
X87630000Y-151450000D03*
D11*
X86040000Y-135890000D03*
X84140000Y-135890000D03*
D12*
X97790000Y-146370000D03*
X97790000Y-148270000D03*
X96520000Y-136210000D03*
X96520000Y-138110000D03*
X96520000Y-131130000D03*
X96520000Y-133030000D03*
D11*
X86040000Y-133350000D03*
X84140000Y-133350000D03*
X86680000Y-148590000D03*
X88580000Y-148590000D03*
D12*
X83820000Y-128590000D03*
X83820000Y-130490000D03*
X88900000Y-138110000D03*
X88900000Y-136210000D03*
D13*
X83820000Y-119380000D03*
D14*
X93980000Y-119380000D03*
D13*
X93980000Y-123190000D03*
D14*
X83820000Y-123190000D03*
D13*
X110490000Y-133350000D03*
D14*
X110490000Y-123190000D03*
D13*
X106680000Y-123190000D03*
D14*
X106680000Y-133350000D03*
D13*
X85090000Y-140970000D03*
D14*
X95250000Y-140970000D03*
D13*
X95250000Y-144780000D03*
D14*
X85090000Y-144780000D03*
D13*
X102870000Y-138430000D03*
D14*
X102870000Y-128270000D03*
D13*
X99060000Y-128270000D03*
D14*
X99060000Y-138430000D03*
D15*
X107950000Y-137160000D03*
D16*
X110490000Y-137160000D03*
X107950000Y-139700000D03*
X110490000Y-139700000D03*
X107950000Y-142240000D03*
X110490000Y-142240000D03*
X107950000Y-144780000D03*
X110490000Y-144780000D03*
X107950000Y-147320000D03*
X110490000Y-147320000D03*
D15*
X80010000Y-142240000D03*
D16*
X77470000Y-142240000D03*
X80010000Y-139700000D03*
X77470000Y-139700000D03*
X80010000Y-137160000D03*
X77470000Y-137160000D03*
X80010000Y-134620000D03*
X77470000Y-134620000D03*
X80010000Y-132080000D03*
X77470000Y-132080000D03*
X80010000Y-129540000D03*
X77470000Y-129540000D03*
X80010000Y-127000000D03*
X77470000Y-127000000D03*
X80010000Y-124460000D03*
X77470000Y-124460000D03*
D17*
X86530000Y-106680000D03*
X88730000Y-106680000D03*
X91610000Y-104140000D03*
X93810000Y-104140000D03*
X86530000Y-114300000D03*
X88730000Y-114300000D03*
X91610000Y-109220000D03*
X93810000Y-109220000D03*
X81450000Y-111760000D03*
X83650000Y-111760000D03*
X91610000Y-114300000D03*
X93810000Y-114300000D03*
X78570000Y-111760000D03*
X76370000Y-111760000D03*
X81450000Y-114300000D03*
X83650000Y-114300000D03*
X78570000Y-119380000D03*
X76370000Y-119380000D03*
X96690000Y-111760000D03*
X98890000Y-111760000D03*
X98890000Y-104140000D03*
X96690000Y-104140000D03*
X96690000Y-109220000D03*
X98890000Y-109220000D03*
X101770000Y-119380000D03*
X103970000Y-119380000D03*
X96690000Y-116840000D03*
X98890000Y-116840000D03*
X101770000Y-114300000D03*
X103970000Y-114300000D03*
X106850000Y-119380000D03*
X109050000Y-119380000D03*
X101770000Y-121920000D03*
X103970000Y-121920000D03*
X99230000Y-142240000D03*
X101430000Y-142240000D03*
X83650000Y-148590000D03*
X81450000Y-148590000D03*
D18*
X88900000Y-156380000D03*
X88900000Y-158580000D03*
D17*
X86530000Y-161290000D03*
X88730000Y-161290000D03*
D18*
X111760000Y-158580000D03*
X111760000Y-156380000D03*
X111760000Y-111930000D03*
X111760000Y-114130000D03*
D17*
X86530000Y-116840000D03*
X88730000Y-116840000D03*
X96690000Y-119380000D03*
X98890000Y-119380000D03*
X99230000Y-158750000D03*
X101430000Y-158750000D03*
X101770000Y-161290000D03*
X103970000Y-161290000D03*
X96690000Y-161290000D03*
X98890000Y-161290000D03*
X91610000Y-161290000D03*
X93810000Y-161290000D03*
D18*
X102870000Y-146220000D03*
X102870000Y-148420000D03*
X92710000Y-153500000D03*
X92710000Y-151300000D03*
X93980000Y-156380000D03*
X93980000Y-158580000D03*
X91440000Y-158580000D03*
X91440000Y-156380000D03*
D17*
X91610000Y-148590000D03*
X93810000Y-148590000D03*
D18*
X100330000Y-146220000D03*
X100330000Y-148420000D03*
X104140000Y-143340000D03*
X104140000Y-141140000D03*
X76200000Y-156040000D03*
X76200000Y-153840000D03*
X101600000Y-109050000D03*
X101600000Y-106850000D03*
X76200000Y-109050000D03*
X76200000Y-106850000D03*
X111760000Y-106850000D03*
X111760000Y-109050000D03*
X96520000Y-128100000D03*
X96520000Y-125900000D03*
D19*
X105410000Y-106680000D03*
X108585000Y-106680000D03*
X80010000Y-106680000D03*
X83185000Y-106680000D03*
D20*
X93120000Y-130220000D03*
X93120000Y-129570000D03*
X93120000Y-128920000D03*
X93120000Y-128270000D03*
X93120000Y-127620000D03*
X93120000Y-126970000D03*
X93120000Y-126320000D03*
X87220000Y-126320000D03*
X87220000Y-126970000D03*
X87220000Y-127620000D03*
X87220000Y-128270000D03*
X87220000Y-128920000D03*
X87220000Y-129570000D03*
X87220000Y-130220000D03*
D19*
X80010000Y-157480000D03*
X83185000Y-157480000D03*
X105410000Y-157480000D03*
X108585000Y-157480000D03*
D21*
X90760000Y-134690000D03*
X90760000Y-135090000D03*
X90760000Y-135490000D03*
X90760000Y-135890000D03*
X90760000Y-136290000D03*
X90760000Y-136690000D03*
X90760000Y-137090000D03*
D22*
X91510000Y-137840000D03*
X91910000Y-137840000D03*
X92310000Y-137840000D03*
X92710000Y-137840000D03*
X93110000Y-137840000D03*
X93510000Y-137840000D03*
X93910000Y-137840000D03*
D21*
X94660000Y-137090000D03*
X94660000Y-136690000D03*
X94660000Y-136290000D03*
X94660000Y-135890000D03*
X94660000Y-135490000D03*
X94660000Y-135090000D03*
X94660000Y-134690000D03*
D22*
X93910000Y-133940000D03*
X93510000Y-133940000D03*
X93110000Y-133940000D03*
X92710000Y-133940000D03*
X92310000Y-133940000D03*
X91910000Y-133940000D03*
X91510000Y-133940000D03*
D23*
X93310000Y-136490000D03*
X93310000Y-135290000D03*
X92110000Y-136490000D03*
X92110000Y-135290000D03*
M02*
