M48
;DRILL file {kicad (after 2015-mar-04 BZR unknown)-product} date Mon 16 Nov 2015 02:43:09 AM EST
;FORMAT={-:-/ absolute / inch / decimal}
FMAT,2
INCH,TZ
T1C0.013
T2C0.039
T3C0.040
T4C0.050
T5C0.098
T6C0.118
%
G90
G05
M72
T1
X3.0001Y-4.2554
X3.0452Y-5.6873
X3.107Y-4.7893
X3.2386Y-5.339
X3.2998Y-5.2914
X3.3Y-5.1757
X3.369Y-6.345
X3.3978Y-5.2794
X3.4379Y-5.5046
X3.442Y-4.6903
X3.4784Y-6.0421
X3.4858Y-5.2019
X3.4912Y-5.5363
X3.4931Y-5.3204
X3.5016Y-6.0657
X3.5266Y-5.2643
X3.5317Y-5.1822
X3.5402Y-5.3662
X3.5413Y-5.2871
X3.5639Y-4.7868
X3.5784Y-5.4595
X3.5784Y-5.4149
X3.6006Y-5.5563
X3.6195Y-5.4728
X3.6296Y-5.2437
X3.6326Y-5.4563
X3.7013Y-5.4566
X3.7085Y-5.096
X3.7149Y-5.2732
X3.7234Y-5.4151
X3.7564Y-5.3695
X3.7712Y-5.4327
X3.8Y-5.3249
X3.8494Y-4.4313
X3.8746Y-4.5592
X3.9183Y-5.853
X3.9382Y-5.3094
X3.9606Y-5.394
X4.0018Y-4.2553
X4.0097Y-5.5447
X4.0111Y-5.764
X4.025Y-6.155
X4.1154Y-5.0666
X4.1493Y-5.0651
X4.2628Y-4.4381
X4.3254Y-4.4385
T2
X3.15Y-4.2
X3.15Y-6.2
X3.275Y-4.2
X3.275Y-6.2
X3.3Y-4.85
X3.35Y-5.7
X3.7Y-4.7
X3.75Y-5.55
X3.9Y-5.45
X4.05Y-5.05
X4.15Y-4.2
X4.15Y-6.2
X4.2Y-5.25
X4.275Y-4.2
X4.275Y-6.2
X4.35Y-4.85
T3
X3.05Y-4.9
X3.05Y-5.
X3.05Y-5.1
X3.05Y-5.2
X3.05Y-5.3
X3.05Y-5.4
X3.05Y-5.5
X3.05Y-5.6
X3.15Y-4.9
X3.15Y-5.
X3.15Y-5.1
X3.15Y-5.2
X3.15Y-5.3
X3.15Y-5.4
X3.15Y-5.5
X3.15Y-5.6
X4.25Y-5.4
X4.25Y-5.5
X4.25Y-5.6
X4.25Y-5.7
X4.25Y-5.8
X4.35Y-5.4
X4.35Y-5.5
X4.35Y-5.6
X4.35Y-5.7
X4.35Y-5.8
T4
X3.3Y-4.7
X3.35Y-5.55
X3.7Y-4.85
X3.75Y-5.7
X3.9Y-5.05
X4.05Y-5.45
X4.2Y-4.85
X4.35Y-5.25
T5
X4.85Y-3.85
T6
X3.05Y-4.05
X3.05Y-6.35
X4.35Y-4.05
X4.35Y-6.35
T0
M30
