G04 #@! TF.FileFunction,Copper,L1,Top,Signal*
%FSLAX46Y46*%
G04 Gerber Fmt 4.6, Leading zero omitted, Abs format (unit mm)*
G04 Created by KiCad (PCBNEW (after 2015-mar-04 BZR unknown)-product) date Mon 16 Nov 2015 02:47:24 AM EST*
%MOMM*%
G01*
G04 APERTURE LIST*
%ADD10C,0.100000*%
%ADD11R,1.200000X0.750000*%
%ADD12R,0.750000X1.200000*%
%ADD13C,1.998980*%
%ADD14R,1.998980X1.998980*%
%ADD15R,1.727200X1.727200*%
%ADD16O,1.727200X1.727200*%
%ADD17R,1.200000X0.900000*%
%ADD18R,0.900000X1.200000*%
%ADD19C,1.600200*%
%ADD20R,1.450000X0.450000*%
%ADD21R,0.800000X0.200000*%
%ADD22R,0.200000X0.800000*%
%ADD23R,1.200000X1.200000*%
%ADD24C,0.381000*%
%ADD25C,0.152400*%
G04 APERTURE END LIST*
D10*
D11*
X88580000Y-104140000D03*
X86680000Y-104140000D03*
X86680000Y-109220000D03*
X88580000Y-109220000D03*
X86680000Y-111760000D03*
X88580000Y-111760000D03*
X93660000Y-111760000D03*
X91760000Y-111760000D03*
X91760000Y-106680000D03*
X93660000Y-106680000D03*
X76520000Y-116840000D03*
X78420000Y-116840000D03*
X78420000Y-114300000D03*
X76520000Y-114300000D03*
X81600000Y-116840000D03*
X83500000Y-116840000D03*
X101920000Y-111760000D03*
X103820000Y-111760000D03*
X101920000Y-116840000D03*
X103820000Y-116840000D03*
X98740000Y-106680000D03*
X96840000Y-106680000D03*
X108900000Y-114300000D03*
X107000000Y-114300000D03*
X108900000Y-111760000D03*
X107000000Y-111760000D03*
X108900000Y-116840000D03*
X107000000Y-116840000D03*
X96840000Y-114300000D03*
X98740000Y-114300000D03*
X101920000Y-124460000D03*
X103820000Y-124460000D03*
X98740000Y-121920000D03*
X96840000Y-121920000D03*
X91760000Y-116840000D03*
X93660000Y-116840000D03*
X78420000Y-146050000D03*
X76520000Y-146050000D03*
X78420000Y-148590000D03*
X76520000Y-148590000D03*
X78420000Y-151130000D03*
X76520000Y-151130000D03*
X83500000Y-151130000D03*
X81600000Y-151130000D03*
D12*
X86360000Y-156530000D03*
X86360000Y-158430000D03*
D11*
X99380000Y-156210000D03*
X101280000Y-156210000D03*
D12*
X110490000Y-151450000D03*
X110490000Y-153350000D03*
X102870000Y-151450000D03*
X102870000Y-153350000D03*
X100330000Y-151450000D03*
X100330000Y-153350000D03*
X97790000Y-151450000D03*
X97790000Y-153350000D03*
X95250000Y-151450000D03*
X95250000Y-153350000D03*
X96520000Y-158430000D03*
X96520000Y-156530000D03*
X90170000Y-151450000D03*
X90170000Y-153350000D03*
D11*
X86040000Y-138430000D03*
X84140000Y-138430000D03*
D12*
X87630000Y-153350000D03*
X87630000Y-151450000D03*
D11*
X86040000Y-135890000D03*
X84140000Y-135890000D03*
D12*
X97790000Y-146370000D03*
X97790000Y-148270000D03*
X96520000Y-136210000D03*
X96520000Y-138110000D03*
X96520000Y-131130000D03*
X96520000Y-133030000D03*
D11*
X86040000Y-133350000D03*
X84140000Y-133350000D03*
X86680000Y-148590000D03*
X88580000Y-148590000D03*
D12*
X83820000Y-128590000D03*
X83820000Y-130490000D03*
X88900000Y-138110000D03*
X88900000Y-136210000D03*
D13*
X83820000Y-119380000D03*
D14*
X93980000Y-119380000D03*
D13*
X93980000Y-123190000D03*
D14*
X83820000Y-123190000D03*
D13*
X110490000Y-133350000D03*
D14*
X110490000Y-123190000D03*
D13*
X106680000Y-123190000D03*
D14*
X106680000Y-133350000D03*
D13*
X85090000Y-140970000D03*
D14*
X95250000Y-140970000D03*
D13*
X95250000Y-144780000D03*
D14*
X85090000Y-144780000D03*
D13*
X102870000Y-138430000D03*
D14*
X102870000Y-128270000D03*
D13*
X99060000Y-128270000D03*
D14*
X99060000Y-138430000D03*
D15*
X107950000Y-137160000D03*
D16*
X110490000Y-137160000D03*
X107950000Y-139700000D03*
X110490000Y-139700000D03*
X107950000Y-142240000D03*
X110490000Y-142240000D03*
X107950000Y-144780000D03*
X110490000Y-144780000D03*
X107950000Y-147320000D03*
X110490000Y-147320000D03*
D15*
X80010000Y-142240000D03*
D16*
X77470000Y-142240000D03*
X80010000Y-139700000D03*
X77470000Y-139700000D03*
X80010000Y-137160000D03*
X77470000Y-137160000D03*
X80010000Y-134620000D03*
X77470000Y-134620000D03*
X80010000Y-132080000D03*
X77470000Y-132080000D03*
X80010000Y-129540000D03*
X77470000Y-129540000D03*
X80010000Y-127000000D03*
X77470000Y-127000000D03*
X80010000Y-124460000D03*
X77470000Y-124460000D03*
D17*
X86530000Y-106680000D03*
X88730000Y-106680000D03*
X91610000Y-104140000D03*
X93810000Y-104140000D03*
X86530000Y-114300000D03*
X88730000Y-114300000D03*
X91610000Y-109220000D03*
X93810000Y-109220000D03*
X81450000Y-111760000D03*
X83650000Y-111760000D03*
X91610000Y-114300000D03*
X93810000Y-114300000D03*
X78570000Y-111760000D03*
X76370000Y-111760000D03*
X81450000Y-114300000D03*
X83650000Y-114300000D03*
X78570000Y-119380000D03*
X76370000Y-119380000D03*
X96690000Y-111760000D03*
X98890000Y-111760000D03*
X98890000Y-104140000D03*
X96690000Y-104140000D03*
X96690000Y-109220000D03*
X98890000Y-109220000D03*
X101770000Y-119380000D03*
X103970000Y-119380000D03*
X96690000Y-116840000D03*
X98890000Y-116840000D03*
X101770000Y-114300000D03*
X103970000Y-114300000D03*
X106850000Y-119380000D03*
X109050000Y-119380000D03*
X101770000Y-121920000D03*
X103970000Y-121920000D03*
X99230000Y-142240000D03*
X101430000Y-142240000D03*
X83650000Y-148590000D03*
X81450000Y-148590000D03*
D18*
X88900000Y-156380000D03*
X88900000Y-158580000D03*
D17*
X86530000Y-161290000D03*
X88730000Y-161290000D03*
D18*
X111760000Y-158580000D03*
X111760000Y-156380000D03*
X111760000Y-111930000D03*
X111760000Y-114130000D03*
D17*
X86530000Y-116840000D03*
X88730000Y-116840000D03*
X96690000Y-119380000D03*
X98890000Y-119380000D03*
X99230000Y-158750000D03*
X101430000Y-158750000D03*
X101770000Y-161290000D03*
X103970000Y-161290000D03*
X96690000Y-161290000D03*
X98890000Y-161290000D03*
X91610000Y-161290000D03*
X93810000Y-161290000D03*
D18*
X102870000Y-146220000D03*
X102870000Y-148420000D03*
X92710000Y-153500000D03*
X92710000Y-151300000D03*
X93980000Y-156380000D03*
X93980000Y-158580000D03*
X91440000Y-158580000D03*
X91440000Y-156380000D03*
D17*
X91610000Y-148590000D03*
X93810000Y-148590000D03*
D18*
X100330000Y-146220000D03*
X100330000Y-148420000D03*
X104140000Y-143340000D03*
X104140000Y-141140000D03*
X76200000Y-156040000D03*
X76200000Y-153840000D03*
X101600000Y-109050000D03*
X101600000Y-106850000D03*
X76200000Y-109050000D03*
X76200000Y-106850000D03*
X111760000Y-106850000D03*
X111760000Y-109050000D03*
X96520000Y-128100000D03*
X96520000Y-125900000D03*
D19*
X105410000Y-106680000D03*
X108585000Y-106680000D03*
X80010000Y-106680000D03*
X83185000Y-106680000D03*
D20*
X93120000Y-130220000D03*
X93120000Y-129570000D03*
X93120000Y-128920000D03*
X93120000Y-128270000D03*
X93120000Y-127620000D03*
X93120000Y-126970000D03*
X93120000Y-126320000D03*
X87220000Y-126320000D03*
X87220000Y-126970000D03*
X87220000Y-127620000D03*
X87220000Y-128270000D03*
X87220000Y-128920000D03*
X87220000Y-129570000D03*
X87220000Y-130220000D03*
D19*
X80010000Y-157480000D03*
X83185000Y-157480000D03*
X105410000Y-157480000D03*
X108585000Y-157480000D03*
D21*
X90760000Y-134690000D03*
X90760000Y-135090000D03*
X90760000Y-135490000D03*
X90760000Y-135890000D03*
X90760000Y-136290000D03*
X90760000Y-136690000D03*
X90760000Y-137090000D03*
D22*
X91510000Y-137840000D03*
X91910000Y-137840000D03*
X92310000Y-137840000D03*
X92710000Y-137840000D03*
X93110000Y-137840000D03*
X93510000Y-137840000D03*
X93910000Y-137840000D03*
D21*
X94660000Y-137090000D03*
X94660000Y-136690000D03*
X94660000Y-136290000D03*
X94660000Y-135890000D03*
X94660000Y-135490000D03*
X94660000Y-135090000D03*
X94660000Y-134690000D03*
D22*
X93910000Y-133940000D03*
X93510000Y-133940000D03*
X93110000Y-133940000D03*
X92710000Y-133940000D03*
X92310000Y-133940000D03*
X91910000Y-133940000D03*
X91510000Y-133940000D03*
D23*
X93310000Y-136490000D03*
X93310000Y-135290000D03*
X92110000Y-136490000D03*
X92110000Y-135290000D03*
D24*
X98415400Y-115803200D03*
X100029500Y-134859700D03*
X97774500Y-112554600D03*
X108274200Y-112728800D03*
X88940200Y-154068600D03*
X85573300Y-161162200D03*
X94195400Y-129437900D03*
X104530100Y-128692000D03*
X95789200Y-137991200D03*
X87427700Y-119133200D03*
X109865600Y-112738900D03*
X77349000Y-144457700D03*
X88675800Y-140621300D03*
X101881900Y-146406200D03*
X102234900Y-156336000D03*
X90522700Y-121584500D03*
X99525700Y-148665300D03*
X88352300Y-153468400D03*
X101847400Y-140834300D03*
X87323300Y-139815700D03*
X94359600Y-133940000D03*
X96520000Y-135252800D03*
X89947900Y-134293500D03*
X86302900Y-134096100D03*
X82260900Y-135611000D03*
X89922200Y-136302300D03*
X83816100Y-134401800D03*
X88725300Y-135138600D03*
X89574500Y-133714200D03*
X83820000Y-131461800D03*
X88539600Y-132127700D03*
X92192900Y-133191000D03*
X100599400Y-137007000D03*
X91456200Y-141130400D03*
X91935000Y-139010000D03*
X90890100Y-138670300D03*
X92269100Y-138589100D03*
X90891900Y-137538700D03*
X94011800Y-138597200D03*
X94574100Y-137542600D03*
X78917500Y-121647200D03*
X76202000Y-108086000D03*
X101645600Y-108085100D03*
X89705700Y-131628300D03*
X95413600Y-136385300D03*
X105391000Y-128654600D03*
D25*
X88730000Y-106680000D02*
X88730000Y-106001100D01*
X88730000Y-104140000D02*
X88730000Y-106001100D01*
X91610000Y-104140000D02*
X88730000Y-104140000D01*
X88730000Y-104140000D02*
X88580000Y-104140000D01*
X111760000Y-156380000D02*
X111081100Y-156380000D01*
X110490000Y-142240000D02*
X110490000Y-139700000D01*
X110490000Y-139700000D02*
X110490000Y-137160000D01*
X111081100Y-156380000D02*
X110383100Y-155681900D01*
X108585000Y-157480000D02*
X110383100Y-155681900D01*
X110490000Y-155575000D02*
X110383100Y-155681900D01*
X110490000Y-153350000D02*
X110490000Y-155575000D01*
X86680000Y-104140000D02*
X86680000Y-104441900D01*
X88580000Y-109220000D02*
X88580000Y-109823900D01*
X88580000Y-111760000D02*
X88580000Y-109823900D01*
X88580000Y-109220000D02*
X88580000Y-108616100D01*
X86524500Y-104597400D02*
X86524500Y-105297800D01*
X86680000Y-104441900D02*
X86524500Y-104597400D01*
X87509000Y-107545100D02*
X88580000Y-108616100D01*
X87509000Y-106282300D02*
X87509000Y-107545100D01*
X86524500Y-105297800D02*
X87509000Y-106282300D01*
X98740000Y-115478600D02*
X98740000Y-114300000D01*
X98415400Y-115803200D02*
X98740000Y-115478600D01*
X93980000Y-119380000D02*
X93980000Y-118151600D01*
X107000000Y-116840000D02*
X107000000Y-116538000D01*
X103820000Y-116840000D02*
X104648900Y-116840000D01*
X103970000Y-117593900D02*
X103820000Y-117443900D01*
X103970000Y-119380000D02*
X103970000Y-117593900D01*
X103820000Y-116840000D02*
X103820000Y-117443900D01*
X85090000Y-144780000D02*
X85090000Y-143551600D01*
X84140000Y-133350000D02*
X84140000Y-133953900D01*
X84140000Y-133350000D02*
X84140000Y-132746100D01*
X84743900Y-128270000D02*
X84423900Y-128590000D01*
X87220000Y-128270000D02*
X84743900Y-128270000D01*
X83820000Y-128590000D02*
X84423900Y-128590000D01*
X84423900Y-132462200D02*
X84140000Y-132746100D01*
X84423900Y-128590000D02*
X84423900Y-132462200D01*
X94660000Y-135490000D02*
X95288900Y-135490000D01*
X108585000Y-109571100D02*
X107000000Y-111156100D01*
X108585000Y-106680000D02*
X108585000Y-109571100D01*
X107000000Y-111760000D02*
X107000000Y-111458000D01*
X107000000Y-111458000D02*
X107000000Y-111156100D01*
X104950900Y-111458000D02*
X104648900Y-111760000D01*
X107000000Y-111458000D02*
X104950900Y-111458000D01*
X103820000Y-111760000D02*
X104648900Y-111760000D01*
X93810000Y-114300000D02*
X93810000Y-113621100D01*
X94639000Y-112792100D02*
X93810000Y-113621100D01*
X94639000Y-108614200D02*
X94639000Y-112792100D01*
X94565800Y-108541000D02*
X94639000Y-108614200D01*
X93050800Y-108541000D02*
X94565800Y-108541000D01*
X92439000Y-109152800D02*
X93050800Y-108541000D01*
X92439000Y-110477100D02*
X92439000Y-109152800D01*
X91760000Y-111156100D02*
X92439000Y-110477100D01*
X100330000Y-153350000D02*
X100330000Y-153764400D01*
X101851700Y-153764400D02*
X102266100Y-153350000D01*
X100330000Y-153764400D02*
X101851700Y-153764400D01*
X102870000Y-153350000D02*
X102266100Y-153350000D01*
X104950900Y-116538000D02*
X107000000Y-116538000D01*
X104648900Y-116840000D02*
X104950900Y-116538000D01*
X109605200Y-113696100D02*
X107000000Y-113696100D01*
X109754400Y-113845300D02*
X109605200Y-113696100D01*
X109754400Y-114775200D02*
X109754400Y-113845300D01*
X108293600Y-116236000D02*
X109754400Y-114775200D01*
X107302000Y-116236000D02*
X108293600Y-116236000D01*
X107000000Y-116538000D02*
X107302000Y-116236000D01*
X107000000Y-114300000D02*
X107000000Y-113696100D01*
X107000000Y-111760000D02*
X107000000Y-113696100D01*
X83185000Y-153318900D02*
X81600000Y-151733900D01*
X83185000Y-157480000D02*
X83185000Y-153318900D01*
X76520000Y-114300000D02*
X76520000Y-113696100D01*
X85142300Y-106680000D02*
X86524500Y-105297800D01*
X83185000Y-106680000D02*
X85142300Y-106680000D01*
X75541000Y-112717100D02*
X76520000Y-113696100D01*
X75541000Y-111157800D02*
X75541000Y-112717100D01*
X76819800Y-109879000D02*
X75541000Y-111157800D01*
X79986000Y-109879000D02*
X76819800Y-109879000D01*
X83185000Y-106680000D02*
X79986000Y-109879000D01*
X91760000Y-111760000D02*
X91760000Y-111458000D01*
X91760000Y-111458000D02*
X91760000Y-111156100D01*
X89710900Y-111458000D02*
X89408900Y-111760000D01*
X91760000Y-111458000D02*
X89710900Y-111458000D01*
X88580000Y-111760000D02*
X89408900Y-111760000D01*
X93660000Y-117831600D02*
X93980000Y-118151600D01*
X93660000Y-116840000D02*
X93660000Y-117831600D01*
X93810000Y-116086100D02*
X93810000Y-114300000D01*
X93660000Y-116236100D02*
X93810000Y-116086100D01*
X93660000Y-116840000D02*
X93660000Y-116236100D01*
X110490000Y-153350000D02*
X111093900Y-153350000D01*
X110490000Y-142240000D02*
X110490000Y-144780000D01*
X111583500Y-152860400D02*
X111093900Y-153350000D01*
X111583500Y-146829400D02*
X111583500Y-152860400D01*
X110626600Y-145872500D02*
X111583500Y-146829400D01*
X110490000Y-145872500D02*
X110626600Y-145872500D01*
X110490000Y-144780000D02*
X110490000Y-145872500D01*
X81600000Y-151130000D02*
X81600000Y-151431900D01*
X81600000Y-151431900D02*
X81600000Y-151733900D01*
X76520000Y-148590000D02*
X76520000Y-148891900D01*
X80693100Y-150525000D02*
X76520000Y-150525000D01*
X81600000Y-151431900D02*
X80693100Y-150525000D01*
X76520000Y-148891900D02*
X76520000Y-150525000D01*
X76520000Y-150525000D02*
X76520000Y-151130000D01*
X77470000Y-139700000D02*
X77470000Y-140792500D01*
X76520000Y-148590000D02*
X76520000Y-146050000D01*
X77356800Y-140792500D02*
X77470000Y-140792500D01*
X76377400Y-141771900D02*
X77356800Y-140792500D01*
X76377400Y-145303500D02*
X76377400Y-141771900D01*
X76520000Y-145446100D02*
X76377400Y-145303500D01*
X76520000Y-146050000D02*
X76520000Y-145446100D01*
X96520000Y-138110000D02*
X97123900Y-138110000D01*
X99060000Y-138430000D02*
X97831600Y-138430000D01*
X97123900Y-135184200D02*
X97123900Y-138110000D01*
X96771000Y-134831300D02*
X97123900Y-135184200D01*
X96072800Y-134831300D02*
X96771000Y-134831300D01*
X95414100Y-135490000D02*
X96072800Y-134831300D01*
X95288900Y-135490000D02*
X95414100Y-135490000D01*
X97790000Y-148270000D02*
X97186100Y-148270000D01*
X97123900Y-138110000D02*
X97380700Y-138366700D01*
X97768300Y-138366700D02*
X97380700Y-138366700D01*
X97831600Y-138430000D02*
X97768300Y-138366700D01*
X96520000Y-156530000D02*
X97123900Y-156530000D01*
X98199800Y-133030000D02*
X96520000Y-133030000D01*
X100029500Y-134859700D02*
X98199800Y-133030000D01*
X106680000Y-133350000D02*
X106680000Y-132121600D01*
X107000000Y-116840000D02*
X107000000Y-117443900D01*
X82690100Y-141151700D02*
X85090000Y-143551600D01*
X82690100Y-134899100D02*
X82690100Y-141151700D01*
X83635300Y-133953900D02*
X82690100Y-134899100D01*
X84140000Y-133953900D02*
X83635300Y-133953900D01*
X104971600Y-130413200D02*
X106680000Y-132121600D01*
X104971600Y-122727800D02*
X104971600Y-130413200D01*
X107679000Y-120020400D02*
X104971600Y-122727800D01*
X107679000Y-118122900D02*
X107679000Y-120020400D01*
X107000000Y-117443900D02*
X107679000Y-118122900D01*
X97186100Y-138561300D02*
X97186100Y-148270000D01*
X97380700Y-138366700D02*
X97186100Y-138561300D01*
X95250000Y-153350000D02*
X95853900Y-153350000D01*
X97790000Y-153350000D02*
X97186100Y-153350000D01*
X97186100Y-152431400D02*
X96726800Y-152890700D01*
X97186100Y-148270000D02*
X97186100Y-152431400D01*
X96313200Y-152890700D02*
X96726800Y-152890700D01*
X95853900Y-153350000D02*
X96313200Y-152890700D01*
X96726800Y-152890700D02*
X97186100Y-153350000D01*
X101430000Y-158750000D02*
X101430000Y-158071100D01*
X97123900Y-156530000D02*
X97748400Y-155905500D01*
X97790000Y-155863900D02*
X97790000Y-153350000D01*
X97748400Y-155905500D02*
X97790000Y-155863900D01*
X98676300Y-156833500D02*
X100330000Y-156833500D01*
X97748400Y-155905500D02*
X98676300Y-156833500D01*
X100330000Y-156971100D02*
X100330000Y-156833500D01*
X101430000Y-158071100D02*
X100330000Y-156971100D01*
X100330000Y-156833500D02*
X100330000Y-153764400D01*
X96690000Y-111760000D02*
X96690000Y-112438900D01*
X107950000Y-147320000D02*
X106857500Y-147320000D01*
X108900000Y-111760000D02*
X109728900Y-111760000D01*
X96690000Y-111760000D02*
X96690000Y-109220000D01*
X81450000Y-111760000D02*
X81450000Y-111081100D01*
X83311100Y-109220000D02*
X81450000Y-111081100D01*
X86680000Y-109220000D02*
X83311100Y-109220000D01*
X86680000Y-109220000D02*
X86680000Y-108616100D01*
X86680000Y-107508900D02*
X86530000Y-107358900D01*
X86680000Y-108616100D02*
X86680000Y-107508900D01*
X86530000Y-106680000D02*
X86530000Y-107358900D01*
X96840000Y-114300000D02*
X96840000Y-114903900D01*
X96690000Y-119380000D02*
X96690000Y-120058900D01*
X96690000Y-119380000D02*
X96690000Y-118701100D01*
X109898900Y-111930000D02*
X109728900Y-111760000D01*
X111760000Y-111930000D02*
X109898900Y-111930000D01*
X101294800Y-151089100D02*
X100933900Y-151450000D01*
X101294800Y-146334600D02*
X101294800Y-151089100D01*
X102247100Y-145382300D02*
X101294800Y-146334600D01*
X104919800Y-145382300D02*
X102247100Y-145382300D01*
X106857500Y-147320000D02*
X104919800Y-145382300D01*
X108639100Y-112363900D02*
X108900000Y-112363900D01*
X108274200Y-112728800D02*
X108639100Y-112363900D01*
X108900000Y-111760000D02*
X108900000Y-112363900D01*
X96805700Y-112554600D02*
X96840000Y-112554600D01*
X96690000Y-112438900D02*
X96805700Y-112554600D01*
X96840000Y-112554600D02*
X96840000Y-114300000D01*
X96840000Y-112554600D02*
X97774500Y-112554600D01*
X93120000Y-128270000D02*
X94073900Y-128270000D01*
X95512800Y-117523900D02*
X96690000Y-118701100D01*
X95512800Y-116091800D02*
X95512800Y-117523900D01*
X96700700Y-114903900D02*
X95512800Y-116091800D01*
X96840000Y-114903900D02*
X96700700Y-114903900D01*
X94696800Y-127647100D02*
X94073900Y-128270000D01*
X94696800Y-125374500D02*
X94696800Y-127647100D01*
X95514200Y-124557100D02*
X94696800Y-125374500D01*
X95514200Y-121234700D02*
X95514200Y-124557100D01*
X96690000Y-120058900D02*
X95514200Y-121234700D01*
X100474800Y-151450000D02*
X100933900Y-151450000D01*
X100474800Y-151450000D02*
X100330000Y-151450000D01*
X100330000Y-151450000D02*
X97790000Y-151450000D01*
X88940100Y-154068600D02*
X88940200Y-154068600D01*
X88940100Y-153347800D02*
X88940100Y-154068600D01*
X87992300Y-152400000D02*
X88940100Y-153347800D01*
X86781100Y-152400000D02*
X87992300Y-152400000D01*
X83650000Y-149268900D02*
X86781100Y-152400000D01*
X79149200Y-121211700D02*
X78498200Y-121211700D01*
X82850200Y-124912700D02*
X79149200Y-121211700D01*
X87669500Y-124912700D02*
X82850200Y-124912700D01*
X91026800Y-128270000D02*
X87669500Y-124912700D01*
X93120000Y-128270000D02*
X91026800Y-128270000D01*
X77819600Y-111081100D02*
X81450000Y-111081100D01*
X77741000Y-111159700D02*
X77819600Y-111081100D01*
X77741000Y-112377800D02*
X77741000Y-111159700D01*
X78014900Y-112651700D02*
X77741000Y-112377800D01*
X78122400Y-112651700D02*
X78014900Y-112651700D01*
X79272900Y-113802200D02*
X78122400Y-112651700D01*
X79272900Y-114828500D02*
X79272900Y-113802200D01*
X78803000Y-115298400D02*
X79272900Y-114828500D01*
X78603200Y-115298400D02*
X78803000Y-115298400D01*
X77591000Y-116310600D02*
X78603200Y-115298400D01*
X77591000Y-120304500D02*
X77591000Y-116310600D01*
X78498200Y-121211700D02*
X77591000Y-120304500D01*
X77470000Y-132080000D02*
X77470000Y-130987500D01*
X83650000Y-148590000D02*
X83650000Y-149268900D01*
X83650000Y-148590000D02*
X83650000Y-147911100D01*
X81102600Y-145363700D02*
X83650000Y-147911100D01*
X81102600Y-129048200D02*
X81102600Y-145363700D01*
X80421700Y-128367300D02*
X81102600Y-129048200D01*
X78612300Y-128367300D02*
X80421700Y-128367300D01*
X78612300Y-122843500D02*
X78612300Y-128367300D01*
X78470100Y-122701300D02*
X78612300Y-122843500D01*
X78470100Y-121239800D02*
X78470100Y-122701300D01*
X78498200Y-121211700D02*
X78470100Y-121239800D01*
X77583200Y-130987500D02*
X77470000Y-130987500D01*
X78612300Y-129958400D02*
X77583200Y-130987500D01*
X78612300Y-128367300D02*
X78612300Y-129958400D01*
X86530000Y-161290000D02*
X85701100Y-161290000D01*
X85573300Y-161162200D02*
X85701100Y-161290000D01*
X88730000Y-114300000D02*
X87901100Y-114300000D01*
X87901100Y-113585000D02*
X87901100Y-114300000D01*
X86680000Y-112363900D02*
X87901100Y-113585000D01*
X86680000Y-111760000D02*
X86680000Y-112061900D01*
X86680000Y-112061900D02*
X86680000Y-112363900D01*
X84780800Y-112061900D02*
X84478900Y-111760000D01*
X86680000Y-112061900D02*
X84780800Y-112061900D01*
X83650000Y-111760000D02*
X84478900Y-111760000D01*
X91610000Y-114300000D02*
X88730000Y-114300000D01*
X93810000Y-109220000D02*
X93810000Y-109898900D01*
X86530000Y-114300000D02*
X86530000Y-114978900D01*
X93660000Y-110048900D02*
X93660000Y-111760000D01*
X93810000Y-109898900D02*
X93660000Y-110048900D01*
X92327400Y-114978900D02*
X86530000Y-114978900D01*
X92981000Y-114325300D02*
X92327400Y-114978900D01*
X92981000Y-113042900D02*
X92981000Y-114325300D01*
X93660000Y-112363900D02*
X92981000Y-113042900D01*
X93660000Y-111760000D02*
X93660000Y-112363900D01*
X91610000Y-109220000D02*
X91610000Y-108541100D01*
X93120000Y-127620000D02*
X94073900Y-127620000D01*
X91760000Y-108391100D02*
X91760000Y-108212000D01*
X91610000Y-108541100D02*
X91760000Y-108391100D01*
X91760000Y-108212000D02*
X91760000Y-106680000D01*
X94391700Y-127302200D02*
X94073900Y-127620000D01*
X94391700Y-125034500D02*
X94391700Y-127302200D01*
X95209000Y-124217200D02*
X94391700Y-125034500D01*
X95209000Y-117773000D02*
X95209000Y-124217200D01*
X95110200Y-117674200D02*
X95209000Y-117773000D01*
X95110200Y-108653700D02*
X95110200Y-117674200D01*
X94668500Y-108212000D02*
X95110200Y-108653700D01*
X91760000Y-108212000D02*
X94668500Y-108212000D01*
X93660000Y-104968900D02*
X93660000Y-106680000D01*
X93810000Y-104818900D02*
X93660000Y-104968900D01*
X93810000Y-104140000D02*
X93810000Y-104818900D01*
X83228900Y-103461100D02*
X93810000Y-103461100D01*
X80010000Y-106680000D02*
X83228900Y-103461100D01*
X93810000Y-104140000D02*
X93810000Y-103461100D01*
X76520000Y-118551100D02*
X76520000Y-116840000D01*
X76370000Y-118701100D02*
X76520000Y-118551100D01*
X76370000Y-119380000D02*
X76370000Y-118701100D01*
X81450000Y-114300000D02*
X81450000Y-114978900D01*
X78420000Y-116840000D02*
X78420000Y-116236100D01*
X81450000Y-116145400D02*
X81450000Y-114978900D01*
X81540700Y-116236100D02*
X81450000Y-116145400D01*
X81600000Y-116236100D02*
X81540700Y-116236100D01*
X78510700Y-116145400D02*
X78420000Y-116236100D01*
X81450000Y-116145400D02*
X78510700Y-116145400D01*
X81600000Y-116840000D02*
X81600000Y-116236100D01*
X93120000Y-126320000D02*
X92166100Y-126320000D01*
X81600000Y-116840000D02*
X81600000Y-117443900D01*
X83630400Y-117443900D02*
X81600000Y-117443900D01*
X92166100Y-125979600D02*
X83630400Y-117443900D01*
X92166100Y-126320000D02*
X92166100Y-125979600D01*
X77162800Y-112438900D02*
X78420000Y-113696100D01*
X76370000Y-112438900D02*
X77162800Y-112438900D01*
X76370000Y-111760000D02*
X76370000Y-112438900D01*
X78420000Y-114300000D02*
X78420000Y-113696100D01*
X78570000Y-111760000D02*
X78570000Y-112438900D01*
X83500000Y-116840000D02*
X83500000Y-116236100D01*
X83500000Y-114300000D02*
X83500000Y-116236100D01*
X83650000Y-114300000D02*
X83500000Y-114300000D01*
X81638900Y-112438900D02*
X78570000Y-112438900D01*
X83500000Y-114300000D02*
X81638900Y-112438900D01*
X86248300Y-119588300D02*
X83500000Y-116840000D01*
X87706900Y-119588300D02*
X86248300Y-119588300D01*
X94073900Y-125955300D02*
X87706900Y-119588300D01*
X94073900Y-126970000D02*
X94073900Y-125955300D01*
X93120000Y-126970000D02*
X94073900Y-126970000D01*
X98890000Y-104140000D02*
X98890000Y-104818900D01*
X98890000Y-111760000D02*
X98890000Y-111081100D01*
X101920000Y-111760000D02*
X101920000Y-111156100D01*
X98790300Y-104918600D02*
X98790300Y-105386000D01*
X98890000Y-104818900D02*
X98790300Y-104918600D01*
X98673400Y-105386000D02*
X98790300Y-105386000D01*
X97755800Y-106303600D02*
X98673400Y-105386000D01*
X97755800Y-109946900D02*
X97755800Y-106303600D01*
X98890000Y-111081100D02*
X97755800Y-109946900D01*
X100634400Y-109870500D02*
X101920000Y-111156100D01*
X100634400Y-107230100D02*
X100634400Y-109870500D01*
X98790300Y-105386000D02*
X100634400Y-107230100D01*
X98890000Y-109220000D02*
X98890000Y-109898900D01*
X100024100Y-111033000D02*
X98890000Y-109898900D01*
X100024100Y-116840000D02*
X100024100Y-111033000D01*
X98890000Y-116840000D02*
X100024100Y-116840000D01*
X101770000Y-119380000D02*
X101770000Y-118701100D01*
X101770000Y-116840000D02*
X101770000Y-118701100D01*
X100024100Y-116840000D02*
X101770000Y-116840000D01*
X101770000Y-116840000D02*
X101920000Y-116840000D01*
X98740000Y-106680000D02*
X98740000Y-107283900D01*
X101770000Y-114300000D02*
X101770000Y-113621100D01*
X93120000Y-128920000D02*
X94073900Y-128920000D01*
X100329200Y-109236100D02*
X98885800Y-107792700D01*
X100329200Y-112180300D02*
X100329200Y-109236100D01*
X101770000Y-113621100D02*
X100329200Y-112180300D01*
X98740000Y-107646900D02*
X98740000Y-107283900D01*
X98885800Y-107792700D02*
X98740000Y-107646900D01*
X95001900Y-127992000D02*
X94073900Y-128920000D01*
X95001900Y-125501000D02*
X95001900Y-127992000D01*
X95874100Y-124628800D02*
X95001900Y-125501000D01*
X95874100Y-121578300D02*
X95874100Y-124628800D01*
X97554800Y-119897600D02*
X95874100Y-121578300D01*
X97554800Y-118815400D02*
X97554800Y-119897600D01*
X96696900Y-117957500D02*
X97554800Y-118815400D01*
X96409200Y-117957500D02*
X96696900Y-117957500D01*
X95835500Y-117383800D02*
X96409200Y-117957500D01*
X95835500Y-116303600D02*
X95835500Y-117383800D01*
X96292400Y-115846700D02*
X95835500Y-116303600D01*
X96636700Y-115846700D02*
X96292400Y-115846700D01*
X97669000Y-114814400D02*
X96636700Y-115846700D01*
X97669000Y-114028600D02*
X97669000Y-114814400D01*
X98315900Y-113381700D02*
X97669000Y-114028600D01*
X98712400Y-113381700D02*
X98315900Y-113381700D01*
X99718900Y-112375200D02*
X98712400Y-113381700D01*
X99718900Y-111170300D02*
X99718900Y-112375200D01*
X98447500Y-109898900D02*
X99718900Y-111170300D01*
X98195200Y-109898900D02*
X98447500Y-109898900D01*
X98061000Y-109764700D02*
X98195200Y-109898900D01*
X98061000Y-108617500D02*
X98061000Y-109764700D01*
X98885800Y-107792700D02*
X98061000Y-108617500D01*
X96840000Y-106680000D02*
X96840000Y-106076100D01*
X96690000Y-104140000D02*
X96690000Y-104818900D01*
X96840000Y-104818900D02*
X96840000Y-106076100D01*
X96690000Y-104818900D02*
X96840000Y-104818900D01*
X102191000Y-103461000D02*
X105410000Y-106680000D01*
X98061000Y-103461000D02*
X102191000Y-103461000D01*
X97145300Y-104376700D02*
X98061000Y-103461000D01*
X97145300Y-104774400D02*
X97145300Y-104376700D01*
X97100800Y-104818900D02*
X97145300Y-104774400D01*
X96840000Y-104818900D02*
X97100800Y-104818900D01*
X105402800Y-114903900D02*
X108900000Y-114903900D01*
X104798900Y-114300000D02*
X105402800Y-114903900D01*
X103970000Y-114300000D02*
X104798900Y-114300000D01*
X108900000Y-114300000D02*
X108900000Y-114903900D01*
X102749000Y-116199900D02*
X103970000Y-114978900D01*
X102749000Y-119820700D02*
X102749000Y-116199900D01*
X102447800Y-120121900D02*
X102749000Y-119820700D01*
X101070700Y-120121900D02*
X102447800Y-120121900D01*
X98467700Y-117518900D02*
X101070700Y-120121900D01*
X96690000Y-117518900D02*
X98467700Y-117518900D01*
X96690000Y-116840000D02*
X96690000Y-117518900D01*
X103970000Y-114300000D02*
X103970000Y-114978900D01*
X108900000Y-118551100D02*
X108900000Y-116840000D01*
X109050000Y-118701100D02*
X108900000Y-118551100D01*
X109050000Y-119380000D02*
X109050000Y-118701100D01*
X101920000Y-122748900D02*
X101920000Y-124460000D01*
X101770000Y-122598900D02*
X101920000Y-122748900D01*
X101770000Y-122259400D02*
X101770000Y-122598900D01*
X101770000Y-122259400D02*
X101770000Y-121920000D01*
X93120000Y-130220000D02*
X94073900Y-130220000D01*
X101770000Y-121920000D02*
X100941100Y-121920000D01*
X96840000Y-124094600D02*
X96840000Y-121920000D01*
X95313500Y-125621100D02*
X96840000Y-124094600D01*
X95313500Y-128980400D02*
X95313500Y-125621100D01*
X94073900Y-130220000D02*
X95313500Y-128980400D01*
X100337200Y-121316100D02*
X100941100Y-121920000D01*
X96840000Y-121316100D02*
X100337200Y-121316100D01*
X96840000Y-121920000D02*
X96840000Y-121316100D01*
X103820000Y-122748900D02*
X103970000Y-122598900D01*
X103820000Y-124460000D02*
X103820000Y-122748900D01*
X103820000Y-124460000D02*
X103820000Y-125063900D01*
X103970000Y-121920000D02*
X103970000Y-122089700D01*
X103970000Y-122089700D02*
X103970000Y-122598900D01*
X106021100Y-120038600D02*
X106021100Y-119380000D01*
X103970000Y-122089700D02*
X106021100Y-120038600D01*
X106850000Y-119380000D02*
X106021100Y-119380000D01*
X93120000Y-129570000D02*
X94073900Y-129570000D01*
X94073900Y-129559400D02*
X94073900Y-129570000D01*
X94195400Y-129437900D02*
X94073900Y-129559400D01*
X104530100Y-125774000D02*
X104530100Y-128692000D01*
X103820000Y-125063900D02*
X104530100Y-125774000D01*
X101430000Y-142240000D02*
X101430000Y-141561100D01*
X98740000Y-121920000D02*
X98740000Y-122523900D01*
X100941000Y-124724900D02*
X98740000Y-122523900D01*
X100941000Y-135331300D02*
X100941000Y-124724900D01*
X101428000Y-135818300D02*
X100941000Y-135331300D01*
X101428000Y-141559100D02*
X101428000Y-135818300D01*
X101430000Y-141561100D02*
X101428000Y-141559100D01*
X91760000Y-120970000D02*
X91760000Y-117443900D01*
X93980000Y-123190000D02*
X91760000Y-120970000D01*
X91760000Y-116840000D02*
X91760000Y-117443900D01*
X95848500Y-137931900D02*
X95789200Y-137991200D01*
X95848500Y-136105800D02*
X95848500Y-137931900D01*
X95632700Y-135890000D02*
X95848500Y-136105800D01*
X94660000Y-135890000D02*
X95632700Y-135890000D01*
X81450000Y-148590000D02*
X81450000Y-148638600D01*
X79248900Y-146437500D02*
X79248900Y-146050000D01*
X81450000Y-148638600D02*
X79248900Y-146437500D01*
X78420000Y-146050000D02*
X79248900Y-146050000D01*
X88900000Y-156380000D02*
X88221100Y-156380000D01*
X82985000Y-150173600D02*
X81450000Y-148638600D01*
X83878600Y-150173600D02*
X82985000Y-150173600D01*
X86625200Y-152920200D02*
X83878600Y-150173600D01*
X86625200Y-154784100D02*
X86625200Y-152920200D01*
X88221100Y-156380000D02*
X86625200Y-154784100D01*
X87427700Y-118416600D02*
X87427700Y-119133200D01*
X86530000Y-117518900D02*
X87427700Y-118416600D01*
X86530000Y-116840000D02*
X86530000Y-117518900D01*
X111081100Y-113954400D02*
X111081100Y-114130000D01*
X109865600Y-112738900D02*
X111081100Y-113954400D01*
X111760000Y-114130000D02*
X111081100Y-114130000D01*
X78420000Y-148590000D02*
X78420000Y-147986100D01*
X77349000Y-146915100D02*
X78420000Y-147986100D01*
X77349000Y-144457700D02*
X77349000Y-146915100D01*
X111760000Y-158580000D02*
X111081100Y-158580000D01*
X78420000Y-157350900D02*
X78420000Y-151130000D01*
X81680200Y-160611100D02*
X78420000Y-157350900D01*
X88730000Y-160611100D02*
X81680200Y-160611100D01*
X88730000Y-161290000D02*
X88730000Y-160611100D01*
X88730000Y-161290000D02*
X88730000Y-161968900D01*
X108371100Y-161290000D02*
X103970000Y-161290000D01*
X111081100Y-158580000D02*
X108371100Y-161290000D01*
X89421300Y-162660200D02*
X88730000Y-161968900D01*
X103278700Y-162660200D02*
X89421300Y-162660200D01*
X103970000Y-161968900D02*
X103278700Y-162660200D01*
X103970000Y-161290000D02*
X103970000Y-161968900D01*
X99230000Y-158750000D02*
X99230000Y-159428900D01*
X98890000Y-119380000D02*
X98890000Y-120058900D01*
X99230000Y-159428900D02*
X99230000Y-159750900D01*
X99842000Y-121010900D02*
X98890000Y-120058900D01*
X102298600Y-121010900D02*
X99842000Y-121010900D01*
X102991000Y-121703300D02*
X102298600Y-121010900D01*
X102991000Y-126052700D02*
X102991000Y-121703300D01*
X104098500Y-127160200D02*
X102991000Y-126052700D01*
X104098500Y-134536800D02*
X104098500Y-127160200D01*
X106857400Y-137295700D02*
X104098500Y-134536800D01*
X106857400Y-138174600D02*
X106857400Y-137295700D01*
X107004800Y-138322000D02*
X106857400Y-138174600D01*
X108142700Y-138322000D02*
X107004800Y-138322000D01*
X109397400Y-139576700D02*
X108142700Y-138322000D01*
X109397400Y-148912500D02*
X109397400Y-139576700D01*
X103779100Y-154530800D02*
X109397400Y-148912500D01*
X103779100Y-158213500D02*
X103779100Y-154530800D01*
X102241700Y-159750900D02*
X103779100Y-158213500D01*
X99230000Y-159750900D02*
X102241700Y-159750900D01*
X98890000Y-160090900D02*
X99230000Y-159750900D01*
X98890000Y-161290000D02*
X98890000Y-160090900D01*
X83500000Y-154971000D02*
X83500000Y-151130000D01*
X86130000Y-157601000D02*
X83500000Y-154971000D01*
X87603200Y-157601000D02*
X86130000Y-157601000D01*
X87729500Y-157727300D02*
X87603200Y-157601000D01*
X89484200Y-157727300D02*
X87729500Y-157727300D01*
X89640000Y-157883100D02*
X89484200Y-157727300D01*
X89640000Y-160752700D02*
X89640000Y-157883100D01*
X90856300Y-161969000D02*
X89640000Y-160752700D01*
X92369200Y-161969000D02*
X90856300Y-161969000D01*
X92981000Y-161357200D02*
X92369200Y-161969000D01*
X92981000Y-160745300D02*
X92981000Y-161357200D01*
X93115300Y-160611000D02*
X92981000Y-160745300D01*
X94637300Y-160611000D02*
X93115300Y-160611000D01*
X95995200Y-161968900D02*
X94637300Y-160611000D01*
X98890000Y-161968900D02*
X95995200Y-161968900D01*
X98890000Y-161290000D02*
X98890000Y-161968900D01*
X91610000Y-161290000D02*
X91610000Y-160611100D01*
X86360000Y-156530000D02*
X86963900Y-156530000D01*
X87220000Y-127620000D02*
X88173900Y-127620000D01*
X91610000Y-160168600D02*
X91448400Y-160006900D01*
X91610000Y-160611100D02*
X91610000Y-160168600D01*
X92675800Y-158779500D02*
X91448400Y-160006900D01*
X92675800Y-158456300D02*
X92675800Y-158779500D01*
X93923100Y-157209000D02*
X92675800Y-158456300D01*
X94545300Y-157209000D02*
X93923100Y-157209000D01*
X94726200Y-157028100D02*
X94545300Y-157209000D01*
X94726200Y-155460000D02*
X94726200Y-157028100D01*
X94646000Y-155379800D02*
X94726200Y-155460000D01*
X94646000Y-152648900D02*
X94646000Y-155379800D01*
X95015900Y-152279000D02*
X94646000Y-152648900D01*
X95722100Y-152279000D02*
X95015900Y-152279000D01*
X95854000Y-152147100D02*
X95722100Y-152279000D01*
X95854000Y-147223500D02*
X95854000Y-152147100D01*
X91915200Y-143284700D02*
X95854000Y-147223500D01*
X91915200Y-142918500D02*
X91915200Y-143284700D01*
X87675800Y-138679100D02*
X91915200Y-142918500D01*
X87675800Y-131927200D02*
X87675800Y-138679100D01*
X87980900Y-131622100D02*
X87675800Y-131927200D01*
X87980900Y-131416100D02*
X87980900Y-131622100D01*
X88506300Y-130890700D02*
X87980900Y-131416100D01*
X88506300Y-127952400D02*
X88506300Y-130890700D01*
X88173900Y-127620000D02*
X88506300Y-127952400D01*
X87804900Y-157371000D02*
X86963900Y-156530000D01*
X89559500Y-157371000D02*
X87804900Y-157371000D01*
X90052900Y-157864400D02*
X89559500Y-157371000D01*
X90052900Y-158611500D02*
X90052900Y-157864400D01*
X91448400Y-160006900D02*
X90052900Y-158611500D01*
X87113900Y-158580000D02*
X86963900Y-158430000D01*
X88900000Y-158580000D02*
X87113900Y-158580000D01*
X86521300Y-158430000D02*
X86963900Y-158430000D01*
X86521300Y-158430000D02*
X86360000Y-158430000D01*
X85666000Y-158520100D02*
X85756100Y-158430000D01*
X81050100Y-158520100D02*
X85666000Y-158520100D01*
X80010000Y-157480000D02*
X81050100Y-158520100D01*
X86360000Y-158430000D02*
X85756100Y-158430000D01*
X102870000Y-146220000D02*
X102191100Y-146220000D01*
X102004900Y-146406200D02*
X101881900Y-146406200D01*
X102191100Y-146220000D02*
X102004900Y-146406200D01*
X99380000Y-152905200D02*
X99380000Y-156210000D01*
X100006200Y-152279000D02*
X99380000Y-152905200D01*
X100847000Y-152279000D02*
X100006200Y-152279000D01*
X101881900Y-151244100D02*
X100847000Y-152279000D01*
X101881900Y-146406200D02*
X101881900Y-151244100D01*
X87220000Y-128920000D02*
X88173900Y-128920000D01*
X88675800Y-140542300D02*
X88675800Y-140621300D01*
X87370700Y-139237200D02*
X88675800Y-140542300D01*
X87370700Y-131568700D02*
X87370700Y-139237200D01*
X88173900Y-130765500D02*
X87370700Y-131568700D01*
X88173900Y-128920000D02*
X88173900Y-130765500D01*
X101280000Y-156210000D02*
X102108900Y-156210000D01*
X90522700Y-119311600D02*
X88730000Y-117518900D01*
X90522700Y-121584500D02*
X90522700Y-119311600D01*
X88730000Y-116840000D02*
X88730000Y-117518900D01*
X102234900Y-156336000D02*
X102108900Y-156210000D01*
X101770000Y-161290000D02*
X101770000Y-161629400D01*
X110490000Y-151450000D02*
X109886100Y-151450000D01*
X93810000Y-161290000D02*
X93810000Y-161968900D01*
X104277000Y-157059100D02*
X109886100Y-151450000D01*
X104277000Y-159122400D02*
X104277000Y-157059100D01*
X101770000Y-161629400D02*
X104277000Y-159122400D01*
X94128800Y-162287700D02*
X93810000Y-161968900D01*
X101111700Y-162287700D02*
X94128800Y-162287700D01*
X101770000Y-161629400D02*
X101111700Y-162287700D01*
X102870000Y-148420000D02*
X102870000Y-151450000D01*
X96690000Y-159905000D02*
X96690000Y-161290000D01*
X98563800Y-158031200D02*
X96690000Y-159905000D01*
X99898500Y-158031200D02*
X98563800Y-158031200D01*
X100394000Y-158526700D02*
X99898500Y-158031200D01*
X100394000Y-159146700D02*
X100394000Y-158526700D01*
X100676300Y-159429000D02*
X100394000Y-159146700D01*
X102125400Y-159429000D02*
X100676300Y-159429000D01*
X103473900Y-158080500D02*
X102125400Y-159429000D01*
X103473900Y-151450000D02*
X103473900Y-158080500D01*
X102870000Y-151450000D02*
X103473900Y-151450000D01*
X94496100Y-151300000D02*
X94646100Y-151450000D01*
X92710000Y-151300000D02*
X94496100Y-151300000D01*
X95250000Y-151450000D02*
X94646100Y-151450000D01*
X95766100Y-158580000D02*
X95916100Y-158430000D01*
X93980000Y-158580000D02*
X95766100Y-158580000D01*
X96520000Y-158430000D02*
X95916100Y-158430000D01*
X84355900Y-126320000D02*
X87220000Y-126320000D01*
X81507000Y-129168900D02*
X84355900Y-126320000D01*
X81507000Y-144532700D02*
X81507000Y-129168900D01*
X84838800Y-147864500D02*
X81507000Y-144532700D01*
X84838800Y-149262700D02*
X84838800Y-147864500D01*
X87026100Y-151450000D02*
X84838800Y-149262700D01*
X87444000Y-151450000D02*
X87026100Y-151450000D01*
X87444000Y-151450000D02*
X87630000Y-151450000D01*
X89566100Y-154101100D02*
X89566100Y-151450000D01*
X90761100Y-155296100D02*
X89566100Y-154101100D01*
X90761100Y-158580000D02*
X90761100Y-155296100D01*
X91440000Y-158580000D02*
X90761100Y-158580000D01*
X90170000Y-151450000D02*
X89566100Y-151450000D01*
X87630000Y-151450000D02*
X89566100Y-151450000D01*
X90170000Y-153350000D02*
X90697600Y-153350000D01*
X92710000Y-153500000D02*
X92031100Y-153500000D01*
X91804800Y-153273700D02*
X92031100Y-153500000D01*
X90773900Y-153273700D02*
X91804800Y-153273700D01*
X90773900Y-153273700D02*
X90697600Y-153350000D01*
X92031100Y-154960000D02*
X92031100Y-153500000D01*
X91440000Y-155551100D02*
X92031100Y-154960000D01*
X91440000Y-156380000D02*
X91440000Y-155551100D01*
X87220000Y-126970000D02*
X86266100Y-126970000D01*
X86266100Y-126970100D02*
X86266100Y-126970000D01*
X84137500Y-126970100D02*
X86266100Y-126970100D01*
X81812200Y-129295400D02*
X84137500Y-126970100D01*
X81812200Y-144292700D02*
X81812200Y-129295400D01*
X85679200Y-148159700D02*
X81812200Y-144292700D01*
X85679200Y-148920800D02*
X85679200Y-148159700D01*
X87153100Y-150394700D02*
X85679200Y-148920800D01*
X90451200Y-150394700D02*
X87153100Y-150394700D01*
X90773900Y-150717400D02*
X90451200Y-150394700D01*
X90773900Y-153273700D02*
X90773900Y-150717400D01*
X91610000Y-148590000D02*
X91610000Y-147911100D01*
X86040000Y-138731900D02*
X86040000Y-139033900D01*
X86040000Y-138731900D02*
X86040000Y-138430000D01*
X84707800Y-136493900D02*
X86040000Y-137826100D01*
X84140000Y-136493900D02*
X84707800Y-136493900D01*
X86040000Y-138430000D02*
X86040000Y-137826100D01*
X84140000Y-135890000D02*
X84140000Y-136493900D01*
X91610000Y-144695500D02*
X91610000Y-147911100D01*
X86040000Y-139125500D02*
X91610000Y-144695500D01*
X86040000Y-139033900D02*
X86040000Y-139125500D01*
X85757200Y-135286100D02*
X84140000Y-135286100D01*
X86879600Y-134163700D02*
X85757200Y-135286100D01*
X86879600Y-131173900D02*
X86879600Y-134163700D01*
X86266100Y-130560400D02*
X86879600Y-131173900D01*
X86266100Y-130220000D02*
X86266100Y-130560400D01*
X87220000Y-130220000D02*
X86266100Y-130220000D01*
X84140000Y-135890000D02*
X84140000Y-135286100D01*
X93810000Y-148590000D02*
X93810000Y-149268900D01*
X93980000Y-153335900D02*
X93980000Y-156380000D01*
X93076000Y-152431900D02*
X93980000Y-153335900D01*
X92433200Y-152431900D02*
X93076000Y-152431900D01*
X91981200Y-151979900D02*
X92433200Y-152431900D01*
X91981200Y-149268900D02*
X91981200Y-151979900D01*
X93810000Y-149268900D02*
X91981200Y-149268900D01*
X84968900Y-139033500D02*
X84968900Y-138430000D01*
X88965900Y-143030500D02*
X84968900Y-139033500D01*
X88965900Y-147347800D02*
X88965900Y-143030500D01*
X90887000Y-149268900D02*
X88965900Y-147347800D01*
X91981200Y-149268900D02*
X90887000Y-149268900D01*
X84140000Y-138430000D02*
X84968900Y-138430000D01*
X83311100Y-136997200D02*
X84140000Y-137826100D01*
X83311100Y-135395800D02*
X83311100Y-136997200D01*
X83622300Y-135084600D02*
X83311100Y-135395800D01*
X83762000Y-135084600D02*
X83622300Y-135084600D01*
X85121200Y-133725400D02*
X83762000Y-135084600D01*
X85121200Y-130714900D02*
X85121200Y-133725400D01*
X86266100Y-129570000D02*
X85121200Y-130714900D01*
X87220000Y-129570000D02*
X86266100Y-129570000D01*
X84140000Y-138430000D02*
X84140000Y-137826100D01*
X87630000Y-153350000D02*
X88233900Y-153350000D01*
X88352300Y-153468400D02*
X88233900Y-153350000D01*
X99651100Y-148539900D02*
X99525700Y-148665300D01*
X99651100Y-148420000D02*
X99651100Y-148539900D01*
X100330000Y-148420000D02*
X99651100Y-148420000D01*
X103155400Y-140834300D02*
X101847400Y-140834300D01*
X103461100Y-141140000D02*
X103155400Y-140834300D01*
X86040000Y-135890000D02*
X86040000Y-136493900D01*
X104140000Y-141140000D02*
X103461100Y-141140000D01*
X87065600Y-139558000D02*
X87323300Y-139815700D01*
X87065600Y-137519500D02*
X87065600Y-139558000D01*
X86040000Y-136493900D02*
X87065600Y-137519500D01*
X97790000Y-142137900D02*
X97790000Y-146370000D01*
X100288500Y-139639400D02*
X97790000Y-142137900D01*
X100288500Y-137333700D02*
X100288500Y-139639400D01*
X97448300Y-134493500D02*
X100288500Y-137333700D01*
X95966800Y-134493500D02*
X97448300Y-134493500D01*
X95370300Y-135090000D02*
X95966800Y-134493500D01*
X94660000Y-135090000D02*
X95370300Y-135090000D01*
X96520000Y-136210000D02*
X96520000Y-135381100D01*
X96520000Y-135381100D02*
X96520000Y-135252800D01*
X94359600Y-133535800D02*
X94359600Y-133940000D01*
X94134900Y-133311100D02*
X94359600Y-133535800D01*
X93910000Y-133311100D02*
X94134900Y-133311100D01*
X93910000Y-133940000D02*
X93910000Y-133311100D01*
X96520000Y-131130000D02*
X95916100Y-131130000D01*
X94414300Y-132631800D02*
X95916100Y-131130000D01*
X92135300Y-132631800D02*
X94414300Y-132631800D01*
X91510000Y-133257100D02*
X92135300Y-132631800D01*
X91510000Y-133940000D02*
X91510000Y-133257100D01*
X89947900Y-134790500D02*
X89947900Y-134293500D01*
X90247400Y-135090000D02*
X89947900Y-134790500D01*
X90760000Y-135090000D02*
X90247400Y-135090000D01*
X86160700Y-133953900D02*
X86040000Y-133953900D01*
X86302900Y-134096100D02*
X86160700Y-133953900D01*
X86040000Y-133350000D02*
X86040000Y-133953900D01*
X86680000Y-148590000D02*
X86680000Y-147986100D01*
X90760000Y-136290000D02*
X90131100Y-136290000D01*
X90118800Y-136302300D02*
X90131100Y-136290000D01*
X89922200Y-136302300D02*
X90118800Y-136302300D01*
X82260900Y-144288000D02*
X82260900Y-135611000D01*
X85959000Y-147986100D02*
X82260900Y-144288000D01*
X86680000Y-147986100D02*
X85959000Y-147986100D01*
X90760000Y-136690000D02*
X90131100Y-136690000D01*
X88580000Y-145859700D02*
X88580000Y-148590000D01*
X86073700Y-143353400D02*
X88580000Y-145859700D01*
X85676300Y-143353400D02*
X86073700Y-143353400D01*
X82995300Y-140672400D02*
X85676300Y-143353400D01*
X82995300Y-135222600D02*
X82995300Y-140672400D01*
X83816100Y-134401800D02*
X82995300Y-135222600D01*
X89441000Y-136751000D02*
X88900000Y-136210000D01*
X90070100Y-136751000D02*
X89441000Y-136751000D01*
X90131100Y-136690000D02*
X90070100Y-136751000D01*
X88900000Y-136210000D02*
X88900000Y-135381100D01*
X88725300Y-135206400D02*
X88725300Y-135138600D01*
X88900000Y-135381100D02*
X88725300Y-135206400D01*
X83820000Y-130490000D02*
X83820000Y-131461800D01*
X89517000Y-133771700D02*
X89574500Y-133714200D01*
X89517000Y-134791300D02*
X89517000Y-133771700D01*
X90215700Y-135490000D02*
X89517000Y-134791300D01*
X90760000Y-135490000D02*
X90215700Y-135490000D01*
X77470000Y-127000000D02*
X77470000Y-128092500D01*
X76200000Y-156040000D02*
X75521100Y-156040000D01*
X77470000Y-127000000D02*
X77470000Y-125907500D01*
X77333800Y-125907500D02*
X77470000Y-125907500D01*
X75169000Y-123742700D02*
X77333800Y-125907500D01*
X75169000Y-109402100D02*
X75169000Y-123742700D01*
X75521100Y-109050000D02*
X75169000Y-109402100D01*
X75907700Y-109050000D02*
X75521100Y-109050000D01*
X111760000Y-106850000D02*
X111081100Y-106850000D01*
X75907700Y-109050000D02*
X76200000Y-109050000D01*
X103389000Y-103145500D02*
X106913200Y-106669700D01*
X82030200Y-103145500D02*
X103389000Y-103145500D01*
X76200000Y-108975700D02*
X82030200Y-103145500D01*
X76200000Y-109050000D02*
X76200000Y-108975700D01*
X107960500Y-105622400D02*
X106913200Y-106669700D01*
X109853500Y-105622400D02*
X107960500Y-105622400D01*
X111081100Y-106850000D02*
X109853500Y-105622400D01*
X104532900Y-109050000D02*
X101600000Y-109050000D01*
X106913200Y-106669700D02*
X104532900Y-109050000D01*
X75368500Y-155887400D02*
X75521100Y-156040000D01*
X75368500Y-130057400D02*
X75368500Y-155887400D01*
X77333400Y-128092500D02*
X75368500Y-130057400D01*
X77470000Y-128092500D02*
X77333400Y-128092500D01*
X96520000Y-128100000D02*
X96520000Y-128928900D01*
X90131100Y-137482800D02*
X89503900Y-138110000D01*
X90131100Y-137090000D02*
X90131100Y-137482800D01*
X88900000Y-138110000D02*
X89503900Y-138110000D01*
X90760000Y-137090000D02*
X90131100Y-137090000D01*
X89487300Y-131180000D02*
X88539600Y-132127700D01*
X94268900Y-131180000D02*
X89487300Y-131180000D01*
X96520000Y-128928900D02*
X94268900Y-131180000D01*
X88296100Y-132371200D02*
X88296100Y-138110000D01*
X88539600Y-132127700D02*
X88296100Y-132371200D01*
X88900000Y-138110000D02*
X88296100Y-138110000D01*
X78570000Y-119380000D02*
X83820000Y-119380000D01*
X83820000Y-123190000D02*
X83820000Y-119380000D01*
X91910000Y-133940000D02*
X91910000Y-133311100D01*
X92072800Y-133311100D02*
X92192900Y-133191000D01*
X91910000Y-133311100D02*
X92072800Y-133311100D01*
X107991600Y-124460000D02*
X109261600Y-123190000D01*
X107950000Y-124460000D02*
X107991600Y-124460000D01*
X107950000Y-137160000D02*
X107950000Y-124460000D01*
X107950000Y-124460000D02*
X106680000Y-123190000D01*
X110490000Y-123190000D02*
X109261600Y-123190000D01*
X94660000Y-134690000D02*
X95288900Y-134690000D01*
X99230000Y-142240000D02*
X99230000Y-141561100D01*
X100529900Y-137076500D02*
X100599400Y-137007000D01*
X97623200Y-134169900D02*
X100529900Y-137076500D01*
X95809000Y-134169900D02*
X97623200Y-134169900D01*
X95288900Y-134690000D02*
X95809000Y-134169900D01*
X99230000Y-141129500D02*
X99230000Y-141561100D01*
X100637400Y-139722100D02*
X99230000Y-141129500D01*
X100637400Y-137184100D02*
X100637400Y-139722100D01*
X100529900Y-137076500D02*
X100637400Y-137184100D01*
X95250000Y-144780000D02*
X95250000Y-142198400D01*
X95250000Y-141584200D02*
X95250000Y-142198400D01*
X95250000Y-141584200D02*
X95250000Y-140970000D01*
X107950000Y-142240000D02*
X106857500Y-142240000D01*
X100330000Y-146220000D02*
X100330000Y-145391100D01*
X100682500Y-145038600D02*
X100682500Y-144176200D01*
X100330000Y-145391100D02*
X100682500Y-145038600D01*
X104921300Y-144176200D02*
X100682500Y-144176200D01*
X106857500Y-142240000D02*
X104921300Y-144176200D01*
X93510000Y-133265700D02*
X93510000Y-133940000D01*
X93804300Y-132971400D02*
X93510000Y-133265700D01*
X95098900Y-132971400D02*
X93804300Y-132971400D01*
X95992200Y-133864700D02*
X95098900Y-132971400D01*
X98050400Y-133864700D02*
X95992200Y-133864700D01*
X101018800Y-136833100D02*
X98050400Y-133864700D01*
X101018800Y-139988000D02*
X101018800Y-136833100D01*
X100568500Y-140438300D02*
X101018800Y-139988000D01*
X100568500Y-144062200D02*
X100568500Y-140438300D01*
X100682500Y-144176200D02*
X100568500Y-144062200D01*
X104140000Y-143340000D02*
X104818900Y-143340000D01*
X107950000Y-144780000D02*
X107950000Y-143687500D01*
X108047700Y-143687500D02*
X107950000Y-143687500D01*
X109043100Y-142692100D02*
X108047700Y-143687500D01*
X109043100Y-141755200D02*
X109043100Y-142692100D01*
X108356000Y-141068100D02*
X109043100Y-141755200D01*
X105221900Y-141068100D02*
X108356000Y-141068100D01*
X105221900Y-142937000D02*
X105221900Y-141068100D01*
X104818900Y-143340000D02*
X105221900Y-142937000D01*
X102870000Y-134605600D02*
X102870000Y-128270000D01*
X105221900Y-136957500D02*
X102870000Y-134605600D01*
X105221900Y-141068100D02*
X105221900Y-136957500D01*
X97372000Y-129958000D02*
X99060000Y-128270000D01*
X95982800Y-129958000D02*
X97372000Y-129958000D01*
X93926900Y-132013900D02*
X95982800Y-129958000D01*
X92306200Y-132013900D02*
X93926900Y-132013900D01*
X90760000Y-133560100D02*
X92306200Y-132013900D01*
X90760000Y-134690000D02*
X90760000Y-133560100D01*
X93510000Y-137840000D02*
X93510000Y-138468900D01*
X93510000Y-139076600D02*
X93510000Y-138468900D01*
X91456200Y-141130400D02*
X93510000Y-139076600D01*
X92710000Y-137840000D02*
X92710000Y-138468900D01*
X92441500Y-139010000D02*
X91935000Y-139010000D01*
X92710000Y-138741500D02*
X92441500Y-139010000D01*
X92710000Y-138468900D02*
X92710000Y-138741500D01*
X91649300Y-139429500D02*
X90890100Y-138670300D01*
X92453600Y-139429500D02*
X91649300Y-139429500D01*
X93110000Y-138773100D02*
X92453600Y-139429500D01*
X93110000Y-137840000D02*
X93110000Y-138773100D01*
X92310000Y-137840000D02*
X92310000Y-138468900D01*
X92310000Y-138548200D02*
X92269100Y-138589100D01*
X92310000Y-138468900D02*
X92310000Y-138548200D01*
X90891900Y-138049000D02*
X90891900Y-137538700D01*
X91311900Y-138469000D02*
X90891900Y-138049000D01*
X91704700Y-138469000D02*
X91311900Y-138469000D01*
X91910000Y-138263700D02*
X91704700Y-138469000D01*
X91910000Y-137840000D02*
X91910000Y-138263700D01*
X94011800Y-138570700D02*
X94011800Y-138597200D01*
X93910000Y-138468900D02*
X94011800Y-138570700D01*
X93910000Y-137840000D02*
X93910000Y-138468900D01*
X75691000Y-152502100D02*
X76200000Y-153011100D01*
X75691000Y-139887700D02*
X75691000Y-152502100D01*
X77148700Y-138430000D02*
X75691000Y-139887700D01*
X77767300Y-138430000D02*
X77148700Y-138430000D01*
X78917500Y-137279800D02*
X77767300Y-138430000D01*
X78917500Y-131588300D02*
X78917500Y-137279800D01*
X79873300Y-130632500D02*
X78917500Y-131588300D01*
X80010000Y-130632500D02*
X79873300Y-130632500D01*
X80010000Y-129540000D02*
X80010000Y-130632500D01*
X76200000Y-153840000D02*
X76200000Y-153011100D01*
X76200000Y-108084000D02*
X76200000Y-106850000D01*
X76202000Y-108086000D02*
X76200000Y-108084000D01*
X80010000Y-127000000D02*
X80010000Y-125907500D01*
X94574100Y-137175900D02*
X94574100Y-137542600D01*
X94660000Y-137090000D02*
X94574100Y-137175900D01*
X78917500Y-124934300D02*
X78917500Y-121647200D01*
X79890700Y-125907500D02*
X78917500Y-124934300D01*
X80010000Y-125907500D02*
X79890700Y-125907500D01*
X96520000Y-125900000D02*
X95841100Y-125900000D01*
X80010000Y-124460000D02*
X81102500Y-124460000D01*
X81875000Y-125232500D02*
X81102500Y-124460000D01*
X87413000Y-125232500D02*
X81875000Y-125232500D01*
X89378600Y-127198100D02*
X87413000Y-125232500D01*
X89378600Y-130695500D02*
X89378600Y-127198100D01*
X94055700Y-130695500D02*
X89378600Y-130695500D01*
X95841100Y-128910100D02*
X94055700Y-130695500D01*
X95841100Y-125900000D02*
X95841100Y-128910100D01*
X87980900Y-132093200D02*
X89378600Y-130695500D01*
X87980900Y-138524400D02*
X87980900Y-132093200D01*
X91009400Y-141552900D02*
X87980900Y-138524400D01*
X91677000Y-141552900D02*
X91009400Y-141552900D01*
X95296800Y-137933100D02*
X91677000Y-141552900D01*
X95296800Y-136861700D02*
X95296800Y-137933100D01*
X95125100Y-136690000D02*
X95296800Y-136861700D01*
X94660000Y-136690000D02*
X95125100Y-136690000D01*
X101645600Y-107724500D02*
X101600000Y-107678900D01*
X101645600Y-108085100D02*
X101645600Y-107724500D01*
X101600000Y-106850000D02*
X101600000Y-107678900D01*
X90760000Y-135890000D02*
X90131100Y-135890000D01*
X89154500Y-132179500D02*
X89705700Y-131628300D01*
X89154500Y-134913400D02*
X89154500Y-132179500D01*
X90131100Y-135890000D02*
X89154500Y-134913400D01*
X95318300Y-136290000D02*
X95413600Y-136385300D01*
X94660000Y-136290000D02*
X95318300Y-136290000D01*
X112438900Y-117423500D02*
X112438900Y-109050000D01*
X109295000Y-120567400D02*
X112438900Y-117423500D01*
X107563700Y-120567400D02*
X109295000Y-120567400D01*
X105391000Y-122740100D02*
X107563700Y-120567400D01*
X105391000Y-128654600D02*
X105391000Y-122740100D01*
X111760000Y-109050000D02*
X112438900Y-109050000D01*
M02*
